<svg xmlns="http://www.w3.org/2000/svg" width="38.933" height="39.297" viewBox="0 0 38.933 39.297">
  <g id="Group_6174" data-name="Group 6174" transform="translate(-254.431 -758)">
    <path id="call-timing-icon" d="M335.987,86.64a18.937,18.937,0,0,1,13.739,32.188,28.551,28.551,0,0,1-2.444,2.033v-.211a5.519,5.519,0,0,0-.533-2.055,17.325,17.325,0,0,0,1.455-1.255,16.808,16.808,0,1,0-24.035-23.5,17.074,17.074,0,0,0-2.988,4.176,8.558,8.558,0,0,0-2.621.644A18.944,18.944,0,0,1,335.987,86.64ZM336.1,105a2.29,2.29,0,0,1,.933.877h3.177a.856.856,0,0,1,1.311-1.011l1.888,1.466a.821.821,0,0,1,.333.666v.022a.821.821,0,0,1-.333.666l-1.888,1.466a.856.856,0,0,1-1.311-1.011h-3.177a2.252,2.252,0,1,1-3.2-3l.022-4.354a.863.863,0,0,1-1.133-.433.841.841,0,0,1,.122-.889l1.5-1.855a.839.839,0,0,1,.644-.311h.022a.884.884,0,0,1,.711.344l1.422,1.922a.865.865,0,0,1-.178,1.2.837.837,0,0,1-.822.1L336.1,105ZM327,94.893a.96.96,0,0,1,.355-1.3.951.951,0,0,1,1.3.355l.711,1.222a.947.947,0,0,1-1.622.977c-.011-.011-.011-.022-.022-.033Zm21.137,18.549a.951.951,0,0,1-.955,1.644h0l-1.222-.711a.951.951,0,1,1,.955-1.644h0Zm1.466-7.386a.945.945,0,1,1,.067,1.888h-1.488a.945.945,0,0,1-.067-1.888H349.6Zm-2.421-7.142a.951.951,0,0,1,.955,1.644l-1.233.711a.961.961,0,0,1-1.3-.355.945.945,0,0,1,.355-1.288l1.222-.711Zm-5.665-4.976a.951.951,0,1,1,1.644.955l-.711,1.233a.954.954,0,1,1-1.688-.889l.033-.067.722-1.233Zm-7.386-1.466a.945.945,0,0,1,1.888,0v1.422a.945.945,0,0,1-1.888,0Z" transform="translate(-61.772 671.361)" fill="#717171"/>
    <path id="Path_11903" data-name="Path 11903" d="M324.2,110.544a20.672,20.672,0,0,0,3.043,3.7A18.186,18.186,0,0,0,332.5,117.7a.494.494,0,0,0,.433,0,3.317,3.317,0,0,0,1.1-1.188c.755-1.111,1.688-2.5,3.143-1.91.033.011.056.033.089.044l4.887,2.466c.011.011.033.022.044.033a2.13,2.13,0,0,1,.989,1.788,5.078,5.078,0,0,1-.566,2.388c-1.511,3.032-6.253,3.676-9.252,2.921a25.854,25.854,0,0,1-6.82-3.254,27.558,27.558,0,0,1-7.742-7.886,13.4,13.4,0,0,1-2.344-8.408,6.127,6.127,0,0,1,1.855-3.987,5.534,5.534,0,0,1,4.065-1.322.579.579,0,0,1,.489.278l3.31,4.976a1.606,1.606,0,0,1,.355,1.7,3.352,3.352,0,0,1-1.089,1.366c-.522.5-1.822,1.277-1.688,2.066a3.541,3.541,0,0,0,.444.777Z" transform="translate(-62.007 672.77)" fill="#ec5958"/>
  </g>
</svg>
