<svg xmlns="http://www.w3.org/2000/svg" width="45.536" height="16.834" viewBox="0 0 45.536 16.834">
  <g id="Group_6176" data-name="Group 6176" transform="translate(-359.464 -799.116)">
    <g id="_95bab1f0cc573a146587d7043dc2dd87" data-name="95bab1f0cc573a146587d7043dc2dd87" transform="translate(395.464 799.116)">
      <path id="Path_11266" data-name="Path 11266" d="M231.608,17.594l-7.29-7.29a1.124,1.124,0,1,0-1.589,1.589l6.5,6.5-6.5,6.5a1.124,1.124,0,1,0,1.589,1.589l7.29-7.289a1.136,1.136,0,0,0,0-1.6Z" transform="translate(-222.4 -9.975)" fill="#aeafb4"/>
    </g>
    <g id="_95bab1f0cc573a146587d7043dc2dd87-2" data-name="95bab1f0cc573a146587d7043dc2dd87" transform="translate(383.464 799.116)" opacity="0.9">
      <path id="Path_11266-2" data-name="Path 11266" d="M231.608,17.594l-7.29-7.29a1.124,1.124,0,1,0-1.589,1.589l6.5,6.5-6.5,6.5a1.124,1.124,0,1,0,1.589,1.589l7.29-7.289a1.136,1.136,0,0,0,0-1.6Z" transform="translate(-222.4 -9.975)" fill="#6c6f79"/>
    </g>
    <g id="_95bab1f0cc573a146587d7043dc2dd87-3" data-name="95bab1f0cc573a146587d7043dc2dd87" transform="translate(371.464 799.116)" opacity="0.5">
      <path id="Path_11266-3" data-name="Path 11266" d="M231.608,17.594l-7.29-7.29a1.124,1.124,0,1,0-1.589,1.589l6.5,6.5-6.5,6.5a1.124,1.124,0,1,0,1.589,1.589l7.29-7.289a1.136,1.136,0,0,0,0-1.6Z" transform="translate(-222.4 -9.975)" fill="#6c6f79"/>
    </g>
    <g id="_95bab1f0cc573a146587d7043dc2dd87-4" data-name="95bab1f0cc573a146587d7043dc2dd87" transform="translate(359.464 799.116)" opacity="0.2">
      <path id="Path_11266-4" data-name="Path 11266" d="M231.608,17.594l-7.29-7.29a1.124,1.124,0,1,0-1.589,1.589l6.5,6.5-6.5,6.5a1.124,1.124,0,1,0,1.589,1.589l7.29-7.289a1.136,1.136,0,0,0,0-1.6Z" transform="translate(-222.4 -9.975)" fill="#6c6f79"/>
    </g>
  </g>
</svg>
