<svg xmlns="http://www.w3.org/2000/svg" width="15.047" height="15.492" viewBox="0 0 15.047 15.492">
  <g id="Group_6174" data-name="Group 6174" transform="translate(-307.064 -885.097)">
    <ellipse id="Ellipse_2244" data-name="Ellipse 2244" cx="7.524" cy="7.524" rx="7.524" ry="7.524" transform="translate(307.064 885.542)" fill="#ec5958" opacity="0.1"/>
    <g id="Iconly_Bold_Notification" data-name="Iconly/Bold/Notification" transform="translate(308.682 885.097)">
      <g id="Notification">
        <path id="Notification-2" data-name="Notification" d="M5.966,14.923a2.7,2.7,0,0,1-1.281-.548,1.159,1.159,0,0,1-.52-.876c0-.377.345-.549.665-.623a19.4,19.4,0,0,1,3.024,0c.32.074.665.246.665.623A1.161,1.161,0,0,1,8,14.376a2.717,2.717,0,0,1-1.28.547,2.986,2.986,0,0,1-.382.025A2.741,2.741,0,0,1,5.966,14.923ZM2.813,11.769A3.389,3.389,0,0,1,.646,10.713,2.7,2.7,0,0,1,0,8.935,2.517,2.517,0,0,1,.546,7.209a2.838,2.838,0,0,0,.794-2.13V4.761A4.2,4.2,0,0,1,2.3,1.877,5.286,5.286,0,0,1,6.32,0h.067a5.263,5.263,0,0,1,4.086,1.961,4.145,4.145,0,0,1,.893,2.8v.318a2.906,2.906,0,0,0,.794,2.13,2.514,2.514,0,0,1,.546,1.727,2.7,2.7,0,0,1-.645,1.778,3.392,3.392,0,0,1-2.167,1.056c-1.174.1-2.35.184-3.54.184A31.157,31.157,0,0,1,2.813,11.769Z" fill="#bdbdbd"/>
      </g>
    </g>
  </g>
</svg>
