<svg xmlns="http://www.w3.org/2000/svg" width="11.99" height="12" viewBox="0 0 11.99 12">
  <g id="Group_6118" data-name="Group 6118" transform="translate(-10791.483 -3240)">
    <path id="Path_12018" data-name="Path 12018" d="M104.063,40a6,6,0,0,0,2.823-.7.333.333,0,0,0,0-.588,5.333,5.333,0,0,1,0-9.413.333.333,0,0,0,0-.588A6,6,0,1,0,104.063,40Zm0-11.333a5.378,5.378,0,0,1,1.958.372,6,6,0,0,0,0,9.923,5.333,5.333,0,1,1-1.958-10.295Z" transform="translate(10693.418 3211.999)" fill="#717171"/>
    <path id="Path_12019" data-name="Path 12019" d="M497.356,99.686a.331.331,0,1,0,.445.49,6,6,0,0,0,0-8.823.333.333,0,0,0-.452.49,5.333,5.333,0,0,1,0,7.843Z" transform="translate(10303.738 3150.235)" fill="#717171"/>
  </g>
</svg>
