<svg xmlns="http://www.w3.org/2000/svg" width="195" height="177.041" viewBox="0 0 195 177.041">
  <g id="Group_6174" data-name="Group 6174" transform="translate(-305 -720.611)">
    <g id="Group_6173" data-name="Group 6173">
      <path id="Path_11264" data-name="Path 11264" d="M6546.359,2888s56.721-7.84,69.676-51.256,3.151,157.908,3.151,157.908h-3.151s-4.552-37.464-69.676-41.315S6546.359,2888,6546.359,2888Z" transform="translate(-6175 -2110)" fill="#1e202d"/>
      <path id="Path_11265" data-name="Path 11265" d="M6546.359,2937.263s56.721,7.84,69.676,51.256,3.151-157.908,3.151-157.908h-3.151s-4.552,37.464-69.676,41.315S6546.359,2937.263,6546.359,2937.263Z" transform="translate(-6167.415 -2097)" fill="#1e202d"/>
      <rect id="Rectangle_3707" data-name="Rectangle 3707" width="195" height="69" rx="34" transform="translate(305 775)" fill="#1e202d"/>
      <g id="_95bab1f0cc573a146587d7043dc2dd87" data-name="95bab1f0cc573a146587d7043dc2dd87" transform="translate(395.464 799.116)">
        <path id="Path_11266" data-name="Path 11266" d="M231.608,17.594l-7.29-7.29a1.124,1.124,0,1,0-1.589,1.589l6.5,6.5-6.5,6.5a1.124,1.124,0,1,0,1.589,1.589l7.29-7.289a1.136,1.136,0,0,0,0-1.6Z" transform="translate(-222.4 -9.975)" fill="#aeafb4"/>
      </g>
      <g id="_95bab1f0cc573a146587d7043dc2dd87-2" data-name="95bab1f0cc573a146587d7043dc2dd87" transform="translate(383.464 799.116)" opacity="0.9">
        <path id="Path_11266-2" data-name="Path 11266" d="M231.608,17.594l-7.29-7.29a1.124,1.124,0,1,0-1.589,1.589l6.5,6.5-6.5,6.5a1.124,1.124,0,1,0,1.589,1.589l7.29-7.289a1.136,1.136,0,0,0,0-1.6Z" transform="translate(-222.4 -9.975)" fill="#6c6f79"/>
      </g>
      <g id="_95bab1f0cc573a146587d7043dc2dd87-3" data-name="95bab1f0cc573a146587d7043dc2dd87" transform="translate(371.464 799.116)" opacity="0.5">
        <path id="Path_11266-3" data-name="Path 11266" d="M231.608,17.594l-7.29-7.29a1.124,1.124,0,1,0-1.589,1.589l6.5,6.5-6.5,6.5a1.124,1.124,0,1,0,1.589,1.589l7.29-7.289a1.136,1.136,0,0,0,0-1.6Z" transform="translate(-222.4 -9.975)" fill="#6c6f79"/>
      </g>
      <g id="_95bab1f0cc573a146587d7043dc2dd87-4" data-name="95bab1f0cc573a146587d7043dc2dd87" transform="translate(359.464 799.116)" opacity="0.2">
        <path id="Path_11266-4" data-name="Path 11266" d="M231.608,17.594l-7.29-7.29a1.124,1.124,0,1,0-1.589,1.589l6.5,6.5-6.5,6.5a1.124,1.124,0,1,0,1.589,1.589l7.29-7.289a1.136,1.136,0,0,0,0-1.6Z" transform="translate(-222.4 -9.975)" fill="#6c6f79"/>
      </g>
    </g>
  </g>
</svg>
