<svg xmlns="http://www.w3.org/2000/svg" width="214.001" height="151.584" viewBox="0 0 214.001 151.584">
  <path id="Path_12619" data-name="Path 12619" d="M189.042,180.292H166.75a4.459,4.459,0,0,0-4.458,4.458v13.375a4.458,4.458,0,0,0,4.458,4.458h22.292a4.458,4.458,0,0,0,4.458-4.458V184.75a4.458,4.458,0,0,0-4.458-4.458Zm0,0H166.75a4.459,4.459,0,0,0-4.458,4.458v13.375a4.458,4.458,0,0,0,4.458,4.458h22.292a4.458,4.458,0,0,0,4.458-4.458V184.75a4.458,4.458,0,0,0-4.458-4.458Zm0,0H166.75a4.459,4.459,0,0,0-4.458,4.458v13.375a4.458,4.458,0,0,0,4.458,4.458h22.292a4.458,4.458,0,0,0,4.458-4.458V184.75a4.458,4.458,0,0,0-4.458-4.458Zm0,0H166.75a4.459,4.459,0,0,0-4.458,4.458v13.375a4.458,4.458,0,0,0,4.458,4.458h22.292a4.458,4.458,0,0,0,4.458-4.458V184.75a4.458,4.458,0,0,0-4.458-4.458Zm0,0H166.75a4.459,4.459,0,0,0-4.458,4.458v13.375a4.458,4.458,0,0,0,4.458,4.458h22.292a4.458,4.458,0,0,0,4.458-4.458V184.75a4.458,4.458,0,0,0-4.458-4.458Zm0,0H166.75a4.459,4.459,0,0,0-4.458,4.458v13.375a4.458,4.458,0,0,0,4.458,4.458h22.292a4.458,4.458,0,0,0,4.458-4.458V184.75a4.458,4.458,0,0,0-4.458-4.458Zm0,0H166.75a4.459,4.459,0,0,0-4.458,4.458v13.375a4.458,4.458,0,0,0,4.458,4.458h22.292a4.458,4.458,0,0,0,4.458-4.458V184.75a4.458,4.458,0,0,0-4.458-4.458Zm0,0H166.75a4.459,4.459,0,0,0-4.458,4.458v13.375a4.458,4.458,0,0,0,4.458,4.458h22.292a4.458,4.458,0,0,0,4.458-4.458V184.75a4.458,4.458,0,0,0-4.458-4.458ZM340.627,131.25H153.375A13.373,13.373,0,0,0,140,144.625V269.459a13.373,13.373,0,0,0,13.375,13.375H340.627A13.374,13.374,0,0,0,354,269.459V144.625a13.373,13.373,0,0,0-13.375-13.375ZM157.834,149.083h62.417a4.458,4.458,0,0,1,0,8.917H157.834a4.458,4.458,0,0,1,0-8.917ZM193.5,260.543H157.834a4.458,4.458,0,1,1,0-8.917H193.5a4.458,4.458,0,1,1,0,8.917Zm0-26.75H157.834a4.458,4.458,0,0,1,0-8.917H193.5a4.458,4.458,0,0,1,0,8.917ZM189.042,211.5H166.75a13.373,13.373,0,0,1-13.375-13.375V184.751a13.373,13.373,0,0,1,13.375-13.375h22.292a13.373,13.373,0,0,1,13.375,13.375v13.375A13.373,13.373,0,0,1,189.042,211.5Zm49.042,49.042H206.876a4.458,4.458,0,0,1,0-8.917h31.209a4.458,4.458,0,1,1,0,8.917Zm0-26.75H206.876a4.458,4.458,0,0,1,0-8.917h31.209a4.458,4.458,0,0,1,0,8.917Zm17.833,0a4.458,4.458,0,0,1,0-8.917h31.209a4.458,4.458,0,1,1,0,8.917Zm66.875,43.2a17.44,17.44,0,0,1-7.535-1.7,17.2,17.2,0,0,1-7.49,1.7,17.833,17.833,0,0,1,0-35.667,17.171,17.171,0,0,1,7.49,1.694,17.439,17.439,0,0,1,7.535-1.694,17.833,17.833,0,1,1,0,35.667Zm13.375-43.2H304.96a4.458,4.458,0,0,1,0-8.917h31.209a4.458,4.458,0,0,1,0,8.917Zm-13.375,16.452a8.859,8.859,0,0,0-8.65,6.775,8.357,8.357,0,0,0-.267,2.142,8.917,8.917,0,1,0,8.917-8.916Zm-17.567,5.84a2.521,2.521,0,0,1,.312-1.471l.267-.8h0a11.025,11.025,0,0,1,.446-1.294,7.755,7.755,0,0,1,.4-.892l.535-1.115V250.2a8.917,8.917,0,1,0,0,17.833v-.267l-.535-1.2a4.917,4.917,0,0,1-.4-.848,4.657,4.657,0,0,0-.446-1.248l-.267-.848,0,0a8.6,8.6,0,0,1-.267-1.473v-.756a19.418,19.418,0,0,1,0-4.458ZM189.044,180.292H166.752a4.459,4.459,0,0,0-4.458,4.458v13.375a4.458,4.458,0,0,0,4.458,4.458h22.292a4.458,4.458,0,0,0,4.458-4.458V184.75a4.458,4.458,0,0,0-4.458-4.458Zm0,0H166.752a4.459,4.459,0,0,0-4.458,4.458v13.375a4.458,4.458,0,0,0,4.458,4.458h22.292a4.458,4.458,0,0,0,4.458-4.458V184.75a4.458,4.458,0,0,0-4.458-4.458Zm0,0H166.752a4.459,4.459,0,0,0-4.458,4.458v13.375a4.458,4.458,0,0,0,4.458,4.458h22.292a4.458,4.458,0,0,0,4.458-4.458V184.75a4.458,4.458,0,0,0-4.458-4.458Zm0,0H166.752a4.459,4.459,0,0,0-4.458,4.458v13.375a4.458,4.458,0,0,0,4.458,4.458h22.292a4.458,4.458,0,0,0,4.458-4.458V184.75a4.458,4.458,0,0,0-4.458-4.458Zm0,0H166.752a4.459,4.459,0,0,0-4.458,4.458v13.375a4.458,4.458,0,0,0,4.458,4.458h22.292a4.458,4.458,0,0,0,4.458-4.458V184.75a4.458,4.458,0,0,0-4.458-4.458Zm0,0H166.752a4.459,4.459,0,0,0-4.458,4.458v13.375a4.458,4.458,0,0,0,4.458,4.458h22.292a4.458,4.458,0,0,0,4.458-4.458V184.75a4.458,4.458,0,0,0-4.458-4.458Zm0,0H166.752a4.459,4.459,0,0,0-4.458,4.458v13.375a4.458,4.458,0,0,0,4.458,4.458h22.292a4.458,4.458,0,0,0,4.458-4.458V184.75a4.458,4.458,0,0,0-4.458-4.458Z" transform="translate(-140.001 -131.25)"/>
</svg>
