<svg xmlns="http://www.w3.org/2000/svg" width="17.023" height="15.533" viewBox="0 0 17.023 15.533">
  <g id="Group_6175" data-name="Group 6175" transform="translate(-373.946 -885.467)">
    <ellipse id="Ellipse_2246" data-name="Ellipse 2246" cx="7.524" cy="7.524" rx="7.524" ry="7.524" transform="translate(374.934 885.467)" fill="#ec5958" opacity="0.1"/>
    <path id="comments-icon" d="M7.246,13.088a6.074,6.074,0,0,0,6.7,1.054l2.111.83-.33-1.986c1.964-1.717,1.508-4.1-.06-5.783A6.192,6.192,0,0,1,15,9.041a7.186,7.186,0,0,1-1.972,2.245,8.74,8.74,0,0,1-2.753,1.392,9.854,9.854,0,0,1-3.029.41ZM4.391,7.528a.464.464,0,1,1,0-.928H8.517a.464.464,0,0,1,0,.928Zm0-2.374a.464.464,0,1,1,0-.928h5.9a.464.464,0,0,1,0,.928ZM7.519.006h.007a8.216,8.216,0,0,1,5.093,1.878,5.508,5.508,0,0,1,2.055,4.339v.008a5.519,5.519,0,0,1-2.315,4.213,8.228,8.228,0,0,1-5.2,1.576,9.278,9.278,0,0,1-1.489-.16,7.506,7.506,0,0,1-1.2-.334L.937,12.6,2,10.086A6.122,6.122,0,0,1,.559,8.257,5.09,5.09,0,0,1,0,5.8,5.518,5.518,0,0,1,2.318,1.581,8.23,8.23,0,0,1,7.519.006ZM7.5.927H7.494a7.308,7.308,0,0,0-4.62,1.388A4.612,4.612,0,0,0,.924,5.823a4.178,4.178,0,0,0,.458,2.019A5.305,5.305,0,0,0,2.838,9.59l.275.217L2.548,11.15l1.966-.6.15.06a6.458,6.458,0,0,0,1.18.343,8.3,8.3,0,0,0,1.341.146A7.308,7.308,0,0,0,11.8,9.711,4.612,4.612,0,0,0,13.754,6.2V6.195a4.6,4.6,0,0,0-1.734-3.61A7.29,7.29,0,0,0,7.5.927Z" transform="translate(373.945 886.028)" fill="#acacac" fill-rule="evenodd"/>
  </g>
</svg>
