<svg xmlns="http://www.w3.org/2000/svg" width="8.8" height="11.105" viewBox="0 0 8.8 11.105">
  <g id="Group_6119" data-name="Group 6119" transform="translate(-10914.057 -3526)">
    <path id="Path_12020" data-name="Path 12020" d="M146.8,29.4a.176.176,0,0,0,.179-.179l-.131-6.293a.179.179,0,0,0-.358,0l.131,6.293A.183.183,0,0,0,146.8,29.4Zm1.934,0a.184.184,0,0,0,.179-.179l.131-6.293a.179.179,0,1,0-.358,0l-.131,6.293A.176.176,0,0,0,148.736,29.4Zm2.579-6.651a.185.185,0,0,0-.191.167l-.263,7.4a.558.558,0,0,1-.549.561h-5.087a.568.568,0,0,1-.561-.561L144.4,22.93a.18.18,0,1,0-.358.024l.263,7.391a.917.917,0,0,0,.907.919H150.3a.907.907,0,0,0,.907-.907l.263-7.4a.156.156,0,0,0-.155-.2Zm.669-1.313h-2.161v-1.1a.184.184,0,0,0-.179-.179h-3.761a.184.184,0,0,0-.179.179v1.1h-2.161a.179.179,0,1,0,0,.358h8.442a.184.184,0,0,0,.179-.179.176.176,0,0,0-.179-.179Zm-2.507,0h-3.4v-.919h3.4Z" transform="translate(10770.694 3505.84)" fill="#717171"/>
  </g>
</svg>
