<svg xmlns="http://www.w3.org/2000/svg" width="12.126" height="12.126" viewBox="0 0 12.126 12.126">
  <g id="Group_6117" data-name="Group 6117" transform="translate(-10885.755 -3258.75)">
    <path id="Path_12008" data-name="Path 12008" d="M0,5.813a5.813,5.813,0,1,1,5.813,5.813A5.813,5.813,0,0,1,0,5.813Zm5.49-3.278L2.3,7.948c-.219.371-.046.673.386.673H9.1c.433,0,.606-.3.386-.673l-3.2-5.413a.423.423,0,0,0-.795,0Z" transform="translate(10886.003 3259)" fill="none" stroke="#717171" stroke-width="0.5"/>
    <path id="Path_12009" data-name="Path 12009" d="M249.524,175.41c-.027.207-.07.208-.1,0L249.1,172.9a.323.323,0,0,1,.329-.374h.089a.322.322,0,0,1,.329.374Z" transform="translate(10642.343 3090.243)" fill="#acacac" stroke="#717171" stroke-width="0.5" fill-rule="evenodd"/>
    <path id="Path_12010" data-name="Path 12010" d="M335.63,346.2a.328.328,0,1,1-.328-.328.328.328,0,0,1,.328.328" transform="translate(10556.517 2920.374)" fill="#acacac" fill-rule="evenodd"/>
  </g>
</svg>
