<svg xmlns="http://www.w3.org/2000/svg" width="54.279" height="48.406" viewBox="0 0 54.279 48.406">
  <g id="Group_6105" data-name="Group 6105" transform="translate(-9796.919 -3410.497)">
    <path id="Path_12000" data-name="Path 12000" d="M131.837,198.637a6.56,6.56,0,1,1-6.56-6.56,6.56,6.56,0,0,1,6.56,6.56" transform="translate(9682.186 3233.864)" fill="none" stroke="#ec5958" stroke-width="1"/>
    <path id="Path_12001" data-name="Path 12001" d="M101.282,342.5A7.009,7.009,0,0,0,96.4,340.48H91.527a6.923,6.923,0,0,0-6.9,6.167l-.673,5.663a1.467,1.467,0,0,0,1.121,1.57,41.8,41.8,0,0,0,8.914.9,24.356,24.356,0,0,0,2.859-.112l.617-5.214a11.06,11.06,0,0,1,3.813-6.952Z" transform="translate(9713.469 3100.319)" fill="none" stroke="#ec5958" stroke-width="1"/>
    <path id="Path_12002" data-name="Path 12002" d="M463.357,198.637a6.56,6.56,0,1,1-6.56-6.56,6.56,6.56,0,0,1,6.56,6.56" transform="translate(9383.856 3233.864)" fill="none" stroke="#ec5958" stroke-width="1"/>
    <path id="Path_12003" data-name="Path 12003" d="M459.614,346.645a6.964,6.964,0,0,0-6.9-6.167h-4.878a6.775,6.775,0,0,0-4.878,2.018,10.543,10.543,0,0,1,3.812,7.008l.617,5.214c.9.056,1.906.112,2.859.112a41.8,41.8,0,0,0,8.914-.9,1.466,1.466,0,0,0,1.121-1.57Z" transform="translate(9390.402 3100.321)" fill="none" stroke="#ec5958" stroke-width="1"/>
    <path id="Path_12004" data-name="Path 12004" d="M262.069,374.08h-4.878a6.92,6.92,0,0,0-6.9,6.111l-.673,5.663a1.385,1.385,0,0,0,1.121,1.57,41.8,41.8,0,0,0,8.914.9,45.308,45.308,0,0,0,8.914-.9,1.466,1.466,0,0,0,1.121-1.57l-.673-5.663a7.018,7.018,0,0,0-6.952-6.111Z" transform="translate(9564.399 3070.083)" fill="none" stroke="#ec5958" stroke-width="1"/>
    <path id="Path_12005" data-name="Path 12005" d="M297.6,231.68a6.56,6.56,0,1,1-6.56-6.56,6.56,6.56,0,0,1,6.56,6.56" transform="translate(9533.019 3204.129)" fill="none" stroke="#ec5958" stroke-width="1"/>
    <path id="Path_12006" data-name="Path 12006" d="M283.322,131.885v-4.2l-6.279,1.85a7.276,7.276,0,0,1-4.373,0l-6.111-1.738v4.149a1.682,1.682,0,0,0,1.233,1.626l2.691.785a16.266,16.266,0,0,0,8.971,0l2.635-.785a1.75,1.75,0,0,0,1.233-1.682Z" transform="translate(9549.146 3291.814)" fill="none" stroke="#ec5958" stroke-width="1"/>
    <path id="Path_12007" data-name="Path 12007" d="M221.268,47.746l10.709,3.2a5.547,5.547,0,0,0,3.308,0l9.195-2.747v2.411a.645.645,0,0,0-.336.5v.673a.744.744,0,0,0,.336.561l-.561,1.346c-.056.168.056.393.224.393l.561.056h.336l.561-.056c.168,0,.28-.224.224-.393l-.561-1.346a.563.563,0,0,0,.336-.561V51.11a.539.539,0,0,0-.336-.5V47.915l.617-.168a.8.8,0,0,0,0-1.514l-10.651-3.14a5.547,5.547,0,0,0-3.308,0l-10.708,3.2a.769.769,0,0,0,.056,1.458Z" transform="translate(9590.399 3368.159)" fill="none" stroke="#ec5958" stroke-width="1"/>
  </g>
</svg>
