<svg xmlns="http://www.w3.org/2000/svg" width="12.63" height="11.287" viewBox="0 0 12.63 11.287">
  <g id="Group_6121" data-name="Group 6121" transform="translate(-10876.938 -3222)">
    <path id="Path_12033" data-name="Path 12033" d="M91.2,44.789a.268.268,0,0,0-.113.042l-4.165,2.687a.269.269,0,0,0-.122.227v5.375a.269.269,0,0,0,.269.269h6.206a3.092,3.092,0,0,0,4.879,2.1.269.269,0,1,0-.315-.437A2.553,2.553,0,1,1,98.9,52.985a.8.8,0,0,1-.176.542.579.579,0,0,1-.466.189.708.708,0,0,1-.7-.642V51.91a.269.269,0,0,0-.538-.025,1.092,1.092,0,0,0-.684-.244,1.353,1.353,0,0,0,0,2.687,1.146,1.146,0,0,0,.949-.533,1.274,1.274,0,0,0,.974.458,1.15,1.15,0,0,0,.869-.369,1.333,1.333,0,0,0,.311-.9,3.084,3.084,0,0,0-3.762-3.015V47.745a.269.269,0,0,0-.122-.227l-4.165-2.687a.269.269,0,0,0-.155-.042H91.2Zm.034.592,3.7,2.389-3.7,2.343-3.7-2.343Zm-3.9,2.9,3.754,2.377a.269.269,0,0,0,.286,0l3.754-2.377v1.86a3.1,3.1,0,0,0-1.877,2.708H87.34Zm8.99,3.9a.823.823,0,1,1-.659.806A.743.743,0,0,1,96.33,52.179Z" transform="translate(10790.135 3177.211)" fill="#717171"/>
  </g>
</svg>
