<svg xmlns="http://www.w3.org/2000/svg" width="14" height="17.197" viewBox="0 0 14 17.197">
  <g id="Group_6173" data-name="Group 6173" transform="translate(-240.375 -883.392)">
    <ellipse id="Ellipse_2291" data-name="Ellipse 2291" cx="7" cy="6.5" rx="7" ry="6.5" transform="translate(240.375 886)" fill="#ec5958" opacity="0.1"/>
    <path id="XMLID_2252_" d="M355.734,188.69c.071,3.777-4.344,3.264-8.145,4.979-2.832,1.278-1.853,4.593-1.853,4.593.015-3.755,3.515-1.8,8.059-3.482S355.734,188.69,355.734,188.69Z" transform="translate(-103.061 694.702)" fill="#acacac"/>
    <path id="XMLID_2251_" d="M371.127,398.73c-2.082-.024-4.353-.257-4.579,1.95-.337,3.292,2.963,6.944,2.963,6.944s-3.066-5.631-1.284-7.065c.693-.558,3.057.064,4.242.032,2.546-.068,2.546-3.021,2.546-3.021S374.26,398.766,371.127,398.73Z" transform="translate(-123.295 492.965)" fill="#acacac"/>
  </g>
</svg>
