<svg xmlns="http://www.w3.org/2000/svg" width="32.003" height="34.218" viewBox="0 0 32.003 34.218">
  <g id="Group_6171" data-name="Group 6171" transform="translate(-292 -378.602)">
    <path id="Untitled-1" d="M678.81,396.262v2.129h-11a1.04,1.04,0,0,1-1-1.07c0-8.022,3.2-11.563,5.18-13a10.021,10.021,0,0,1-2.18-6.257c0-5.305,4.04-9.627,9-9.627s9,4.321,9,9.627a10.247,10.247,0,0,1-.23,2.15c-.74.021-.77-.011-1.77-.011v-2.139a7.016,7.016,0,1,0-14,0,7.775,7.775,0,0,0,2.13,5.37,1.011,1.011,0,0,1,.82.717,1.105,1.105,0,0,1-.63,1.358c-.2.075-4.94,1.957-5.61,10.761h10.29Zm5-4.289Zm14.71,8.867a1.118,1.118,0,0,1,0,1.508.95.95,0,0,1-.71.31.991.991,0,0,1-.71-.31l-4.4-4.706a7.661,7.661,0,0,1-4.9,1.808,8.577,8.577,0,1,1,8-8.557,8.857,8.857,0,0,1-1.69,5.241Zm-4.71-9.937a6.014,6.014,0,1,0-6,6.418A6.224,6.224,0,0,0,693.81,390.9Zm-16-18.184Z" transform="translate(-374.81 10.162)" fill="#717171"/>
    <path id="Path_11889" data-name="Path 11889" d="M8496.822,3516.991s-.364-5.346,5.207-5.4" transform="translate(-8188 -3115)" fill="none" stroke="#ec5958" stroke-linecap="round" stroke-width="1.5"/>
    <path id="Path_11890" data-name="Path 11890" d="M8490.983,3497.851s6.9-.58,5.976,6.382" transform="translate(-8188 -3115)" fill="none" stroke="#ec5958" stroke-linecap="round" stroke-width="1.5"/>
    <path id="Path_11891" data-name="Path 11891" d="M8488.269,3512.072s-4.919,1.455-3.938,8.318" transform="translate(-8188 -3115)" fill="none" stroke="#ec5958" stroke-linecap="round" stroke-width="1.5"/>
  </g>
</svg>
