<svg xmlns="http://www.w3.org/2000/svg" width="32.294" height="44.825" viewBox="0 0 32.294 44.825">
  <g id="Group_6171" data-name="Group 6171" transform="translate(-2959.21 -1157.256)">
    <path id="Path_11887" data-name="Path 11887" d="M3199.852,1721.171l5.254-5.254a14.573,14.573,0,0,0-6.387-2.836l-2.172,2.412-2.265-2.414a14.643,14.643,0,0,0-6.272,2.837l5.333,5.254S3197.106,1719.289,3199.852,1721.171Z" transform="translate(-223.692 -543.415)" fill="#ec5958"/>
    <path id="Path_11888" data-name="Path 11888" d="M2990.376,1936.486l-6.382-5.413a13.633,13.633,0,0,0-.892-16.883l-2,1.761a10.979,10.979,0,1,1-16.49,0l-2-1.761a13.642,13.642,0,0,0,17.8,20.368l5.465,6.432a3.194,3.194,0,1,0,4.5-4.5Z" transform="translate(0 -740.035)" fill="#717171"/>
    <circle id="Ellipse_2270" data-name="Ellipse 2270" cx="4.515" cy="4.515" r="4.515" transform="translate(2966.47 1163.641) rotate(-45)" fill="#ec5958"/>
  </g>
</svg>
