 <svg xmlns="http://www.w3.org/2000/svg" width="153.393" height="181.768" viewBox="0 0 153.393 181.768">
  <g id="Group_5936" data-name="Group 5936" transform="translate(-137.304 -361.531)">
    <g id="Group_5935" data-name="Group 5935" transform="translate(-132.46 192)">
      <g id="Group_5932" data-name="Group 5932" transform="translate(269.764 169.531)">
        <path id="Path_11845" data-name="Path 11845" d="M881.75,728.92a.121.121,0,0,0-.05.09c.02.029.03.06.05.09.03.06.051.09.071.09v-.01c.07.02.08-.03.08-.08-.03-.07-.07-.131-.1-.2C881.771,728.91,881.76,728.91,881.75,728.92Z" transform="translate(-823.372 -675.997)" fill="#fff"/>
        <path id="Path_11847" data-name="Path 11847" d="M451.854,600.655a.671.671,0,0,1,.04.1c-.121-.281-.231-.562-.361-.842-.07-.161-.141-.322-.211-.472-.13-.291-.281-.582-.421-.862-.311-.582-.652-1.154-1.013-1.706a25.435,25.435,0,0,0-2.91-3.642,29.069,29.069,0,0,0-6.9-5.247,34.692,34.692,0,0,0-15.411-4.3c.01.06-.06.13-.06.21-.12-.05-.05-.13-.02-.21-.4-.011-.8-.02-1.214-.02a.107.107,0,0,1-.07.03.062.062,0,0,1-.04-.01c-.01,0-.02-.011-.03-.02h-.06c-.04-.231-.08-.472-.13-.7a27.758,27.758,0,0,0-2.88-8,23.981,23.981,0,0,0-10.826-10.174,28.534,28.534,0,0,0-5.147-1.816v.02h-.161v-.06c-.251-.06-.5-.11-.763-.161.05.1,0,.361-.13.04a.357.357,0,0,1,.05-.06c-.3-.06-.612-.11-.913-.16a29.92,29.92,0,0,0-7.575-.291,33.252,33.252,0,0,0-7.585,1.585,32.731,32.731,0,0,0-7.094,3.4,31.193,31.193,0,0,0-6.161,5.147c-.321.351-.642.712-.953,1.083a.105.105,0,0,1,.04.081.068.068,0,0,1-.07.07h-.01a.233.233,0,0,1-.08-.02,31.967,31.967,0,0,0-2.258,3.06c.061-.01.12-.03.181-.041l.07-.02a.117.117,0,0,1,.12.081.109.109,0,0,1-.07.13l-.06.02a1.587,1.587,0,0,1-.371.06c-.462.732-.9,1.485-1.294,2.258-.512.994-.994,2-1.555,2.97a20.6,20.6,0,0,1-1.214,1.876.01.01,0,0,1-.01.01.428.428,0,0,0,.06-.07c-.11.12-.211.261-.311.382a10.191,10.191,0,0,1-.773.832c-.11.11-.231.221-.351.321-.02.02-.07.06-.121.1s-.1.071-.13.091c-.161.1-.321.19-.492.291a2.155,2.155,0,0,1-.241.081.358.358,0,0,1-.06.01c-.05,0-.09.01-.141.01l-.1-.05a4.871,4.871,0,0,1-.542-.321.345.345,0,0,1-.08-.06,2.3,2.3,0,0,1-.191-.16,8.667,8.667,0,0,1-.783-.813l-.12-.15a.772.772,0,0,1-.08-.111c-.231-.321-.451-.662-.652-1-.07-.11-.13-.221-.19-.331,0,.01,0,.01-.01.02a.04.04,0,0,1-.04.02.037.037,0,0,1-.03-.01,1.074,1.074,0,0,0-.19-.131.063.063,0,0,1-.03-.08.046.046,0,0,1,.07-.03.943.943,0,0,1,.17.11c-.321-.542-.612-1.1-.9-1.665s-.582-1.134-.873-1.7a1.257,1.257,0,0,1-.2.081c.1-.3-.261-.071-.161-.372v-.01c-.1-.01-.161-.11-.19-.181a.583.583,0,0,0-.05-.08l-.02-.02v-.031a.315.315,0,0,1,.12-.271c.01-.01.03-.01.04-.02-.151-.291-.311-.572-.472-.853-.02.09-.08.04-.08-.01-.08,0-.06.11-.08.181-.11-.031-.06-.231-.08-.371.1.031.13.151.231.181-.16-.281-.321-.552-.482-.823a29.015,29.015,0,0,0-9.522-9.17c-.04.009-.07.019-.11.03-.02.03-.03.08.02.16a.078.078,0,0,1-.03.1.037.037,0,0,1-.03.01.072.072,0,0,1-.06-.04.3.3,0,0,1,.01-.341l.01-.021h.01a33.873,33.873,0,0,0-14.107-4.2c.06.07.08.191.221.16a1.11,1.11,0,0,0-.241.733h-.391a.429.429,0,0,1-.231.1.092.092,0,0,1-.05-.01.1.1,0,0,1-.06-.11.083.083,0,0,1,.1-.07c.04.01.1-.02.171-.081l-.03-.009c-.1-.02-.07-.171-.08-.281.211.03.211-.191.251-.372.12-.009.291.04.321-.07-.321-.02-.652-.05-.973-.06a29.635,29.635,0,0,0-8.96.923,24.331,24.331,0,0,0-4.385,1.666.49.49,0,0,0,.01.12c-.05-.009-.07-.05-.1-.07-.582.291-1.164.592-1.726.913.05-.01.371-.11.04-.01a.076.076,0,0,1-.04.01c-.492.281-.983.572-1.465.873,0,.01,0,.01.01.02a.093.093,0,0,1-.07.11c-.03.01-.06.01-.08.02a.554.554,0,0,0,.04.12.7.7,0,0,0,.06.191l.02-.061c.05-.221.2.191.161.371h.16l.03.04a.615.615,0,0,1,.211-.16h.01c-.01-.121.08-.141.08-.251.181-.02.261.081.241.281.05-.03.311-.231.321,0,.291-.2.3-.552.08-.923.442-.16.592.492.893.181.151.211-.09.743-.4.732.331.422-.03,1.094-.311,1.014a2.213,2.213,0,0,0-.662.672c-.04.251.141.251.09.522-.391.24-.341-.031-.732-.181-.01-.141.04-.351-.081-.371.06-.331.261.01.562-.09l.01.02a2.513,2.513,0,0,1,.743-.752l-.01-.01c.271-.752-.06-.1-.572-.181l.01-.04h-.04a.524.524,0,0,1-.341-.12.254.254,0,0,0-.11.25c-.11-.09-.16-.25-.331-.271l-.04.04c-.09.09-.15.161-.15.251l.04-.01c.07.11.08.3.141.421a.221.221,0,0,0,.08.01l.02-.04a.045.045,0,0,1,.06-.03.055.055,0,0,1,.03.07l-.04.091-.02.01a.162.162,0,0,1-.07.011.38.38,0,0,1-.12-.02v.03c-.141.171-.241-.04-.4-.09l-.01-.01v.01c0,.07-.01.141-.01.191V570l-.02.02a.236.236,0,0,1-.07.07c-.03.03-.06.05-.07.08l-.02.03-.03.01a.716.716,0,0,1-.16.02c-.07,0-.151-.01-.191-.01h-.03l-.02-.03a.723.723,0,0,0-.18-.171.628.628,0,0,1-.261-.311.385.385,0,0,0-.151,0,.373.373,0,0,1-.11.01c-.04.01-.07-.03-.081-.08a.088.088,0,0,1,.07-.09c.04,0,.07-.01.1-.01a.418.418,0,0,1,.221.01.571.571,0,0,1,.2-.03h.04l.02.04a.2.2,0,0,0,.09.09.1.1,0,0,1,.04.11.076.076,0,0,1-.07.051.036.036,0,0,1-.03-.01.415.415,0,0,1-.141-.12h-.05a.518.518,0,0,0,.18.18.655.655,0,0,1,.19.181.936.936,0,0,0,.241,0,.437.437,0,0,1,.09-.1c.01-.01.03-.02.04-.04,0-.04.01-.1.01-.151h0l-.01.01c-.04-.291-.381-.241-.4-.552.18-.12.291.1.241-.371.231.01.141.391.4.371a.666.666,0,0,1,.221-.331l.03-.03h0c.01-.351-.07-.03-.251-.09a.643.643,0,0,0,.08-.462c.06.02.08.09.161.09l.03.01a.77.77,0,0,1-.06-.2l-.03-.121a.037.037,0,0,1-.03-.01c-.02.02-.05.03-.07.05-1,.642-1.987,1.324-2.94,2.057a.548.548,0,0,1,.231.11l.02-.06c.09.021.07.171.081.281a2.106,2.106,0,0,1,1.144,0,.567.567,0,0,0-.08.371c-.321-.271-.321.451-.733.371a.643.643,0,0,1,.08.462c-.13.02-.432.3-.241.371-.12.211-.321-.241-.321-.462-.221.642-.19-.632-.572-.642-.03-.4.261-.442.492-.552v-.041a.657.657,0,0,0-.241-.06h-.02c-.723.562-1.425,1.143-2.107,1.756a1.951,1.951,0,0,0,.241,0l-.01.03a.406.406,0,0,0,.341.02.143.143,0,0,0,.06-.1.064.064,0,0,1,.08-.06.087.087,0,0,1,.06.08.259.259,0,0,1-.13.2.3.3,0,0,1-.191.051.585.585,0,0,1-.191-.03c.02.15-.08.16-.08.271a1.894,1.894,0,0,1-.422-.221,31.344,31.344,0,0,0-6.251,7.806,32.152,32.152,0,0,0-3.9,14.85,42.127,42.127,0,0,0,.612,8.087c.02.01.03.03.04.04a.1.1,0,0,1-.01.11,55.354,55.354,0,0,0,1.826,7.374,77.841,77.841,0,0,0,4.736,11.439.474.474,0,0,1,.371-.061c-.01.11.02.161.08.181-.01.17-.181.2-.321.14q1.1,2.152,2.3,4.244c.411.722.843,1.445,1.274,2.157a1.674,1.674,0,0,1,1.3-.462c.07.231.221.362.241.642a3.66,3.66,0,0,1-1.023.662q.692,1.114,1.415,2.228c.181-.03.371-.04.421-.221.472.2.622.772.572,1.565a.275.275,0,0,0-.09.01c2,2.96,4.124,5.83,6.351,8.629q2.107,2.649,4.335,5.177c.1-.09.281-.12.231.181a.326.326,0,0,0-.141-.081c2.358,2.669,4.816,5.258,7.375,7.736,1.706,1.656,3.451,3.281,5.258,4.856a.367.367,0,0,1,.532-.18l.01.02c.01-.02.01-.031.02-.051l.01-.02.02-.01a.331.331,0,0,1,.291-.08l-.01-.04c.03-.2.4-.04.572-.09-.02.07-.08.09-.08.18l-.051.04.04.03a.371.371,0,0,1,.161.341.636.636,0,0,1-.271.432.22.22,0,0,1-.09.191v-.01a.717.717,0,0,1-.1.14c2.057,1.746,4.174,3.411,6.371,4.947a22.726,22.726,0,0,0,10.916,4.184,16.728,16.728,0,0,0,9.612-2.278,23.672,23.672,0,0,0,4.254-3.15.545.545,0,0,1-.03-.271h.241a.225.225,0,0,1-.01.08c.351-.322.682-.652,1.013-.994a.324.324,0,0,0-.221.04l-.02.04a.081.081,0,0,1-.11.051.1.1,0,0,1-.04-.12l.03-.09.02-.01a.519.519,0,0,1,.492-.061c.723-.752,1.4-1.535,2.057-2.338a71.552,71.552,0,0,0,6.813-10.284c.813-1.454,1.585-2.93,2.338-4.415v-.11h.06c1.224-2.418,2.388-4.866,3.532-7.314,1.966-4.234,3.853-8.509,5.789-12.753,1.906-4.184,3.843-8.348,5.96-12.432a94.623,94.623,0,0,1,6.442-10.866c.281-.4.572-.8.863-1.194.141-.191.281-.371.421-.562l.02-.02c.562-.713,1.144-1.415,1.746-2.087a31.956,31.956,0,0,1,3.753-3.612c.01-.01.03-.02.04-.03.12-.09.231-.18.351-.261.331-.23.662-.461,1-.682.4-.251.773-.521,1.154-.793-.14.111.361-.241.552-.361.241-.16.492-.321.742-.472a16.779,16.779,0,0,1,1.525-.792c.01,0,.02-.01.03-.01a.365.365,0,0,0,.09-.04c.281-.11.572-.21.863-.311.03-.01.07-.02.1-.03-.01.6-.04,1.214-.08,1.816-.06.854-.141,1.7-.251,2.549q-.045.3-.09.6c-.07.462-.151.924-.231,1.385-.351,1.946-.813,3.883-1.354,5.789-.6,2.128-1.3,4.215-2.087,6.281-.211.562-.432,1.113-.652,1.666-.04.1-.08.2-.12.311a.412.412,0,0,0,.17.07.306.306,0,0,1,.05-.07.093.093,0,0,1,.121-.031.1.1,0,0,1,.02.131.5.5,0,0,1-.09.13l-.02.03h-.04a.486.486,0,0,1-.271-.09c-.05.11-.09.221-.131.331s-.09.221-.14.331c-.482,1.114-.973,2.228-1.485,3.331a139.143,139.143,0,0,1-8.338,15.11q-2.664,4.244-5.559,8.327c-1.043,1.485-2.1,2.95-3.18,4.405-.562.752-1.124,1.5-1.686,2.247-.261.341-.512.672-.773,1.014-.151.2-.3.391-.451.592,0,.01-.01.01-.02.02a1.033,1.033,0,0,1-.07.09q-4.515,5.809-9.311,11.388a.75.75,0,0,1,.06.622.231.231,0,0,0,.05.04.478.478,0,0,1,.311-.081c.131-.09.091-.391.161-.552.742-.12.793.562,1.3.461.04.361-.211.381-.241.642-.4.03-.793-.23-1.144-.181-.081.01-.462.461-.492,0l.02-.02a.793.793,0,0,1-.1-.08v.01a.637.637,0,0,1-.652-.03c-.271.311-.542.632-.813.943v.1a.314.314,0,0,1-.09.01q-2.363,2.725-4.786,5.388a3.451,3.451,0,0,0-.6,3.793.666.666,0,0,1,.361-.08,1.523,1.523,0,0,0-.16.411c.05.07.1.141.16.211.01-.1.07-.151.09-.251.11-.02.14.311.03.382l.131.13a3.3,3.3,0,0,0,4.6,0q2.3-2.544,4.555-5.127a.544.544,0,0,0-.12.011c0-.141.12-.181.231-.141q4.666-5.357,9.09-10.917a.4.4,0,0,0-.13-.16.077.077,0,0,1-.02-.09.055.055,0,0,1,.08-.02.552.552,0,0,1,.141.171q1.4-1.761,2.789-3.552c3.652-4.736,7.154-9.6,10.415-14.619a.384.384,0,0,1-.321-.341c-.03-.01-.05-.02-.08-.03a.409.409,0,0,0,.11.371.14.14,0,0,1,.03.191.11.11,0,0,1-.1.06.089.089,0,0,1-.07-.03.716.716,0,0,1-.171-.782l.02-.06.051-.02a.489.489,0,0,1,.321.04l.04.02h0c.211.02.18.09.4,0,.01.05.02.09.03.141.462-.723.923-1.446,1.375-2.168a138.757,138.757,0,0,0,7.244-12.963.279.279,0,0,1-.04-.291.178.178,0,0,1,.18.01c.3-.623.6-1.255.893-1.887a93.573,93.573,0,0,0,5.217-13.746,58.2,58.2,0,0,0,2.107-11.88c.06-.923.09-1.846.09-2.759.642,0,1.284.03,1.926.08.321.02.632.05.953.09.131.01.261.03.391.04a34.655,34.655,0,0,1,3.9.833c.662.181,1.314.392,1.956.612.311.11.622.221.933.341.141.051.281.11.421.171.02.01.03.01.05.02a30.7,30.7,0,0,1,3.522,1.817c.562.341,1.1.692,1.645,1.073.221.15.431.311.642.471l.01.01c.141.11.271.221.4.332a23.575,23.575,0,0,1,2.839,2.819c.091.11.181.211.271.322-.06-.07-.1-.131-.08-.121a4.092,4.092,0,0,1,.6.833c.371.552.722,1.114,1.043,1.7.15.281.3.562.441.853.06.13.13.271.191.4.03.061.05.121.08.181s.05.12.07.181c.06.151.11.3.171.442.13.351.241.692.351,1.053a18.1,18.1,0,0,1,.511,2.057c.061.3.111.6.161.893.02.161.03.321.05.472a22.513,22.513,0,0,1-.01,4.194c-.01.15-.03.311-.05.461v.02c-.05.291-.09.592-.151.883-.13.692-.291,1.375-.471,2.047s-.4,1.344-.642,2.007c-.1.281-.211.562-.321.843-.06.13-.121.271-.181.4a26.952,26.952,0,0,1-2.057,3.682c-.191.281-.381.562-.582.833-.08.11-.171.231-.251.341-.431.542-.893,1.074-1.375,1.585s-.973.994-1.495,1.465c-.251.221-.5.441-.762.652-.1.091-.211.171-.311.251a22.7,22.7,0,0,1-3.331,2.057c-.291.151-.592.281-.893.422l-.3.12c-.622.241-1.254.441-1.906.622a19.222,19.222,0,0,1-1.967.431.3.3,0,0,0-.09.02c-.04.01-.09.01-.13.02q-.512.06-1.023.09a20.562,20.562,0,0,1-2.087.01c-.351-.02-.712-.04-1.063-.08-.04,0-.141-.02-.241-.03s-.181-.03-.221-.03a3.54,3.54,0,0,0-2.5.331,3.323,3.323,0,0,0-1.495,1.936c-.351,1.566.471,3.7,2.267,3.994a23.43,23.43,0,0,0,17.94-4.063,29.888,29.888,0,0,0,10.866-14.84A26.57,26.57,0,0,0,451.854,600.655Zm-137.077-31.6h.05a1.8,1.8,0,0,0,.231-.01.076.076,0,0,1,.01-.051.085.085,0,0,1,.1-.08.109.109,0,0,1,.08.111.539.539,0,0,1-.04.15l-.02.03-.03.01a.794.794,0,0,1-.261.031h-.12a.093.093,0,0,1-.09-.1A.09.09,0,0,1,314.777,569.06Zm65.017,92.128c.01-.13.01-.261-.08-.271C379.924,660.545,380.255,661.268,379.794,661.188Zm-1.746,7.475a.064.064,0,0,1-.06-.051c-.01-.04,0-.08.04-.09a.254.254,0,0,0,.11-.071.27.27,0,0,1,.141-.07c.03-.01.06.02.07.06a.062.062,0,0,1-.05.08c-.03,0-.06.031-.1.051a.477.477,0,0,1-.14.08A.01.01,0,0,1,378.048,668.663Zm.12.712c.11-.281-.02-.261,0-.642.311-.01.361.261.4.552C378.339,669.214,378.369,669.415,378.168,669.375Zm.813,1.475c-.11-.03-.13-.161-.241-.191-.04-.291.221-.241.241-.462C379.232,670.348,378.911,670.609,378.981,670.85Zm-.16-1.746h.241c.03.19-.05.241-.081.371C378.84,669.445,378.8,669.315,378.82,669.1Zm.08-.552c.02-.08.08-.09.08-.181h.161C379.182,668.562,379.031,668.543,378.9,668.552Zm1.144-2.037a.061.061,0,0,1-.06-.03l-.271.03a1.259,1.259,0,0,0-.682.181l.04.01c.06.1.311.421.09.552,0,.01-.01.03-.01.04a1.35,1.35,0,0,1-.05.15.076.076,0,0,1-.07.04.058.058,0,0,1-.04-.01.109.109,0,0,1-.03-.13.666.666,0,0,0,.03-.1c.01-.03.01-.06.02-.09l-.02.01c-.161.1-.422-.03-.241.09-.181.221-.562-.3-.241-.461-.1-.261-.241.4-.411.09.12-.261.14-.642.411-.732l.02.04a.671.671,0,0,1,.281-.271.135.135,0,0,1,.191.071.171.171,0,0,1-.06.221.565.565,0,0,0-.161.141l.05-.01v.181h.161a1.308,1.308,0,0,1,.722-.181,2.8,2.8,0,0,0,.321-.03l.08-.02.01.131C380.115,666.475,380.085,666.515,380.044,666.515Zm.562-5.97c-.291-.06-.11-.431,0-.552C380.787,660.034,380.667,660.475,380.606,660.545Zm.411-.281c.211-.311.191.482,0,0Zm4.375-5.067a.036.036,0,0,1-.03.01.078.078,0,0,1-.04-.02.6.6,0,0,1-.09-.2.061.061,0,0,1,.03-.071.044.044,0,0,1,.06.03.658.658,0,0,0,.08.17A.061.061,0,0,1,385.392,655.2Zm.421,2.218c-.02.12-.2.07-.321.09.01-.23.12-.361.321-.371C385.834,657.295,385.673,657.375,385.814,657.415Zm-.08-1.194h-.02a.512.512,0,0,1-.02.482l-.01.02-.06.02h-.02a.067.067,0,0,1-.05-.04.068.068,0,0,1,.04-.08l.02-.01a.429.429,0,0,0-.01-.351c-.151-.2-.06-.442.05-.683.311-.07.09.441.4.372C386.055,656.191,385.874,656.381,385.733,656.221Zm.733.642c-.3.09-.141-.482-.08-.552C386.5,656.341,386.657,656.783,386.466,656.863Zm.261-.512h-.02a.085.085,0,0,1-.08-.07,1.513,1.513,0,0,1-.02-.211c-.02-.251-.04-.361-.181-.361-.05,0-.08-.041-.08-.1s.04-.1.08-.09c.3.01.331.321.341.532a.9.9,0,0,0,.02.181C386.8,656.291,386.777,656.341,386.727,656.351Zm3.05-3.632c-.02.01-.04.01-.05.03a.472.472,0,0,1-.19.051.164.164,0,0,1-.07-.01l.01.031h-.321c-.11-.181-.04-.562-.4-.462-.12.04.03.12,0,.281-.532-.19-.361-1.134-.331-1.565.231-.01.642.251.412.461.03.231.23-.09.16-.281.281.08.321.442.652.462-.05.341-.241.572-.09.9a.287.287,0,0,0,.12-.04.443.443,0,0,0,.07-.03.081.081,0,0,1,.1.06C389.847,652.649,389.827,652.709,389.777,652.719Zm1.325,2.117c.05.331-.251.271-.241.552C390.7,655.3,390.891,654.826,391.1,654.836Zm.08.642h-.241v-.18h.241Zm1.134-.732h-.161v-.18h.161Zm5.207-12.151c-.211.03-.351-.04-.321-.281C397.412,642.295,397.6,642.295,397.523,642.6Zm1.144.642c-.311.321-.422-.251,0,0Zm.241,2.117c.13-.031.14.08.241.09C399.178,645.626,398.777,645.585,398.907,645.355Zm2.759-2.76c-.411-.11-.6-.492-1.134-.462.151-.161-.02-.361-.241-.371a.65.65,0,0,1,.241-.642c.06-.311-.331-.12-.241-.461.241.17.07-.06.161-.371.311.19.361-.191.572-.371l.02.01a.544.544,0,0,1-.03-.311.3.3,0,0,1,.2-.221h.02a.282.282,0,0,1,.141.1l.02.04.01.02.02-.01c.11.09.161.251.321.271,0,.09-.1.07-.16.09a.216.216,0,0,0,.241.181c-.05.19.1.6-.081.642.04.211.13-.11.241.09C401.747,641.4,401.887,641.933,401.667,642.6Zm.9-4.054c-.05-.2.161-.13.161-.271C402.871,638.241,402.73,638.632,402.57,638.542Zm3.652-5.98c-.171-.02-.07-.341-.241-.371.06-.181.331.171.491.181C406.453,632.512,406.222,632.411,406.222,632.562Zm3.261-2.117c.03-.131.2-.08.321-.09-.01.11.02.17.08.18C409.8,630.8,409.513,630.545,409.483,630.445Zm4.736-8.027-.03.11a.445.445,0,0,1-.131.141l-.03.01-.03-.01a.38.38,0,0,0-.211-.04c0,.311-.211-.01-.241.361-.14-.23-.592-.13-.732-.371-.01-.231.131-.281.161-.462h.572a.251.251,0,0,0,.161.281l-.01.041a.429.429,0,0,1,.321.02.26.26,0,0,0,.05-.061l.02-.07a.066.066,0,0,1,.09-.051A.071.071,0,0,1,414.218,622.418Zm1.766-16.725c.02-.211.351-.06.4,0C416.376,605.9,416.035,605.742,415.985,605.692Zm2.689-17.77c-.03.03-.371-.16-.241.372-.562-.04-.953-.482-.732-1.385.411-.361.8.04,1.134.281v.462C418.453,587.431,418.774,587.8,418.673,587.923ZM417.63,586.4a.714.714,0,0,0-.251-.161.112.112,0,0,1-.06-.14.1.1,0,0,1,.12-.08.93.93,0,0,1,.321.21.136.136,0,0,1,.01.161.087.087,0,0,1-.07.04A.091.091,0,0,1,417.63,586.4Zm-2.539-11.819h.311a.128.128,0,0,1,.01-.06.135.135,0,0,1,.14-.131.139.139,0,0,1,.11.161c-.01.04-.01.08-.02.131h.01c.05.09.19.1.161.281C415.674,575.03,415,575.07,415.091,574.579Zm-1.8-5.639a.1.1,0,0,1,.121-.07.466.466,0,0,0,.15-.04h0l-.01-.03h.08c-.08-.181-.362-.141-.331-.462a1.781,1.781,0,0,1,1.626.181c-.01-.01-.01-.03-.02-.05a.448.448,0,0,0-.07-.041c.05-.03.06.01.07.041.582.421-.833,1.093-1.365.6v-.01a.5.5,0,0,1-.14.03.091.091,0,0,1-.05-.01A.112.112,0,0,1,413.3,568.939Zm-9.552-5.057c.02-.02.04-.03.06-.01s.06.03.09.05a.586.586,0,0,1,.171.09l.01.01.03.11a.049.049,0,0,1-.03.06h-.01c-.02,0-.04-.01-.04-.03l-.02-.08c-.05-.03-.09-.05-.13-.071a.383.383,0,0,1-.11-.06A.066.066,0,0,1,403.744,563.883Zm-.9.04a.935.935,0,0,0,.231-.04c.04-.01.07.01.08.061a.082.082,0,0,1-.05.1.9.9,0,0,1-.261.051h0a.069.069,0,0,1-.07-.071C402.78,563.963,402.81,563.922,402.84,563.922Zm.131,3.391c-.171.281-.522-.11,0,0Zm-1.947-3.963a.522.522,0,0,0-.08.281.252.252,0,0,1-.161-.281Zm-.562,2.829a.341.341,0,0,1,.361.031l.03.02.01.03a.247.247,0,0,1-.081.241.076.076,0,0,1-.04.021.088.088,0,0,1-.06-.031.092.092,0,0,1,.01-.11.17.17,0,0,0,.04-.05.22.22,0,0,0-.211,0,.072.072,0,0,1-.09-.05A.078.078,0,0,1,400.463,566.18Zm-1.385.662c.09-.07.2-.14.291-.1a.064.064,0,0,1,.03.081.056.056,0,0,1-.07.04c-.04-.02-.121.031-.191.081a.037.037,0,0,1-.03.01.055.055,0,0,1-.05-.03A.084.084,0,0,1,399.078,566.842Zm-12.452,1.485c-.08.1-.15.03-.4.09C386.225,568.177,386.526,568.2,386.626,568.328Zm-6.582,5.608h.241c-.06.4.231.411.241.733-.141-.171-.281-.01-.241.281A1.042,1.042,0,0,1,380.044,573.936Zm-.812.743c.211-.03.351.03.321.281a.4.4,0,0,1-.321.09Zm-.251.361a.311.311,0,0,0,.241.09c.161.321-.281.4-.08.461C379,575.792,378.86,575.21,378.981,575.04Zm-5.609,9.3c.18-.041.161.13.161.281-.07-.02-.08-.09-.161-.09Zm-.492-7.365v.181C372.489,577.247,372.73,576.665,372.881,576.976Zm-.893-.461c.131.181.542.06.492.461-.2-.13-.321-.221-.572-.09C371.867,576.7,371.968,576.635,371.987,576.515Zm-.662,9.221a.113.113,0,0,1,.161.061l.08.18a.14.14,0,0,1-.05.18.087.087,0,0,1-.05.01.153.153,0,0,1-.11-.07l-.08-.181A.143.143,0,0,1,371.326,585.736Zm-1.906-6.422.181-.2-.04-.02c-.14-.492.552-.1.652.181-.121.331-.421.281-.562.02l-.12.13a.056.056,0,0,1-.05.02.078.078,0,0,1-.05-.02A.071.071,0,0,1,369.419,579.314Zm-.813,9.171a1.372,1.372,0,0,1,.131-.09.73.73,0,0,1,.712-.191.1.1,0,0,1,.06.12c-.02.05-.06.08-.11.06-.21-.08-.371.04-.572.181a1.351,1.351,0,0,0-.13.09.061.061,0,0,1-.04.01.1.1,0,0,1-.08-.05A.11.11,0,0,1,368.606,588.485Zm-.6-5.8c.03-.181.11.06.08.181C368.054,583.047,367.984,582.806,368,582.685Zm0,6.16c.02.2-.281.04-.4.091C367.6,588.705,367.9,588.725,368,588.846Zm-2.087.743c.09-.06.11-.181.13-.321.02-.16.06-.381.261-.451.211-.391.843-.07,1.114-.241.13.241-.02.442.08.833h-.04a1.067,1.067,0,0,1,.05.13.118.118,0,0,1-.06.15c-.01.01-.02.01-.04.01a.076.076,0,0,1-.08-.07c-.01-.02-.01-.04-.02-.06a1.4,1.4,0,0,1-.271.181l-.02.01a.077.077,0,0,1-.11-.041.109.109,0,0,1,.04-.13l.02-.01a.807.807,0,0,0,.261-.181h-.04c-.291.02-.161-.431-.492-.371-.14.03.11.321-.241.281.02-.15-.08-.16-.08-.281l.01-.02c-.09.03-.12.11-.141.291a.692.692,0,0,1-.221.472c-.02.01-.03.02-.05.02a.1.1,0,0,1-.081-.05A.107.107,0,0,1,365.917,589.589ZM364,586.157c-.01.01-.07,0-.151-.02h.05C363.961,586.137,364,586.147,364,586.157Zm.04-.07h-.02a.98.98,0,0,0,.11-.05A.4.4,0,0,1,364.041,586.087Zm-.462-.05c-.07-.031-.09-.041,0,0Zm-2.649,1.334c.09.021.05.181.161.181-.02.13-.241.03-.241.181C360.6,587.652,360.941,587.5,360.931,587.371Zm-.652-3.953c.231.081.211-.13.412-.09,0,.09-.1.07-.161.09-.01.11.02.161.08.181C360.579,583.8,360.218,583.618,360.278,583.418Zm-.813,2.027h.241c-.07.17-.231.23-.161.551-.08-.06-.09-.211-.251-.18C359.305,585.625,359.526,585.7,359.466,585.445Zm-1.063-5.709c.07.06.14.11.161,0,.2.04,0,.361-.161.281Zm-.161-1.475c.381.18-.09.6,0,0Zm-.612.5.12-.141a.057.057,0,0,1,.09,0,.079.079,0,0,1,0,.111l-.12.14c-.01.02-.03.02-.05.02s-.03-.01-.05-.02A.091.091,0,0,1,357.63,578.762Zm.12,7.415.02.01a.972.972,0,0,1-.02-.291l.01-.07.06-.01c.261-.041.341-.322.361-.432.01-.05.06-.09.1-.07a.1.1,0,0,1,.07.12.71.71,0,0,1-.441.572.413.413,0,0,0,.01.11c.13.09.2.241.472.171.11-.03.07-.231.08-.372.121.011.231.02.241-.09.281-.03.221.783.492.461.19.02.04.4,0,.462-.341-.6-.863.241-1.625,0C357.549,586.438,357.71,586.368,357.75,586.177Zm-.241,2.759c-.211.031-.351-.03-.331-.281C357.339,588.705,357.539,588.7,357.509,588.936Zm-.161-12.141c-.02.1-.16.06-.17.18-.091-.02-.04-.09,0-.09,0-.09-.1-.07-.161-.09C357.1,576.485,357.208,576.706,357.349,576.8Zm-.492,1.284c-.12.431-.4.12,0,0Zm-.251,1.354a.834.834,0,0,0,.13-.13.951.951,0,0,1,.411-.311.08.08,0,0,1,.1.06.09.09,0,0,1-.05.11.877.877,0,0,0-.351.271,1.813,1.813,0,0,1-.141.14c-.02.01-.03.02-.05.02a.091.091,0,0,1-.07-.03A.124.124,0,0,1,356.606,579.434Zm-.4,2.328c-.01.23-.271.18-.492.18.181-.081.181-.351.411-.371C356.115,581.682,356.145,581.743,356.2,581.763Zm-.783-2.318.05-.01a.865.865,0,0,0,.17-.03.1.1,0,0,1,.131.07.112.112,0,0,1-.06.14.8.8,0,0,1-.211.05h-.06a.107.107,0,0,1-.1-.1A.1.1,0,0,1,355.422,579.445Zm.221-.632c.04.4-.221.121-.241.281C355.161,578.993,355.5,578.792,355.643,578.812Zm-.161-1.555a.122.122,0,0,1,.151.09c0,.01.01.02.01.031a.535.535,0,0,0,.09-.02.353.353,0,0,1,.331.01.154.154,0,0,1,.05.191.1.1,0,0,1-.161.05c-.04-.02-.07-.01-.14.01a.476.476,0,0,1-.171.04.275.275,0,0,1-.09-.01l-.04-.01-.03-.04a.714.714,0,0,1-.07-.151A.149.149,0,0,1,355.482,577.258Zm-.09,1c-.11.381-.662.291-.652-.181C354.911,578.21,355.212,578.17,355.392,578.261Zm-.893-2.107v.271c-.07-.06-.14-.11-.161,0C354.138,576.384,354.329,576.063,354.5,576.154Zm-.241,2.107c-.211.19-.381-.251-.492-.462C354.068,577.809,354.148,578.05,354.258,578.261Zm-1.666-5.448c.11.01.161-.03.191-.141a.067.067,0,0,1,.07-.05.063.063,0,0,1,.04.08.262.262,0,0,1-.271.231h-.03c-.03,0-.05-.03-.05-.07C352.533,572.843,352.563,572.812,352.593,572.812ZM352.412,574a1,1,0,0,1,.783.181c.03-.02.07-.04.1-.06a.878.878,0,0,0,.1-.06.062.062,0,0,1,.1.02.107.107,0,0,1-.02.12.422.422,0,0,1-.111.07.983.983,0,0,0-.13.09l-.04.03-.04-.03a.844.844,0,0,0-.712-.19.066.066,0,0,1-.08-.07C352.352,574.046,352.372,574,352.412,574Zm.381,4.174c-.221.521-.562.14,0,0Zm-1.134-5.98a.445.445,0,0,0-.08.281h-.16c.02-.08-.03-.09-.08-.09C351.349,572.21,351.469,572.161,351.66,572.19Zm0,.732v.181H351.5v-.181Zm-.331.743c.19.02.05.4,0,.462-.121-.02-.03-.271-.161-.271C351.188,573.746,351.329,573.786,351.329,573.665Zm-.482.732c-.02.11-.08.05-.08,0-.07.02-.08.09-.161.09C350.406,574.438,350.8,574.227,350.847,574.4Zm-.572-2.117c.161.06.211.251.241.462-.261-.04-.181.281-.492.18C350.2,572.822,350.215,572.522,350.275,572.28Zm-.411,1.295c.07.06.15.11.161,0,.16.07-.09.441-.241.461C349.753,573.806,349.934,573.826,349.864,573.575Zm.161.542a.251.251,0,0,1,.16.281C349.9,574.478,349.914,574.257,350.024,574.117Zm.04-1.726a.1.1,0,0,1-.05.11h-.02a.073.073,0,0,1-.07-.06.525.525,0,0,0-.141-.231.092.092,0,0,1-.01-.12c.02-.04.07-.04.111-.01A.945.945,0,0,1,350.064,572.391Zm-.361-3.15c.171-.04.151.131.161.281-.07-.02-.081-.09-.161-.09Zm-.492.371c.2.05.422.081.412.371C349.453,570.163,349.121,570.013,349.211,569.612Zm.331.833a.337.337,0,0,1-.321.181C349.232,570.464,349.352,570.414,349.543,570.444Zm-.652,2.85c.191-.031.311.019.321.18.081-.07.07-.612.492-.552-.13.552.03.341.08.923-.331.021-.321-.221-.241.181-.18.05-.12-.181-.241-.181-.091.021-.06.181-.161.181l-.01-.03a.412.412,0,0,0,.06.221c.02.03.03.07.05.1a.078.078,0,0,1-.03.1.036.036,0,0,1-.03.01.068.068,0,0,1-.06-.04.612.612,0,0,0-.04-.08.468.468,0,0,1-.07-.371l-.03.01v-.09c-.08,0-.06.111-.08.18C348.61,573.746,348.931,573.665,348.89,573.294Zm.241,1.385c-.1.13-.311.211-.4.09C348.85,574.548,348.931,574.628,349.131,574.679Zm-.732-.652c.18.01.17.231.161.462A.484.484,0,0,1,348.4,574.026Zm0,.833c-.12-.08-.261-.14-.241-.371C348.369,574.468,348.429,574.618,348.4,574.859Zm-.411-1.7a.371.371,0,0,1,.261-.07.227.227,0,0,0,.151-.03.077.077,0,0,1,.12.03.1.1,0,0,1-.03.141.388.388,0,0,1-.251.061.227.227,0,0,0-.151.03.173.173,0,0,1-.05.02.076.076,0,0,1-.07-.04A.11.11,0,0,1,347.987,573.164Zm-.562.682c.281.241-.421.221,0,0Zm-.492-4.143c.271-.06.3.151.321.371h-.321Zm0,4.143c-.14-.06-.251-.1-.321,0-.14-.08-.181-.291-.16-.551C346.573,573.514,346.984,573.425,346.934,573.846Zm-.161.372h-.161c-.02-.151.081-.161.081-.271C346.864,573.987,346.864,574.086,346.773,574.217Zm-.241-4.7c-.11-.03-.13-.16-.241-.18C346.322,569.11,346.6,569.331,346.533,569.521Zm-.4,2.579c.341.04-.09.531,0,0Zm-.251-1.756c.251-.331.271.281,0,0Zm0,.1a.216.216,0,0,1-.241.181A.216.216,0,0,1,345.88,570.444Zm-.311.763.02-.01h.02a.474.474,0,0,1,.151.1.077.077,0,0,1,.01.091.053.053,0,0,1-.08.01c-.02-.02-.06-.05-.08-.071a.311.311,0,0,0-.1.241c0,.04-.02.07-.05.07h0a.064.064,0,0,1-.06-.06A.374.374,0,0,1,345.57,571.207Zm-.341.432c.12.04-.03.12,0,.281-.151.009-.171-.111-.331-.091C344.847,571.568,345.289,571.889,345.228,571.638Zm-.241-1.656c.09.02.06.181.161.181-.03.362-.251-.07-.321.181C344.536,570.194,345.027,570.163,344.987,569.983Zm-2.629.923a.238.238,0,0,1,.231-.07c.19.06.311.381.381.582l.05.131-.12.05c-.1.04-.13.06-.14.11a.088.088,0,0,1-.09.08h-.01a.1.1,0,0,1-.07-.12.314.314,0,0,1,.2-.241c-.05-.141-.14-.371-.241-.4a.08.08,0,0,0-.07.02l-.01.04a.089.089,0,0,1-.12.05.106.106,0,0,1-.04-.131Zm-.873-5.067c.442-.04.843-.03.813.462-.361-.07-.492.12-.813.09A.751.751,0,0,1,341.486,565.839Zm-1.214,2.85c.181-.02.04.322.08.462C340.141,569.14,340.161,568.809,340.272,568.688Zm-.331-.09c-.02.221-.281.171-.241.462C339.489,568.939,339.65,568.458,339.941,568.6Zm-.893,1.846c.01.2-.07.291-.241.281a.251.251,0,0,0-.081-.372C338.8,570.073,338.847,570.565,339.048,570.444Zm-2.277-4.876c.19.1-.06.472-.161.552-.12-.02-.03-.271-.16-.281C336.469,565.648,336.81,565.819,336.77,565.568Zm-.733-.652c.03.16-.06.171-.16.181-.01.08.03.09.08.09C335.7,565.488,335.666,564.846,336.037,564.916Zm-.612,5.3-.241-.04A1.708,1.708,0,0,1,335.426,570.214Zm-2.147-1.335c-.03.12-.141.14-.161.281-.111-.03-.07-.231-.08-.371A.405.405,0,0,0,333.279,568.879Zm-.08-.191h-.241a.517.517,0,0,0,.081-.281A.3.3,0,0,1,333.2,568.688Zm-.171.833c-.04.231-.231-.09-.161-.281C332.987,569.271,332.9,569.521,333.027,569.521Zm-.08-4.505c-.241.331-.271-.281,0,0Zm-.652,1.926c-.12.432-.4.12,0,0Zm-.161,1.746v.372a.792.792,0,0,1-.321-.462A.4.4,0,0,0,332.134,568.688Zm-1.625-1.555c.211.171-.07.321.08.552-.231.01-.231-.221-.241-.462C330.439,567.234,330.489,567.2,330.509,567.133Zm-.491-3.02c.01-.02.01-.03.02-.04a.511.511,0,0,0,.05-.13c.01-.031.03-.05.06-.041a.052.052,0,0,1,.03.071.754.754,0,0,1-.06.16l-.02.04c-.01.02-.02.03-.04.03a.036.036,0,0,1-.03-.01A.114.114,0,0,1,330.018,564.113Zm-2.107.863a.312.312,0,0,1,.241-.02l-.01-.031c.211.05.291-.04.241-.281a3.14,3.14,0,0,0,1.144,0c-.161-.391.14,0,.321,0v.02a1.4,1.4,0,0,1,.21-.02.137.137,0,0,1,.121.151.15.15,0,0,1-.131.141.509.509,0,0,0-.12.01c.03.181-.06.231-.08.351-.261.081-.251-.14-.4-.18-.141.552-.7-.03-.733.552-.16-.411-.552-.03-.642-.532a.233.233,0,0,0-.09.02.081.081,0,0,1-.11-.05C327.86,565.047,327.87,565,327.91,564.976Zm.813,1.786c.391-.08-.391.592,0,.09C328.723,566.842,328.713,566.763,328.723,566.763Zm-.572,1.475c-.03-.161.462-.161.321.09C328.312,568.367,328.261,568.257,328.151,568.237Zm-1.224-3.131c-.161-.04-.351-.03-.321-.281C326.817,564.806,326.957,564.855,326.927,565.107Zm-3.361,6.26s-.11.051-.231.1C323.385,571.448,323.556,571.367,323.566,571.367Zm-.943-2.949c-.321-.02-.241-.411-.08-.552C322.723,567.876,322.573,568.257,322.623,568.418Zm-.492-1.565a.425.425,0,0,0,.331.09C322.442,567.213,322.071,567.163,322.131,566.853Zm-.331.05a.066.066,0,0,1,.05-.061.057.057,0,0,1,.05.061v.18a.051.051,0,1,1-.1,0Zm-.241,2.438a.308.308,0,0,0-.241-.09C321.349,568.99,321.6,569.05,321.559,569.341Zm-.482-2.579c.121.08.121.291.161.461C321.057,567.2,321.068,566.993,321.078,566.763Zm.161,2.388a.216.216,0,0,1-.241.18C320.957,569.14,321.108,569.16,321.238,569.15Zm-.893-1.284c.682-.412.722.5.482,1.013-.161-.321-.271-.151-.482-.371.01-.09.06-.06.08-.02A2.56,2.56,0,0,0,320.345,567.866Zm-.241,1.374c-.07.141-.261.131-.412.181C319.633,569.11,319.974,569.1,320.1,569.24Zm-1.234-.532a.442.442,0,0,1,.341-.261l.03-.01a.61.61,0,0,0,.02-.2v-.051c0-.04.02-.07.06-.06a.067.067,0,0,1,.06.071v.05a.836.836,0,0,1-.05.291l-.01.02-.08.03c-.14.04-.221.07-.261.181a.051.051,0,0,1-.05.04.037.037,0,0,1-.03-.01A.064.064,0,0,1,318.87,568.709Zm-.321.351c.01-.08-.03-.09-.08-.09.141-.322.261.23,0,.181C318.349,569.1,318.469,569.06,318.549,569.06Zm-.08,3.221c-.12.171-.431.4-.572.281C318.188,572.481,318.048,572.01,318.469,572.28Zm-.4-.823c-.05-.05-.241-.371-.331-.091-.181-.01-.03-.391-.08-.551h-.16C317.9,570.485,318.459,571.107,318.068,571.458Zm-.492.823c-.01.11-.151.08-.241.09-.02-.08.03-.09.08-.09.02-.08-.03-.09-.08-.09C317.385,571.92,317.455,572.331,317.576,572.28Zm-.241-1.475c.231.381-.271.6,0,0Zm-.331.632a.067.067,0,0,1,.1,0l.121.141a.079.079,0,0,1,0,.11c-.02.01-.03.02-.05.02s-.03-.01-.05-.02l-.12-.14A.078.078,0,0,1,317,571.438Zm.09,2.87c-.13.11-.261.361-.411.181A.393.393,0,0,1,317.094,574.307Zm-.291,1.134c.08-.061.161-.13.241-.181C317.064,575.241,316.924,575.351,316.8,575.441ZM315.71,571c.14-.03.151.511-.08.371A.655.655,0,0,0,315.71,571Zm-.412,4.5c.2-.01.251-.17.412,0A.215.215,0,1,1,315.3,575.5Zm-.241-1.926c-.251.331-.271-.281,0,0Zm-.321-1.114c.281-.01.241.341.241.642A.575.575,0,0,1,314.736,572.461Zm-.492,1.656c.351.04-.09.541,0,0Zm-.812-1.194c.181.01.17.231.16.462A.484.484,0,0,1,313.432,572.922Zm.321,4.325c-.07.331-.2.01-.492.09C313.282,577.137,313.613,577.307,313.753,577.247Zm-.813-4.877h.241c-.01.13-.01.261.08.281C313.141,572.922,312.9,572.581,312.941,572.371Zm-.271,4.676c.03,0,.05.04.05.07a.065.065,0,0,1-.06.061h-.01a.351.351,0,0,1-.281-.121.063.063,0,0,1,.01-.09.052.052,0,0,1,.08.01C312.489,577.027,312.579,577.037,312.669,577.047Zm-.13-.441c.08.311-.251.14-.4.181C312.2,576.655,312.389,576.655,312.539,576.605Zm-.893-2.94c.03-.181.1.06.08.18C311.7,574.026,311.616,573.786,311.646,573.665Zm-.452.261a.1.1,0,0,1,.08-.1c.05,0,.081.041.081.1v.251a.1.1,0,0,1-.081.1c-.05,0-.08-.04-.08-.1Zm-.04,3.231h.161v.181h-.161Zm-.08,1.846h.4C311.586,579.334,310.934,579.445,311.074,579Zm-.331,1.565c.01-.04.171-.16.241-.09C311.154,580.628,310.633,580.909,310.743,580.568Zm.09.733c.01.261-.422.171-.411-.09C310.653,581.13,310.633,581.341,310.833,581.3Zm-.411-.823c-.16-.04-.351-.03-.321-.281C310.312,580.167,310.442,580.227,310.422,580.478Zm-.492-1.1c-.2-.06-.04-.471.16-.371C310.161,579.254,309.93,579.184,309.93,579.374Zm0,3.03c.3.281-.241.311,0,0Zm.331-4.7c.17-.02.04.331.08.461-.171-.06-.261-.191-.411-.281C309.88,577.648,310.322,577.96,310.262,577.709Zm.08-.733c-.151-.02-.191-.16-.161-.371.13-.03.14.09.241.09A.467.467,0,0,0,310.342,576.976Zm-.411-1.194c.251-.07.1.321.411.181v.281c-.191.2-.311-.291-.492.09C309.569,576.154,309.95,575.963,309.93,575.782Zm-.321.732c-.04.11-.1.191-.241.181C309.328,576.5,309.479,576.525,309.609,576.515Zm-.652.461c.341.061.3.211.241.552-.12,0-.12-.582-.241-.281C308.837,577.207,308.987,577.137,308.957,576.976Zm-.321,1.836c.1-.281.311.07.4.09a.238.238,0,0,1-.4.09C308.676,578.913,308.736,578.833,308.636,578.812Zm.161,5.619c-.241-.291.552-.18,0,0Zm.09.853-.03.09A.881.881,0,0,0,308.887,585.284Zm-.06.161c-.1.241-.241.531-.07.14C308.787,585.535,308.807,585.485,308.827,585.445Zm-.11-5.248a.243.243,0,0,1,.08.371C308.686,580.538,308.726,580.338,308.716,580.2Zm-.542,1.194a.35.35,0,0,1,.251-.161.326.326,0,0,1,.321.171.107.107,0,0,1-.02.121.067.067,0,0,1-.1-.02.163.163,0,0,0-.171-.09.182.182,0,0,0-.14.1l.02-.01c.06.14.261.14.241.372-.1.09-.291.09-.321.261v.191a.223.223,0,0,0,.1.01.286.286,0,0,1,.241.07.121.121,0,0,1,0,.141.075.075,0,0,1-.12,0c-.02-.02-.06-.02-.11-.02a.268.268,0,0,1-.271-.111l-.01-.03V582.1c0-.01.01-.03.01-.04h-.01c-.121-.01-.231-.01-.241.09a1.9,1.9,0,0,1-.411-.642C307.843,581.783,307.622,581.321,308.174,581.391Zm-.923-.913c-.07-.02-.08.04-.08.09-.261-.11.08-.261.241-.181C307.763,580.378,307.422,580.538,307.252,580.478Zm-.331-4.234a.224.224,0,0,0,.241-.181c.141.02.191.16.161.371A.227.227,0,0,1,306.92,576.244Zm-.08,9.11c-.221.04-.07-.342-.241-.372C306.72,584.712,306.93,585.093,306.84,585.354Zm-.241,4.876c.371.061-.07.552,0,0Zm0-3.772c.3.4-.221.351,0,0Zm-.241,2.669c.211-.321.191.471,0,0Zm.432,16.435a.105.105,0,0,0,.07.06.094.094,0,0,1,.05.09.064.064,0,0,1-.06.051h-.01a.246.246,0,0,1-.151-.131.252.252,0,0,1-.01-.19.054.054,0,0,1,.08-.04.076.076,0,0,1,.04.09A.043.043,0,0,0,306.79,605.562Zm-.03-6.411c-.241.211-.642-.03-.652-.361C306.378,598.648,306.81,598.679,306.76,599.15ZM304.4,609.194c-.15-.131-.361-.482-.161-.733a.309.309,0,0,0,.241.09C304.552,608.863,304.362,608.893,304.4,609.194ZM303.529,590a.056.056,0,0,1-.05.06h0c-.03,0-.05-.03-.06-.06a.485.485,0,0,1,.05-.231l.02-.04.04.01a.391.391,0,0,0,.11.01.055.055,0,0,1,.05.07c0,.03-.03.07-.06.06a.269.269,0,0,1-.09-.01A.254.254,0,0,0,303.529,590Zm-.02-2.167c.221.1.04.713-.161.371C303.378,588.064,303.6,588.124,303.509,587.833Zm0,17.669v.181h-.161V605.5Zm.16-17.3v-.181h.16v.181Zm.221,6.672.02-.03a.053.053,0,0,1,.08-.02.075.075,0,0,1,.02.1l-.02.04a.442.442,0,0,0-.05.121c-.01.03-.03.06-.06.06h-.01a.069.069,0,0,1-.05-.08A.381.381,0,0,1,303.89,594.876Zm.03,4.465c.09-.11.291-.1.492-.09.06.4-.171.481-.412.552A.643.643,0,0,1,303.92,599.341Zm.4-14.087c.181-.131.161-.191.381-.1.01-.021.01-.04.02-.051a.063.063,0,0,1,.06-.04.051.051,0,0,1,.03.07.813.813,0,0,1-.05.141l.04-.02c.151.261.391.411.412.833-.151-.03-.171.09-.08.09-.241.241-.04.2-.331,0a.509.509,0,0,0-.08.271c-.19-.06-.221-.3-.411-.371C304.452,585.786,304.362,585.585,304.322,585.254Zm1.054-.913c.07.02.08.09.161.09C305.5,584.652,305.155,584.482,305.375,584.341Zm.291,3.02a.057.057,0,0,1,.05.06.054.054,0,0,1-.05.05.139.139,0,0,0-.12.071.052.052,0,0,1-.04.02.038.038,0,0,1-.03-.01.076.076,0,0,1-.01-.081A.246.246,0,0,1,305.666,587.361Zm.04,6.823c-.261.11-.391-.361-.411-.371-.05-.03-.1.17-.08.181-.221-.181-.11-.5-.492-.462.07-.25.251-.391.321-.642C305.315,593.3,305.957,593.471,305.706,594.184Zm-1.3,6.08c-.07.14-.261.13-.411.18C304.01,600.244,304.2,600.244,304.4,600.264Zm-.241,3.311h.411c-.06.281.141.271.08.552C304.492,603.936,304.171,603.936,304.161,603.575Zm.321-12.151c.02-.1.161-.06.161-.181.15-.009.17.111.321.09.03.211-.231.1-.241.271C304.643,591.545,304.643,591.395,304.482,591.424Zm.492,2.3c.181.01.04.391.08.552-.141-.121-.321-.191-.321-.462C304.844,593.822,304.964,593.833,304.974,593.722Zm.321,9.391c.221-.12.662.01.572-.461a1.239,1.239,0,0,1,.572.181c-.471.5-.12,1.434-.652,1.936-.562-.03-.863-.14-.973-.833A1.6,1.6,0,0,0,305.295,603.114Zm.251-22.094c.5-.11.341.6.08.642C305.315,581.582,305.566,581.3,305.546,581.02Zm-.411-1.375c-.09.08-.03.341-.241.271C304.874,579.716,304.964,579.625,305.134,579.645Zm-.131,3.09c-.171-.181.341-.241.131-.331.11-.2.5-.01.492.241a.63.63,0,0,1,.131.1c.01-.03.01-.06.02-.1s.02-.111.03-.161l-.02.01c-.01-.231.12-.291.241-.371.141-.03.151.07.161.18h0c.05.02.11.03.16.05a.143.143,0,0,1,.07.17.115.115,0,0,1-.11.09.059.059,0,0,1-.04-.01c-.05-.02-.11-.04-.171-.06v.02h-.15c-.01.03-.01.07-.02.1a.3.3,0,0,1-.02.09l.02-.01c.161.171.02.341,0,.552-.2.04-.18-.17-.411-.09v-.03a.391.391,0,0,1-.151.03l-.05.01h-.01a.047.047,0,0,1-.05-.05.076.076,0,0,1,.05-.07l.04-.01a.3.3,0,0,0,.1-.02.475.475,0,0,0,.06-.191c-.02-.02-.04-.03-.06-.05h-.181l-.02-.04a.857.857,0,0,1-.2.191c-.01,0-.01.01-.02.01V583c-.13.251-.491.01-.572-.09A.386.386,0,0,1,305,582.736Zm-1,.04c.09.01.141-.02.161-.09.181.01-.1.231,0,.462C304.01,583.117,303.971,582.986,304,582.776Zm-.752.953a.135.135,0,0,1,.141.07c.01.01.01.02.02.03a.251.251,0,0,0,.12-.08.312.312,0,0,1,.11-.091l.02-.01h.02a.537.537,0,0,1,.12.031l.02.01.01.02a1.064,1.064,0,0,1,.06.11c.01.01.01.02.02.03v-.05c.251-.12.231.03.572,0-.04.181-.171.231-.161.461-.251-.11-.321-.05-.732-.09-.3-.131.241-.01.161-.181h.08c-.02-.03-.03-.05-.05-.08a.434.434,0,0,0-.04-.07c-.02-.01-.04-.01-.06-.02-.02.01-.03.03-.05.05-.06.061-.141.151-.261.12h-.02l-.01-.01a.265.265,0,0,1-.05-.06l-.01-.01h0l-.05-.06-.03-.07Zm-.391,6.5v-.281C303.1,589.819,303.1,590.361,302.857,590.23Zm0-3.5c-.02.221-.361.05-.4,0C302.526,586.458,302.716,586.789,302.857,586.729Zm-.481.281c.11.03.13.161.241.181-.04.11-.1.191-.241.18.01-.08-.03-.09-.081-.09A.508.508,0,0,0,302.375,587.01Zm-.091,2.568c.191,0,.241-.161.492-.09-.2.241.08.451,0,.823l-.04-.01a.571.571,0,0,1-.04.552.051.051,0,0,1-.04.02.037.037,0,0,1-.03-.01.076.076,0,0,1-.01-.08.474.474,0,0,0,.06-.371c-.151.03-.151.241-.141.452-.12-.11-.341-.321-.4,0C301.964,590.471,302.215,590.13,302.285,589.578Zm-1.475,4.967a1.147,1.147,0,0,0-.11.06l-.04.02c-.01.01-.02.01-.04.01a.076.076,0,0,1-.07-.05.087.087,0,0,1,.04-.12l.04-.02a.591.591,0,0,1,.131-.07.075.075,0,0,1,.1.051A.092.092,0,0,1,300.81,594.545Zm.261-.451h-.161v-.181h.161Zm.542-5.227h-.01a.048.048,0,0,1-.05-.05.492.492,0,0,0-.141-.251.075.075,0,0,1-.01-.091.053.053,0,0,1,.08-.01.594.594,0,0,1,.181.3A.1.1,0,0,1,301.613,588.866Zm.753,7.444a.107.107,0,0,1,0-.11,1.052,1.052,0,0,1,.11-.09.623.623,0,0,0,.1-.07l-.04-.02a.447.447,0,0,1-.08-.281h-.161v-.02a1.861,1.861,0,0,1-.231.02h-.05a.127.127,0,0,1-.12-.14.143.143,0,0,1,.12-.15h.05a.908.908,0,0,0,.17-.01c.12-.12.341-.141.311-.442.161.15.1-.01.321,0-.12.271-.06.1.161.09l-.01.04a.325.325,0,0,1,.08-.02c.07-.02.131-.04.2-.06a.066.066,0,0,1,.08.07.083.083,0,0,1-.06.1,1.352,1.352,0,0,0-.19.05c-.01,0-.02.01-.03.01a4.907,4.907,0,0,1-.331.913h-.161l.01-.02c-.03.02-.05.04-.07.05a.352.352,0,0,0-.09.07.075.075,0,0,1-.05.02A.021.021,0,0,1,302.365,596.311Zm.9,5.609a.708.708,0,0,1-.492.462c0-.09-.1-.07-.16-.09C302.435,601.649,303.158,601.438,303.268,601.919Zm-.812-.8a.091.091,0,0,1,.02-.11,2.084,2.084,0,0,0,.18-.14c.05-.04.09-.08.131-.111a.859.859,0,0,0,.05-.231.611.611,0,0,1-.181-.271h0a.291.291,0,0,1-.2.041.072.072,0,0,1-.05-.091.078.078,0,0,1,.09-.06c.02.01.06-.01.11-.03a.407.407,0,0,1,.07-.031l.06-.02.02.07a.607.607,0,0,0,.181.3l.03.02v.04a1.149,1.149,0,0,1-.07.351l-.01.03-.02.01-.15.12c-.06.051-.131.11-.191.151-.01.01-.02.01-.04.01C302.5,601.147,302.476,601.137,302.456,601.117Zm.321,2.569h-.01a.252.252,0,0,1-.161.14l-.04.01-.02-.04a.455.455,0,0,1-.03-.181.047.047,0,0,1,.05-.05.044.044,0,0,1,.04.06v.081a.559.559,0,0,0,.06-.081.075.075,0,0,1-.01-.05.088.088,0,0,1,.01-.05c-.03-.1-.05-.211-.06-.261l-.01-.05.03-.031a.508.508,0,0,1,.231-.15l.03-.01.03.02a.729.729,0,0,1,.161.151l.02.02v.04a1.26,1.26,0,0,1-.04.311.192.192,0,0,1,.01.08v.01c.04.09.07.15.09.21a.081.081,0,0,1-.04.09h-.02a.064.064,0,0,1-.06-.05.529.529,0,0,0-.08-.181h-.02A.93.93,0,0,0,302.776,603.686Zm.973,5.227c-.341-.18-.441-.14-.893-.09C302.8,607.93,303.87,608.09,303.75,608.913Zm.411,4.014a.105.105,0,0,1-.1.09h-.03a.383.383,0,0,0-.151-.031.123.123,0,0,1-.11-.13.108.108,0,0,1,.11-.12.489.489,0,0,1,.2.03A.154.154,0,0,1,304.161,612.926Zm1.144-.863a.553.553,0,0,1-.09-.07h0l.01.05c-.02.11.02.161.08.181a1.3,1.3,0,0,1-.813,0l.01-.05a.653.653,0,0,1-.12.06h-.02a.051.051,0,0,1-.05-.04c-.01-.03,0-.07.03-.07l.06-.03c.03-.241-.14-.241-.09-.512.12.051.2.141.321.181-.04-.321-.311-.231-.492-.181-.11-.461.281-.361.331-.642a1,1,0,0,1,.813.983.8.8,0,0,0,.1.07l-.01-.04c-.03-.151.07-.171.161-.181C305.837,611.953,305.355,612.515,305.3,612.063Zm-.01-.482v-.18h.16v.18Zm.492.462c-.01.01-.161-.311-.161-.281C305.656,611.511,305.907,611.9,305.786,612.043Zm1.826,1.9c-.15.11-.311.02-.441-.04a.957.957,0,0,0-.15-.071.217.217,0,0,0-.08,0l-.02.03a1.008,1.008,0,0,1-.07.11h0a.57.57,0,0,1,.08.371h-.492c.02-.211-.02-.341-.161-.371.01-.2.321-.05.472-.09.02-.031.05-.07.07-.1l.05-.07.02-.01a.405.405,0,0,1,.15-.01.977.977,0,0,1,.181.08c.12.06.231.12.331.05a.054.054,0,0,1,.08.02A.108.108,0,0,1,307.612,613.94Zm.151-5.779c-.01-.01-.02-.01-.03-.021-.131-.1-.231-.17-.331-.15h.01c-.03.161.06.171.161.181-.11.6-.853.7-1.144.833-.121.141-.121.411-.4.371l.01-.02h-.01a.512.512,0,0,1-.13.02h-.08l-.01-.02-.06-.06a.491.491,0,0,1-.09-.111l-.03.02a.569.569,0,0,1-.08-.371c-.161,0-.1.251-.321.181-.03-.372-.211,0-.411-.181.06-.211.151-.392.411-.372.06-.281-.08-.341-.08-.551h.01a.836.836,0,0,1-.171-.2l-.01.02c-.221-.01-.161.151-.321,0,.06-.351-.1-.441-.08-.742a.686.686,0,0,1,.893-.09c0,.361-.221.462-.321.712a.529.529,0,0,0,.1.11c.271-.01.211-.1.462,0a.51.51,0,0,0-.08.271c.181-.03.321-.16.461-.02a.037.037,0,0,0,.03-.01c.02-.06.1-.05.16-.06l-.01.02h.02l.08.051c.271-.251.773.291.8-.261.1-.02.151.02.161.091l-.01.03c.191-.081.361.05.492.16a.01.01,0,0,1,.01.01v-.01c0-.261.221.221.161-.18.281.05.12.6.161.923C307.863,608.712,307.833,608.411,307.763,608.161Zm-.11-1.365c.141.07.01.17,0,.281C307.513,607.007,307.643,606.907,307.653,606.8Zm.732,13.9c-.281.06-.291-.322-.161-.462C308.405,620.251,308.405,620.462,308.385,620.692Zm1.064,4.143c-.2-.04,0-.361.161-.281C309.649,624.766,309.449,624.686,309.449,624.836Zm.281-4.294a.064.064,0,0,1-.07.051c-.03-.01-.08.01-.151.04l-.04.01a.6.6,0,0,0-.01.191c0,.04-.02.071-.06.071h0a.065.065,0,0,1-.06-.061.776.776,0,0,1,.03-.271l.01-.031.09-.03a.452.452,0,0,1,.211-.04A.051.051,0,0,1,309.73,620.542Zm1.013,4.294c-.321.181-.321.151-.572-.09a.464.464,0,0,1,.491-.281C310.653,624.626,310.763,624.656,310.743,624.836Zm.251-2.488c-.14-.241-.411-.331-.572-.552.11-.422.271-.782.793-.732-.01-.04-.01-.08-.02-.11l.11-.05.11-.031a1.1,1.1,0,0,1,.03.3l.03-.01c.241.291-.12.562.241.923C311.405,622.087,311.345,622.388,310.994,622.348Zm.462,1.013h-.02a.128.128,0,0,1-.12-.11.9.9,0,0,1,.14-.552.1.1,0,0,1,.161-.051.154.154,0,0,1,.05.191.63.63,0,0,0-.11.371A.133.133,0,0,1,311.455,623.361Zm.191,1.846c-.231-.4.161-.632.492-.461C312,624.926,311.907,625.167,311.646,625.207Zm.4-2.117c-.251.331-.271-.281,0,0Zm1.465,6.8c0-.151.04-.351-.08-.372.13-.29.261.191.411.181C313.823,629.873,313.693,629.923,313.512,629.893Zm.813-2.759c-.151-.562.23-.541.732-.552C315.168,627.184,314.676,627.325,314.325,627.134Zm1.134-2.027c-.191-.02-.191-.241-.081-.371.111.03.131.161.241.181C315.609,625.027,315.459,624.987,315.459,625.107Zm.572,8.378c.261-.01.491,0,.572.191C316.532,634.247,315.78,633.947,316.031,633.485Zm.923-1.465c-.04.01-.08.031-.11.04v.321c-.05.13-.311.01-.321.181-.05-.131-.05-.141-.241-.271-.02,0-.03-.01-.04-.01a.111.111,0,0,1-.121-.12c0-.07.04-.141.11-.141a.8.8,0,0,1,.14.02l-.01-.02c.261.11.06-.3.321-.18v.03a.934.934,0,0,1,.251-.11v-.02a.066.066,0,0,0-.081-.09.7.7,0,0,0,.492-.271c.171.221-.19.391-.08.823C317.044,632.261,317.084,632.04,316.954,632.02Zm.381,5.609c.04-.271.12.14.241.09C317.506,638.02,317.415,637.619,317.335,637.629Zm.572.271c-.191.3-.331-.321,0,0Zm.12-3.11h-.05c-.08,0-.161-.01-.211-.01h-.01l-.01-.01a.335.335,0,0,1-.09-.261.308.308,0,0,0-.01-.1c-.241.01-.331-.161-.381-.372a.379.379,0,0,1,.492,0v.281l-.02-.01a.65.65,0,0,1,.04.19c.01.08.01.131.04.161a1.545,1.545,0,0,0,.231.01.056.056,0,0,1,.05.06C318.078,634.759,318.058,634.789,318.027,634.789Zm.612.441c-.211.03-.351-.03-.321-.281C318.519,634.93,318.72,634.93,318.64,635.231Zm.893-1.655c-.191.3-.331-.322,0,0Zm.16,4.143c-.04-.2.121-.18.251-.18A.234.234,0,0,1,319.693,637.719Zm-.411-4.876c-.12-.151.07-.461,0-.833.341-.281.853-.391.973.181C319.823,632.281,319.944,633,319.282,632.843Zm3.02,10.675h-.161v-.18h.161Zm.482-2.117c-.211-.01-.422-.02-.4-.281A.256.256,0,0,1,322.784,641.4Zm.732.462c-.11.13-.391.05-.321-.281C323.405,641.562,323.536,641.622,323.516,641.863Zm-.572-4.425c-.13-.2.221-.3,0-.642a3.643,3.643,0,0,0-.411.462v.07c.03,0,.05.01.08.01l.05.01a.108.108,0,0,1,.08.11c-.01.051-.04.09-.091.09h-.06a.714.714,0,0,1-.15-.03l.01.03c-.492-.17-.472.11-.973.09.06-.381-.12-.471-.08-.833.14.01.17-.11.321-.09v-.04c0-.02-.01-.03-.01-.051-.16.01-.09-.241-.211-.271-.03.06-.05.13-.08.191-.12.251-.19.421-.09.562a.137.137,0,0,1-.02.161.074.074,0,0,1-.06.02.1.1,0,0,1-.08-.051.8.8,0,0,1,.08-.8c.04-.09.08-.181.11-.261l-.03-.01a1.552,1.552,0,0,1,.732-.552c.1-.3-.261-.071-.16-.371l.01-.051a.469.469,0,0,0-.09.121.054.054,0,0,1-.04.03.037.037,0,0,1-.03-.01.072.072,0,0,1-.02-.08.815.815,0,0,1,.08-.12c-.02-.231.12-.291.321-.261-.1-.12-.03-.141,0-.281.13.04.07.291.331.181.11-.03.07-.231.08-.372.12-.009.231-.02.241.09l-.02.01a.446.446,0,0,1,.4.371l.02-.01a1.052,1.052,0,0,1-.08,1.013c.08.311.311.452.492.642C323.436,636.9,323.486,637.508,322.944,637.438Zm1.385,4.054-.02-.01a.579.579,0,0,1,.02.141.1.1,0,0,1-.08.11h-.01a.106.106,0,0,1-.09-.09c0-.02-.01-.04-.01-.06-.19,0-.241-.151-.391-.181-.03-.491.632-.421.813-.18C324.7,641.542,324.3,641.271,324.329,641.492Zm.742-1.836a.992.992,0,0,0-.12.05.432.432,0,0,1-.211.061.22.22,0,0,1-.19-.121l-.01-.04-.01-.081a.092.092,0,0,1,.07-.11.1.1,0,0,1,.1.08l.01.05c.03.041.06.03.181-.03a.519.519,0,0,1,.161-.06.077.077,0,0,1,.09.08C325.151,639.606,325.121,639.645,325.071,639.656Zm-.5-.833c.261-.08.17.231.331.271C324.8,639.345,324.469,639.1,324.569,638.823Zm1.876,6.722c-.1-.12-.03-.14,0-.271C326.686,645.4,326.4,646.358,326.445,645.545Zm.161-3.873a.251.251,0,0,1,.16.281A.262.262,0,0,1,326.606,641.672Zm.572.1a.266.266,0,0,0-.16.18c-.06-.151-.261-.14-.241-.371.151-.171.151.05.4,0-.01.11.02.161.08.181C327.238,641.873,327.178,641.823,327.178,641.773Zm.4.09c-.291.14-.05-.311-.241-.281C327.429,641.311,327.6,641.7,327.579,641.863Zm4.234,9.381c.09-.291.01-.211,0-.552.281-.091.522-.311.732,0C332.436,651.044,332.074,651.084,331.813,651.245Zm1.224-2.89a.055.055,0,0,1-.051.051h-.01a.312.312,0,0,1-.13-.061l.02.051c-.03.18.02.291.161.281-.251.261-.752.06-.893-.181-.02-.04.371-.461-.08-.461.281-.211.462-.1.813-.09-.01.151.09.191.08.341.02.01.03.02.05.02S333.048,648.325,333.038,648.355Zm-.9-1.9v-.181h.161v.181Zm3.331,4.786c.01-.11.151-.081.241-.091v.281C335.606,651.4,335.586,651.264,335.466,651.245Zm.251,6.171c.231.02.221.3.4.371C336.3,657.957,335.646,657.706,335.717,657.415Zm.4-3.953c-.01-.231-.151-.291,0-.461.1.14.341.11.321.371C336.3,653.352,336.278,653.482,336.118,653.462Zm.441,3.953a.091.091,0,0,0-.01.05c-.01.03-.03.05-.05.05h-.01a.057.057,0,0,1-.04-.07.56.56,0,0,1,.05-.14l-.04.02c-.221.07.06-.431-.161-.372.11-.241.422.07.572.09C336.83,657.254,336.8,657.465,336.559,657.415Zm4.846,3.4c-.171-.221-.321.13-.492-.09C340.924,660.586,341.526,660.525,341.405,660.816Zm.411.281c-.08-.281.18-.16.321-.18C342.088,661.037,341.967,661.077,341.817,661.1Zm-.08-4.144v-.18h.321v.18Zm2.478,4.345a.251.251,0,0,1-.261.181.648.648,0,0,1-.2-.03l-.04-.01-.03-.09a.058.058,0,0,1,.02-.07c.03-.01.05,0,.07.03l.01.04c.171.04.291.05.341-.08a.045.045,0,0,1,.06-.03A.037.037,0,0,1,344.215,661.3Zm-.05-.622a.919.919,0,0,1-.261.05h-.02a.134.134,0,0,1-.12-.141c0-.08.05-.14.12-.13a.6.6,0,0,0,.211-.041.119.119,0,0,1,.15.1A.124.124,0,0,1,344.165,660.676Zm1.876,2.629a.274.274,0,0,0-.171.191c-.11-.131-.17-.451-.08-.552h.241a.9.9,0,0,1,.08.552C346.041,663.486,346.061,663.375,346.041,663.3Zm.331,1.285h-.161c.02-.08-.03-.09-.08-.09C346.091,664.328,346.492,664.369,346.372,664.589Zm.321-4.224c.241-.13.411-.02.411.371A.351.351,0,0,1,346.693,660.365Zm.552.753a.391.391,0,0,0-.14.08.076.076,0,0,1-.04.02c-.02,0-.03-.01-.05-.03a.076.076,0,0,1,.01-.1.582.582,0,0,1,.181-.1.066.066,0,0,1,.08.051A.068.068,0,0,1,347.245,661.117Zm.642-.02h-.01a.051.051,0,0,1-.05-.04.09.09,0,0,1-.01-.05c-.01-.061-.02-.091-.04-.1a.058.058,0,0,1-.02-.07.045.045,0,0,1,.06-.03c.06.03.08.111.1.171,0,.01.01.03.01.04C347.927,661.067,347.907,661.1,347.887,661.1Zm5.318,6.532c-.341.09-.351-.221-.331-.552.1-.16.492,0,.492-.271C353.606,667.057,353.285,667.449,353.2,667.629Zm4.124-2.93a.116.116,0,0,1-.1.09h-.03l-.08-.02a.845.845,0,0,0-.15-.05.119.119,0,0,1-.09-.141.1.1,0,0,1,.12-.1,1.727,1.727,0,0,1,.191.05l.07.03A.112.112,0,0,1,357.329,664.7Zm.993,4.766c-.01-.2.291-.04.4-.09C358.723,669.616,358.432,669.6,358.322,669.465Zm2.438-2.94c.151-.141.12-.481.411-.462C361.182,666.385,361.1,666.6,360.76,666.526Zm8.3-6.994c-.03.181-.1-.06-.08-.181C369.008,659.171,369.078,659.411,369.058,659.532Zm.552,2.448a.121.121,0,0,1-.1.07c-.02,0-.03-.01-.05-.01l-.161-.09a.135.135,0,0,1-.05-.17.106.106,0,0,1,.15-.05l.161.09A.134.134,0,0,1,369.609,661.98Zm.1-2.539c-.13.011-.311-.04-.321.09-.231-.12.1-.371.161-.461C369.69,659.09,369.73,659.231,369.71,659.441Zm.492,3.773c.351.039-.091.532,0,0Zm.321-8.047h-.03l-.1-.03-.03-.041a.926.926,0,0,1-.141-.792l.02-.05.05-.031a.241.241,0,0,1,.221.01.146.146,0,0,1,.09.18.128.128,0,0,1-.161.1.654.654,0,0,0,.1.361h0a.162.162,0,0,1,.1.181A.119.119,0,0,1,370.523,655.167Zm.081,4.184c.1-.291-.121-.12.08-.461C370.814,658.87,370.854,659.492,370.6,659.351Zm.12-6.05c-.11-.01-.171.07-.241.211l-.02.03a.083.083,0,0,1-.06.04.075.075,0,0,1-.04-.01.089.089,0,0,1-.02-.11l.01-.03c.08-.131.17-.3.371-.281a.064.064,0,0,1,.06.08C370.794,653.281,370.764,653.312,370.723,653.3Zm.211,3.472c.01-.2.341-.04.492-.09C371.406,656.883,371.074,656.723,370.934,656.773Zm.08-2.669c-.11-.03-.07-.231-.08-.371a.327.327,0,0,0,.241.09C371.125,653.924,370.984,653.924,371.014,654.1Zm1.294.642c-.231-.041-.231-.351-.321-.552.181-.211.411.01.572.09C372.549,654.525,372.409,654.606,372.309,654.746Zm.823-2.4c-.03-.472-.351-.843-.161-1.284A.647.647,0,1,1,373.131,652.348Zm.562,1.2c-.221.04.06-.5-.16-.461.05-.281.171.09.321,0C373.924,653.381,373.783,653.442,373.693,653.552Zm.161-3.041c.391.141.11.452,0,0Zm.652,6.532c.211.1.281.351.411.552A.357.357,0,0,1,374.506,657.044Zm-.08-1.375c-.181-.01-.17-.231-.16-.461h0c-.181-.04-.06-.492,0-.552a.393.393,0,0,1,.241.462c.3-.1.131.341.411.281C374.837,655.579,374.456,655.428,374.426,655.669Zm-.16-4.886c-.01-.271.331-.281.411-.181A.373.373,0,0,1,374.265,650.783Zm.813-2.669c.311-.151-.522.271,0,0Zm-.08,2.95c.01-.07.08-.09.08-.181a.262.262,0,0,1,.161.281C375.108,651.184,375.1,651.074,375,651.064Zm.732-4.786c-.2.3-.391-.25,0,0Zm.07-1.415a.311.311,0,0,0-.13.061v.11a.1.1,0,0,1-.09.11h-.01a.117.117,0,0,1-.1-.1v-.221l.02-.03a.493.493,0,0,1,.241-.14.1.1,0,0,1,.131.07A.111.111,0,0,1,375.8,644.863Zm.341,4.666a.22.22,0,0,1-.06-.041,1.141,1.141,0,0,1-.11-.06.093.093,0,0,1-.02-.12.071.071,0,0,1,.11-.02.369.369,0,0,0,.09.051.61.61,0,0,1,.07.04.09.09,0,0,1,.03.12.075.075,0,0,1-.07.05C376.161,649.539,376.151,649.539,376.141,649.529Zm-.11-4.084a.15.15,0,0,1,.1-.171.138.138,0,0,1,.151.111,2.4,2.4,0,0,1,.03.391.142.142,0,0,1-.13.14h0a.137.137,0,0,1-.121-.15A3.194,3.194,0,0,0,376.031,645.445Zm.18,8.749v-.18a.335.335,0,0,0,.251.09C376.412,654.295,376.332,654.295,376.212,654.194Zm.411-6.441c-.18.02-.261-.07-.241-.281C376.563,647.461,376.633,647.552,376.623,647.753Zm.371-2.518a1.263,1.263,0,0,0-.381.06l-.05.01-.04-.03a.91.91,0,0,1-.1-.1c-.04-.04-.08-.08-.1-.08a.1.1,0,0,1-.09-.11.1.1,0,0,1,.1-.1.316.316,0,0,1,.221.141c.01.02.03.03.05.05a1.581,1.581,0,0,1,.371-.05.11.11,0,0,1,.1.11A.085.085,0,0,1,376.994,645.234Zm.321-2.328h-.01a.571.571,0,0,1-.261-.1.1.1,0,0,1-.03-.1.061.061,0,0,1,.09-.03.459.459,0,0,0,.221.081.076.076,0,0,1-.01.15Zm1.3,7.395a1.745,1.745,0,0,1-.241.03h-.01a.779.779,0,0,1-.351.221c-.07.03-.131.05-.191.08-.01.01-.02.01-.04.01s-.05-.01-.07-.05a.081.081,0,0,1,.03-.11,1.456,1.456,0,0,1,.22-.1.635.635,0,0,0,.271-.151h0a1.967,1.967,0,0,0-.18-.15.126.126,0,0,1-.03-.161.092.092,0,0,1,.14-.03,1.536,1.536,0,0,1,.2.17,1.568,1.568,0,0,0,.2-.02.126.126,0,0,1,.14.12A.1.1,0,0,1,378.62,650.3Zm-.371-4.114a.061.061,0,0,1,0,.08.037.037,0,0,1-.03.01.04.04,0,0,1-.04-.02.532.532,0,0,1-.181-.421c.01-.03.03-.05.06-.04a.067.067,0,0,1,.04.07C378.078,645.947,378.128,646.057,378.248,646.187Zm-.08,3.04a.617.617,0,0,1-.241.181C377.717,649.368,378.058,649.207,378.168,649.227Zm-.241-3.5c-.12-.08-.12-.291-.161-.462C377.857,645.415,378.078,645.555,377.927,645.726Zm.893-1.565c-.141-.02-.191-.161-.161-.371-.07-.02-.08.04-.08.09C378.339,643.518,379.152,643.819,378.82,644.161Zm.482,2.97a.036.036,0,0,1-.03-.01.076.076,0,0,1-.02-.09.347.347,0,0,0-.04-.3.074.074,0,0,1,.01-.09.061.061,0,0,1,.08.01.474.474,0,0,1,.04.442A.043.043,0,0,1,379.3,647.131Zm.492,2.337c0,.02-.02.031-.04.031h-.01a.609.609,0,0,1-.14-.07l-.03-.03a.037.037,0,0,1-.01-.06.048.048,0,0,1,.06-.02.146.146,0,0,0,.04.031.312.312,0,0,0,.11.06A.083.083,0,0,1,379.794,649.468Zm-.221-.552a.136.136,0,0,1-.06.02.111.111,0,0,1-.1-.06.131.131,0,0,1,.04-.181c.18-.13.2-.241.19-.3h-.01c-.231-.141-.05-.351-.241-.642.171-.04.211.07.331.09a.391.391,0,0,1,0-.461c.19.1.221-.02.411.18a2.2,2.2,0,0,1-.241.833h0A.683.683,0,0,1,379.573,648.916Zm.632.211c-.331-.241-.221-.662.241-.461C380.486,648.957,380.225,648.916,380.205,649.127Zm1.866-3.863s-.13-.11-.161-.1a3.7,3.7,0,0,1,.08.923c-.18-.02-.261.07-.241.281-.422.01-.813-.01-.813-.461a6.846,6.846,0,0,1-1.244.5c-.02.02-.03.04-.06.051a4.028,4.028,0,0,1-.452.14h-.03a.169.169,0,0,1-.151-.14.172.172,0,0,1,.12-.2,2.21,2.21,0,0,0,.341-.1c-.03-.211.09-.251.06-.351h-.01a.592.592,0,0,0-.2-.07.1.1,0,0,1-.05.04h-.03a.12.12,0,0,1-.12-.11c-.02-.1-.03-.191-.04-.281l-.01-.06a.139.139,0,0,1,.11-.161.134.134,0,0,1,.14.13v.07a1.53,1.53,0,0,0,.03.191.856.856,0,0,1,.211.07c-.11-.833.361-1.384-.241-1.927-.582.171-.522-.381-.973-.371.1-.422.542-.462.331-1.014a1.919,1.919,0,0,0,1.214.643,1.54,1.54,0,0,0,.08.641c.642-.211.331.662.652.833.341-.341-.321-1.154.411-1.285.1.321.371.432.492.733.321-.061.612-.241.893-.09C382.272,644.291,382.172,644.853,382.071,645.264Zm-2.448-8.609a.29.29,0,0,1,.19-.251c.07-.04.12-.07.131-.13a.057.057,0,0,1,.07-.04.067.067,0,0,1,.04.07.36.36,0,0,1-.191.211c-.08.041-.13.081-.14.151a.065.065,0,0,1-.05.06h0C379.643,636.716,379.613,636.685,379.623,636.656Zm1.234,4.284c.191-.03.091.271.241.281-.07.16-.331.12-.241.461-.231.01-.231-.231-.251-.461C380.687,641.12,380.907,641.191,380.857,640.94Zm.562.733c-.191.04-.181-.17-.4-.09a.386.386,0,0,1,.492-.281C381.52,641.472,381.4,641.5,381.419,641.672Zm.732,1.475c-.241-.1.1-.3.241-.271C382.422,643.087,382.162,642.977,382.151,643.147Zm.9-2.719a1.2,1.2,0,0,0-.321.411,1.964,1.964,0,0,1-.271.371l.02.01c-.14.271-.431-.05-.652,0-.04-.191.05-.241.08-.371-.341.271-.462-.692-.19-.983a1.61,1.61,0,0,1,.1-.181.105.105,0,0,1,.151-.04.138.138,0,0,1,.03.171c-.04.07-.08.14-.11.2l.02.01a.408.408,0,0,1,.251.462c.07.02.08-.041.08-.091.191.03-.09.251-.08.371.17-.03.1.221.211.271a1.575,1.575,0,0,0,.211-.3,1.412,1.412,0,0,1,.381-.462.09.09,0,0,1,.131.031A.1.1,0,0,1,383.054,640.428Zm.151-11.729c-.04-.4.221-.121.241-.281C383.677,628.508,383.416,628.8,383.205,628.7Zm.973,11.8a.107.107,0,0,1-.02-.12.528.528,0,0,0,.13-.261.377.377,0,0,0-.14-.111.551.551,0,0,0-.13.07.366.366,0,0,0,.02.141.081.081,0,0,1-.04.11.069.069,0,0,1-.1-.051.615.615,0,0,1-.03-.25v-.05l.03-.03a1.5,1.5,0,0,1,.221-.12h.04a.534.534,0,0,1,.241.161l.03.031.01.019c.04.161-.07.3-.151.432a.083.083,0,0,1-.07.04C384.208,640.519,384.2,640.519,384.178,640.5Zm.291.17h-.161a.047.047,0,0,1-.05-.05.056.056,0,0,1,.05-.06h.161c.03,0,.05.02.05.06A.047.047,0,0,1,384.469,640.669Zm.773-6.993c-.151.171-.151-.06-.412,0-.01-.17.1-.2.08-.371C385.1,633.335,385.3,633.364,385.242,633.675Zm.572.271c-.251-.121-.04-.191-.161-.462C385.924,633.384,385.774,633.766,385.814,633.947Zm2.849-2.4c-.692-.06-.351-1.2.241-1.1.2.111-.2.381.16.371A.673.673,0,0,0,388.663,631.549Zm1.294-2.388c-.121-.08-.261-.14-.241-.371C389.928,628.759,389.988,628.92,389.958,629.161Zm.572-6.692a.579.579,0,0,1-.08.13l-.03.05a.151.151,0,0,1-.11.07.109.109,0,0,1-.07-.03.167.167,0,0,1-.04-.211l.04-.061a.4.4,0,0,0,.05-.09.127.127,0,0,1,.181-.06A.153.153,0,0,1,390.53,622.468Zm.492-9.873c.08-.281.211.11.321.091C391.322,612.906,391.122,612.575,391.021,612.6Zm2.358,8.469c.02-.16.14-.211.321-.18C393.78,621.154,393.519,621.044,393.379,621.064Zm6.181-15.653c-.12-.08-.261-.14-.241-.371h.321C399.67,605.241,399.58,605.291,399.56,605.411Zm7.966-11.689c-.03-.321.421-.331.572-.181C407.988,593.562,407.907,593.782,407.526,593.722Zm1.064.652c-.191-.1.16-.652.321-.371C408.951,594.294,408.509,594.033,408.59,594.374Zm.15-4.886h.01v.02a.541.541,0,0,1,.07.171.362.362,0,0,1,.01.18,1.1,1.1,0,0,0-.01-.18c-.02-.03-.05-.03-.07-.171a.036.036,0,0,1-.01-.02c-.02,0-.07.01-.07,0C408.64,589.4,408.68,589.418,408.74,589.488Zm.09,5.157v-.181c.07.02.07-.04.08-.09.08,0,.06.111.08.181.07-.04.151-.08.161-.181C409.433,594.545,409.061,594.746,408.831,594.645Zm.7-.17h0c-.04,0-.06-.021-.06-.05a.756.756,0,0,0-.05-.161.575.575,0,0,1-.05-.14l-.03-.01a.063.063,0,0,1-.03-.08.055.055,0,0,1,.07-.03l.08.04.01.031a.876.876,0,0,0,.05.15.943.943,0,0,1,.06.2A.054.054,0,0,1,409.533,594.475Zm.592-1.576c.171-.04.221.06.321.09C410.446,593.261,410.075,593.21,410.125,592.9Zm1.4-6.331c-.471.271-.923.572-1.364.883-.2.151-.4.311-.6.462.02-.02.02-.02,0-.02a2.805,2.805,0,0,0-.522.321c-.2.131-.4.251-.592.381.05.1.191.2.141.422-.08-.02-.191-.2-.231-.361a33.714,33.714,0,0,0-7.385,7,77.691,77.691,0,0,0-7.094,10.716c-1.084,1.936-2.107,3.9-3.1,5.89a.115.115,0,0,0,.08.03.353.353,0,0,1-.181.161c-.983,1.966-1.926,3.953-2.85,5.94-.913,1.946-1.8,3.9-2.689,5.869a.473.473,0,0,1,.351.1c0,.18-.221.11-.161.371-.11-.15-.251-.12-.321-.161q-1.475,3.281-2.96,6.552c-1.866,4.1-3.763,8.2-5.819,12.211-.823,1.605-1.676,3.2-2.579,4.776h.13l.03-.02v-.01a.076.076,0,0,1,.04-.09.057.057,0,0,1,.07.041.631.631,0,0,1,.02.07h0c-.01-.391.18-.06.241,0-.01.09-.1.1-.2.09a.874.874,0,0,0,.05.1.079.079,0,0,1-.02.1.036.036,0,0,1-.03.01.055.055,0,0,1-.05-.03.563.563,0,0,1-.04-.07l-.03-.01c.01.212-.141.271-.08.552-.331-.04-.221-.361-.171-.662-.261.452-.512.893-.782,1.335l.04-.051a.079.079,0,0,1,.11,0,.106.106,0,0,1,0,.131l-.221.251.05.009c.08.411.231.552,0,.923-.251.07-.311-.07-.4-.171-.02.011-.04.011-.06.02-.04.01-.08.021-.11.031h-.04l-.03-.04c-.672,1.083-1.365,2.157-2.1,3.2-.271.381-.542.763-.813,1.133-.13.181-.261.351-.391.522l-.01.01c-.05.06-.11.131-.151.191-.482.6-.973,1.184-1.485,1.756a29.168,29.168,0,0,1-3.06,2.94c-.12.09-.582.452-.772.582q-.467.316-.933.6c-.572.342-1.194.593-1.786.914-.131.05-.251.09-.381.14-.331.11-.662.211-1,.3s-.662.15-.993.21l-.291.03a13.474,13.474,0,0,1-2.107,0l-.281-.03a.058.058,0,0,1-.04-.01,11.274,11.274,0,0,1-1.134-.241,16.268,16.268,0,0,1-2.057-.662c.06.03.121.06.151.08a2.137,2.137,0,0,0-.271-.12c-.01-.01-.02-.01-.04-.02s-.05-.02-.08-.03c-.271-.111-.181-.08-.02-.01-.17-.08-.331-.15-.492-.23-.411-.2-.823-.411-1.224-.642a24.889,24.889,0,0,1-2.488-1.585c-.5-.362-1-.743-1.495-1.124.04.03.09.07.151.12-.111-.09-.221-.171-.331-.261l-.01-.01c-.09-.07-.161-.12-.131-.1-.211-.17-.431-.341-.642-.512-2.087-1.666-4.1-3.4-6.07-5.207l-.331-.3c-.02.01-.03.02-.05.02a.361.361,0,0,0-.09.05v.041a.093.093,0,0,1-.091.1h0a.1.1,0,0,1-.09-.111l.01-.11a.232.232,0,0,1,.15-.141,136.151,136.151,0,0,1-10.1-10.455.363.363,0,0,1-.271.221.307.307,0,0,0-.151.08.078.078,0,0,1-.13.01.109.109,0,0,1-.01-.15.378.378,0,0,1,.241-.141c.09-.03.131-.05.151-.09a.184.184,0,0,1,.05-.071c-.2-.23-.4-.461-.592-.692-.09.231-.391.431-.381.01a.454.454,0,0,1,.3-.1c-.181-.211-.361-.422-.532-.632-.341-.4-.682-.813-1.013-1.224-.08.071-.271.141-.211.031a.41.41,0,0,1,.151-.111c-.161-.2-.321-.4-.492-.6-.04.03-.06.01-.07-.08-.151-.181-.3-.371-.442-.552-.411.15-.522.642-.833.893a.411.411,0,0,1-.341.171.634.634,0,0,1-.191-.03l-.02-.011-.02-.02a1.65,1.65,0,0,1-.09-.14v.01c-.331-.151.261-.632.411-1.1a5.813,5.813,0,0,1,.251-.843c-.261-.331-.742-.963-.161-.2-.231-.311-.471-.622-.712-.923-.432-.572-.863-1.154-1.295-1.736q-2.619-3.582-4.956-7.345c-.693-1.113-1.365-2.247-2.007-3.381h-.221c-.07-.191.03-.181.12-.181-.281-.491-.552-.983-.823-1.485a1.027,1.027,0,0,1-.11.291l.01.04a.792.792,0,0,1-.141.552.418.418,0,0,1-.331.17h-.02l-.04-.01-.12-.06-.03-.02-.02-.03a.835.835,0,0,1-.08-.281.392.392,0,0,1-.291-.451c.13-.151.15,0,.311.01a.465.465,0,0,1,.622-.04.566.566,0,0,0,.08-.361.128.128,0,0,1,.01-.06c-.4-.743-.793-1.485-1.164-2.238-.441-.873-.863-1.746-1.264-2.639h-.01a.127.127,0,0,1-.12-.14.141.141,0,0,1,.03-.091c-.151-.331-.3-.652-.441-.983-.06-.141-.121-.281-.191-.432-.02-.04-.07-.17-.12-.271a.034.034,0,0,0-.01-.02c-.06-.15-.13-.311-.191-.462a.01.01,0,0,0-.01.01c-.01.04-.02.08-.03.13a1.558,1.558,0,0,1-.05.231.107.107,0,0,1-.091.07.037.037,0,0,1-.03-.01.112.112,0,0,1-.06-.141c.02-.07.03-.14.05-.21a.5.5,0,0,0,.02-.12l-.12-.141a.119.119,0,0,1-.141-.09,1.654,1.654,0,0,0-.08.923c-.14-.13-.813.15-1.063-.09.13-.482-.231-.351-.241-1.014.08,0,.06.111.08.181.08,0,.07-.111.08-.181.1-.02.131.02.151.09-.03-.471.441-.723.662-1.094h.3l-.211-.572a59.067,59.067,0,0,1-2.257-7.575c-.13-.6-.261-1.214-.371-1.816a12.4,12.4,0,0,0-.291-1.846,1.371,1.371,0,0,1-.02-.2c-.04-.321-.07-.642-.1-.964q-.09-.918-.12-1.836c-.02-.4-.02-.8-.03-1.2a.929.929,0,0,0-.391-.09c-.02-.362.351-.281.331-.642.02.01.04.01.06.02.01-.542.02-1.084.05-1.636.03-.511.07-1.023.131-1.525a1.913,1.913,0,0,1,.04-.361.059.059,0,0,1,.01-.04l.03-.241c-.01.07-.01.13-.02.191.04-.271.08-.542.13-.813a27.093,27.093,0,0,1,.813-3.341q.256-.842.572-1.656c.08-.221.19-.432.271-.652.05-.1.09-.2.14-.311a26.056,26.056,0,0,1,1.686-3.07c.331-.512.672-1.014,1.033-1.505.03-.04.09-.11.141-.181q.286-.361.6-.722c.462-.542.953-1.063,1.455-1.575a.973.973,0,0,0-.05-.16c.311.08.291-.221.482-.271.271-.261.532-.512.813-.762.482-.441.973-.863,1.485-1.264a1.048,1.048,0,0,0,.12-.1c.05-.03.09-.07.14-.1.291-.221.592-.431.893-.642a43,43,0,0,1,3.773-2.358c.582-.321,1.164-.632,1.766-.9l.02-.01a1.043,1.043,0,0,1,.19-.07c.311-.12.632-.231.943-.341a24.234,24.234,0,0,1,3.853-.913c.11-.01.221-.031.321-.04q.542-.06,1.084-.09c.682-.04,1.365-.06,2.037-.06.722,0,1.435.04,2.147.09.351.03.693.06,1.044.1.04,0,.07.01.11.01.1.02.211.03.311.051a30.444,30.444,0,0,1,4.234.973c.712.221,1.414.462,2.107.733.13.05.261.1.391.16.351.16.692.311,1.033.481a27.585,27.585,0,0,1,3.783,2.238c.151.1.291.211.432.321.271.221.542.442.8.662.572.491,1.114,1.013,1.636,1.555.221.231.431.461.642.7h.02a.1.1,0,0,1,.11.07.087.087,0,0,1-.01.07c.1.121.2.231.3.351.06.071.221.271.3.371.01.01.02.03.03.03.121.16.231.321.341.481.231.331.452.672.662,1.014.11.181.221.361.321.542a.684.684,0,0,0,.211-.4.789.789,0,0,1,.06.863c1.475,2.6,2.629,5.338,4.545,7.685a10.373,10.373,0,0,0,3.943,2.95h.01a.827.827,0,0,1,.171-.06c.03-.01.07.02.08.06a.084.084,0,0,1-.05.1c.11.05.231.09.341.14a4.938,4.938,0,0,0,.692.2c-.12-.07-.291-.2-.361-.231.08-.261.341.03.481,0,0,.09-.1.07-.161.09,0,.091.1.071.161.091.01.04.02.06.01.08a7.653,7.653,0,0,0,5.007-.993c2.85-1.625,4.8-4.656,6.271-7.495.682-1.3,1.3-2.619,2.107-3.853.331-.521.692-1.033,1.063-1.535.04-.05.08-.111.12-.16.191-.241.391-.472.582-.712a27.537,27.537,0,0,1,2.558-2.629c.2-.18.4-.351.612-.532a2.014,2.014,0,0,1-.2-.281c-.01-.01-.01-.02-.02-.03v-.01a.433.433,0,0,1-.04-.07.427.427,0,0,0-.05-.07.126.126,0,0,1,.02-.171.1.1,0,0,1,.151.02,1.3,1.3,0,0,1,.1.151l.02-.03a2.646,2.646,0,0,0,.933-.251c.231-.17.472-.341.7-.5a29.188,29.188,0,0,1,3.05-1.836c.532-.271,1.064-.532,1.605-.772a1.187,1.187,0,0,1,.171-.071c.241-.1.482-.191.722-.281a30.377,30.377,0,0,1,3.331-1.034c.562-.14,1.134-.261,1.706-.361.281-.051.572-.1.863-.14a.088.088,0,0,0,.05-.01h.01a31.294,31.294,0,0,1,6.572.02l.191.03c.281.05.552.1.823.151q.828.165,1.625.391c.522.14,1.044.311,1.565.492.261.09.522.191.783.291.04.02.09.03.13.05a23.012,23.012,0,0,1,2.819,1.505c.432.271.853.572,1.264.873a1.376,1.376,0,0,0,.13.1c.221.181.432.361.642.542a20.519,20.519,0,0,1,2.328,2.438c.01.01.02.03.03.04s.02.03.03.04c.171.241.341.472.512.722.331.482.632.984.923,1.495.3.532.582,1.084.833,1.646l.12.271c.1.251.191.492.291.743a26.082,26.082,0,0,1,1.054,3.783c-.472.12-.933.261-1.395.411A15.97,15.97,0,0,0,411.53,586.568Zm11.047,7.706c-.261.08-.11-.3-.321-.271-.04.13-.121.231-.16.371-.221.07-.161-.181-.321-.19a1.8,1.8,0,0,0-.412.371v-.01a.377.377,0,0,1-.16.191c-.01,0-.02.01-.03.01a.094.094,0,0,1-.08-.06.1.1,0,0,1,.05-.13.3.3,0,0,0,.1-.15l.01-.02-.04-.01c-.131-.131.01-.211,0-.552.3.311.3-.271.491-.371.251,0,.191.331.482.281v-.281c.361-.01.532.191.572.552C422.406,593.883,422.516,593.973,422.577,594.274Zm.08-2.669c.01-.13.01-.261-.08-.271.01-.23.271-.181.492-.181C422.918,591.294,422.9,591.575,422.657,591.605Zm2.568-5.3h-.02a.5.5,0,0,1-.12-.02.473.473,0,0,1-.391.081c-.1-.231.04-.291-.081-.372.081-.12.221-.18.241-.371.191.06.412.281.241.461l-.01.02h.01a.137.137,0,0,0,.12.03.085.085,0,0,1,.08.071A.092.092,0,0,1,425.225,586.307Zm2.227,2.91h-.241v-.181h.241Zm-.732-2.117c-.3.04-.371-.191-.492-.371l.01-.01h-.05l-.01-.011a.66.66,0,0,1-.3-.411.393.393,0,0,1,.07-.331l.01-.02.03-.01a.9.9,0,0,1,.251-.02h.01l-.01-.02c.431-.4.773.08,1.214.181C427.533,586.8,426.7,586.458,426.72,587.1Zm2.037,2.3c-.261.08-.171-.241-.331-.281.01-.231.271-.031.331,0Zm11.1,6.121a1.059,1.059,0,0,1,.211.171C439.945,595.6,439.824,595.508,439.854,595.518Zm5.98,7.435h0a.583.583,0,0,0-.04-.08C445.624,602.461,445.634,602.492,445.834,602.953Zm-22.726,32.5a.932.932,0,0,0-.06.792.118.118,0,0,1-.06.16.061.061,0,0,1-.04.01.115.115,0,0,1-.1-.08,1.193,1.193,0,0,1,.1-1.053.1.1,0,0,1,.151-.01A.17.17,0,0,1,423.108,635.452Zm6.562-3.913c-.04,0,.15-.02.321-.04A1.87,1.87,0,0,1,429.67,631.539Zm17.448-18.733a2.337,2.337,0,0,1-.03.291C447.068,613.117,447.1,612.956,447.118,612.806Zm.03-.191q-.015.091-.03.181C447.149,612.605,447.179,612.425,447.149,612.615Z" transform="translate(-300.376 -526)" fill="#fff"/>
        <path id="Path_11849" data-name="Path 11849" d="M955.006,780.1c-.562.612-.161.21,0,0Z" transform="translate(-889.063 -722.06)" fill="#fff"/>
        <path id="Path_11872" data-name="Path 11872" d="M1031.8,371.3a.56.56,0,0,0,.04.141c.029-.02.06-.06.1-.07a.713.713,0,0,0,.03-.171.531.531,0,0,0-.17.1Z" transform="translate(-958.412 -354.187)" fill="#fff"/>
        <path id="Path_11873" data-name="Path 11873" d="M853.366,203.993a3.329,3.329,0,0,0,2.267,3.993c.3.11.592.221.884.331.15.06.3.12.441.181l.3.12c-.161-.07-.321-.13-.482-.2a13.968,13.968,0,0,1,1.756.823c.572.291,1.144.6,1.7.943.271.171.542.341.8.522l.391.271a.148.148,0,0,0,.04.03c.432.361.854.733,1.254,1.134.192.2.372.4.552.612.06.08.121.171.181.261a8.757,8.757,0,0,1,.462.773,3.5,3.5,0,0,1,.171.341,5.347,5.347,0,0,1,.371,2.89,10.852,10.852,0,0,1-.341,1.365c-.04.13-.091.251-.131.381-.17.251-.271.592-.421.853-.161.291-.341.582-.522.863-.07.1-.13.191-.2.291a14.157,14.157,0,0,1-1.3,1.385c-.22.211-.451.411-.682.6l-.21.18c-.542.381-1.083.763-1.655,1.1-1.1.662-2.258,1.2-3.422,1.756a17.047,17.047,0,0,0-3.792,2.368,10.87,10.87,0,0,0-3.371,6.421,1.249,1.249,0,0,1,.2-.191c.02.131.151.211.16.552a.965.965,0,0,1-.381-.171,12.524,12.524,0,0,0-.01,2.94h0a.23.23,0,0,1,.311-.06.093.093,0,0,1,.02.11.065.065,0,0,1-.09.02.125.125,0,0,0-.121.03.161.161,0,0,0,.051.09c.029.02.05,0,.06,0a.056.056,0,0,1,.09,0,.079.079,0,0,1,0,.11.173.173,0,0,1-.121.06.2.2,0,0,1-.1-.03.232.232,0,0,1-.07-.07c.01.07.02.141.03.221h.01v.04a11.043,11.043,0,0,0,.662,2.438,18.688,18.688,0,0,0,6.5,8.057,3.23,3.23,0,0,0,4.436-1.164,3.253,3.253,0,0,0,.331-2.5,3.635,3.635,0,0,0-1.324-1.806c.02.02.04.03.06.05l-.281-.221c-.141-.11-.271-.231-.411-.341-.181-.151-.352-.311-.522-.472a.077.077,0,0,0-.02.04v.08h-.1v-.111a.6.6,0,0,1,.04-.08c-.11-.1-.22-.2-.321-.311-.291-.291-.582-.6-.853-.913-.03-.03-.11-.141-.19-.241s-.141-.2-.171-.231c-.232-.341-.452-.692-.653-1.054-.09-.151-.17-.311-.25-.472a3.1,3.1,0,0,1-.13-.311,14.344,14.344,0,0,1-.441-1.6,8.9,8.9,0,0,1-.021-1.164c-.01,0-.02-.01-.03-.01-.01-.08.01-.09.03-.09a2.13,2.13,0,0,1,.021-.261c.029-.151.06-.311.1-.462l-.06-.06-.011.04c.011.111-.02.161-.08.181h-.03a.394.394,0,0,1,.01.221l-.01.03-.08.04c-.01,0-.01.01-.02.01s-.031-.01-.04-.04a.052.052,0,0,1,.031-.07l.03-.02a.27.27,0,0,0-.01-.09.355.355,0,0,0-.211-.07V234.9a.411.411,0,0,1,.331-.09l.04.04a1.008,1.008,0,0,0,.081-.211.1.1,0,0,1,.11-.07.115.115,0,0,1,.05.05.4.4,0,0,0,.02-.07,1.306,1.306,0,0,1,.081-.211l.081-.16a4.885,4.885,0,0,1,.291-.5c.01-.01.06-.09.11-.171.05-.05.091-.11.141-.16.121-.13.251-.261.381-.381.03-.03.1-.08.161-.14s.151-.111.181-.131c.18-.12.36-.231.542-.341.662-.391,1.355-.723,2.046-1.044.141-.06.281-.131.412-.2,0-.06-.01-.13-.01-.191.03,0,.091.07.12.141.161-.08.311-.151.472-.231a.41.41,0,0,0-.1-.09h-.05a.093.093,0,0,1-.091-.1.1.1,0,0,1,.08-.1h.09l.02.01a.481.481,0,0,1,.2.2,22.163,22.163,0,0,0,6.953-5.077,17.527,17.527,0,0,0,1.114-1.435.175.175,0,0,1,.08-.12,13.34,13.34,0,0,0,2.569-8.679,12.966,12.966,0,0,0-4.425-8.589,28.256,28.256,0,0,0-9.171-5.077,3.25,3.25,0,0,0-2.5.331A3.132,3.132,0,0,0,853.366,203.993Zm5.137,43.355c-.191.3-.331-.321,0,0Zm-.251.09c.161.311-.361.3-.08.461-.131.171-.512-.15-.492-.461C857.87,247.227,858,247.478,858.251,247.438Zm-3.01-8.85c-.071-.171-.1-.281,0,0Zm-2.027-.813c-.11-.06.04-.251-.081-.462C853.425,237.234,853.275,237.716,853.215,237.776ZM852,235.94c-.04.11-.1.19-.241.18C851.71,235.92,851.87,235.95,852,235.94Zm-1.144-1.475v.462c-.1-.1-.171-.08-.161.09a.326.326,0,0,0-.241-.09A.459.459,0,0,1,850.857,234.465Zm-.241,3.963c.019-.371.331-.4.572-.281C851.118,238.388,850.917,238.468,850.617,238.428Zm1.905,2.288a1.45,1.45,0,0,0-.6.08c.01.241.29.181.25.482l-.05-.02a.537.537,0,0,1,.02.2v.03l-.02.02a.406.406,0,0,1-.261.07h-.06c-.03,0-.06-.04-.06-.08a.069.069,0,0,1,.07-.07.447.447,0,0,0,.211-.03.105.105,0,0,0-.01-.05v.01c-.241-.231-.561-.06-.813-.181v-.371c.251.05.291-.171.572-.09l.01.01.02-.08.04-.01a1.853,1.853,0,0,1,.713-.1.069.069,0,0,1,.06.09C852.593,240.686,852.553,240.716,852.522,240.716Zm.773,4.605h-.241c.01-.11-.02-.171-.08-.18.02-.1.08-.05.08,0,.151.01.171-.11.321-.09A.5.5,0,0,0,853.3,245.321Zm.161-15.642c-.231-.05.12-.141.08-.281C853.807,229.5,853.445,229.589,853.456,229.679Zm.572.732c-.251.11-.2-.141-.322-.181C853.756,230.01,854.118,230.181,854.028,230.411Zm.411-.462c-.071-.3.211-.191.241-.371C854.86,229.649,854.68,230.07,854.439,229.95Zm.321,4.234c.281.241-.421.231,0,0Zm.321-5.147a.246.246,0,0,1,.161.271A.26.26,0,0,1,855.081,229.037Zm.632,4.284c.04-.06.07-.1.07-.1S855.763,233.261,855.713,233.321Zm.833-2.719c.1.411-.312-.171-.241-.281.02-.1.16-.06.16-.181.091.02.051.181.161.181C856.586,230.4,856.4,230.853,856.546,230.6Zm.461.642a1.109,1.109,0,0,1-.141.271.108.108,0,0,1-.07.03.132.132,0,0,1-.08-.03.134.134,0,0,1,0-.171.378.378,0,0,0,.08-.141l-.01-.03a1,1,0,0,1-.06-.231.135.135,0,0,1,.08-.14.1.1,0,0,1,.121.09.761.761,0,0,0,.06.2l.03.11Zm-.211-.833c.05-.09.191-.09.161-.281C857.218,230.191,857.077,230.492,856.8,230.411Zm4.224-3.492c-.352.03-.311-.231-.241-.462A.393.393,0,0,1,861.021,226.92Zm.211-.01a.747.747,0,0,1-.091-.291.446.446,0,0,0-.081-.221.123.123,0,0,1,.01-.161.1.1,0,0,1,.151.01.7.7,0,0,1,.121.331.531.531,0,0,0,.05.18l.03.01a.123.123,0,0,1,.06.151.1.1,0,0,1-.1.08.037.037,0,0,1-.03-.01l-.1-.04Zm.682,1.936a.927.927,0,0,1-.653-.823C861.723,227.712,862.054,228.515,861.914,228.846Zm.251-4.505a.23.23,0,0,1,.4.181C862.416,224.482,862.074,224.652,862.165,224.341Zm6.11-3.783c.03-.02.05-.03.06-.05a.044.044,0,0,1,.061-.04.067.067,0,0,1,.04.07.168.168,0,0,1-.111.13h-.02a.055.055,0,0,1-.05-.03A.078.078,0,0,1,868.275,220.558Zm-.993-2.017c.07.191.351.161.321.462-.12-.01-.23-.01-.241.09C867.182,219.083,867.332,218.7,867.282,218.542Zm-3.03,9.02h-.02c-.021,0-.03-.01-.041-.03a.537.537,0,0,0-.16-.191c-.011,0-.011-.01-.02-.01l.009.05c-.07.06-.14.11-.16,0-.12.04.031.12,0,.281-.1-.01-.15.02-.16.09a.468.468,0,0,1-.4-.462c.1-.311.7-.371.813,0a.521.521,0,0,1,.161.211A.048.048,0,0,1,864.252,227.562Zm2.518-2.077a.079.079,0,0,1-.091-.07.15.15,0,0,0-.03-.06.076.076,0,0,0-.05-.01.515.515,0,0,0-.02.12q-.015.09-.031.151a.073.073,0,0,1-.07.05.062.062,0,0,1-.04-.01.11.11,0,0,1-.04-.121.517.517,0,0,0,.02-.1,1.439,1.439,0,0,1,.04-.2l.011-.05.04-.01a.214.214,0,0,1,.211.02.261.261,0,0,1,.1.171C866.84,225.425,866.82,225.475,866.77,225.485Zm-.462-6.963a1.578,1.578,0,0,0,.232.01h.04c.1-.07.271-.181.391-.12l.04.03a.481.481,0,0,1,.02.492l-.02.05a.114.114,0,0,1-.07.08l.01.02v.371c-.211.02-.251-.14-.331-.281l.051-.04a.609.609,0,0,1-.161-.321,1.856,1.856,0,0,1-.251-.01.139.139,0,0,1-.109-.161C866.178,218.572,866.238,218.511,866.308,218.522Zm-.612,5.97a.166.166,0,0,0,.061-.06l.01-.05.04-.01a.416.416,0,0,1,.341.09.091.091,0,0,1,.02.111.063.063,0,0,1-.1.02.345.345,0,0,0-.19-.07.952.952,0,0,1-.091.1c-.03.02-.04.03-.04.04.02.01.04.01.06.02a.079.079,0,0,1,.051.1.067.067,0,0,1-.071.06h-.01a.285.285,0,0,1-.141-.06l-.02-.03A.2.2,0,0,1,865.7,224.492Zm-1.424-14.779c-.081.1-.151.03-.4.09C863.88,209.562,864.171,209.582,864.272,209.712Zm-2.679-5.9a.815.815,0,0,1,.331.732c-.251.151-.552.4-.893.181A.608.608,0,0,1,861.593,203.813Zm-6.18.371c.11.03.13.16.241.18C855.622,204.6,855.341,204.374,855.413,204.184Z" transform="translate(-793.314 -201.639)" fill="#fff"/>
      </g>
      <g id="Group_5930" data-name="Group 5930" transform="translate(282.459 328.645)">
        <path id="Path_11874" data-name="Path 11874" d="M9.27,34.213a3.466,3.466,0,0,1,2.049,1.006,2.878,2.878,0,0,1,.827,2.11h0a3.066,3.066,0,0,1-.747,2.082,4.562,4.562,0,0,1-2,1.307,8.162,8.162,0,0,1-2.745.447h0a6.872,6.872,0,0,1-3.92-.912A2.7,2.7,0,0,1,1.43,37.978h0a1.835,1.835,0,0,1,.381-1.236A1.3,1.3,0,0,1,2.845,36.3h0a1.135,1.135,0,0,1,.827.273,2.257,2.257,0,0,1,.465.949h0a1.606,1.606,0,0,0,.7.982,3.116,3.116,0,0,0,1.631.334h0A3.45,3.45,0,0,0,8.2,38.443a1.307,1.307,0,0,0,.682-1.213h0A1.339,1.339,0,0,0,8.236,36a4.28,4.28,0,0,0-2.012-.447h0a.963.963,0,0,1-.757-.348,1.223,1.223,0,0,1-.249-.776h0a1.324,1.324,0,0,1,.2-.827,1.136,1.136,0,0,1,.705-.348h0a4.126,4.126,0,0,0,2.289-.926,2.193,2.193,0,0,0,.71-1.64h0q0-1.316-1.824-1.316h0q-2.012,0-2.374,1.579h0a1.757,1.757,0,0,1-.489.926,1.354,1.354,0,0,1-.9.273h0a1.3,1.3,0,0,1-1-.371,1.392,1.392,0,0,1-.348-.992h0a2.927,2.927,0,0,1,.672-1.824,4.67,4.67,0,0,1,1.9-1.391,7.334,7.334,0,0,1,2.891-.526h0a5.951,5.951,0,0,1,3.525.888,3.043,3.043,0,0,1,1.222,2.637h0a3.187,3.187,0,0,1-.879,2.143,5.381,5.381,0,0,1-2.261,1.5Zm17.33-.526a.525.525,0,0,1,.479.31,1.638,1.638,0,0,1,.169.79h0q0,1.152-.7,1.368h0a10.9,10.9,0,0,1-3.168.573h0a5.942,5.942,0,0,1-1.8,3.224,4.425,4.425,0,0,1-3.046,1.213h0a4.257,4.257,0,0,1-2.458-.7,4.42,4.42,0,0,1-1.542-1.847,5.875,5.875,0,0,1-.531-2.491h0a7.307,7.307,0,0,1,.7-3.248,5.467,5.467,0,0,1,1.918-2.233,4.851,4.851,0,0,1,2.712-.8h0a3.733,3.733,0,0,1,2.933,1.255,5.4,5.4,0,0,1,1.307,3.107h0a14.329,14.329,0,0,0,2.684-.479h0a1.452,1.452,0,0,1,.338-.047Zm-7.863,4.935a1.743,1.743,0,0,0,1.33-.62,3.474,3.474,0,0,0,.757-1.8h0a3.341,3.341,0,0,1-1.142-1.316,3.929,3.929,0,0,1-.395-1.73h0a3.992,3.992,0,0,1,.075-.766h-.122a1.879,1.879,0,0,0-1.593.926,4.545,4.545,0,0,0-.635,2.6h0a3.357,3.357,0,0,0,.512,2.012,1.492,1.492,0,0,0,1.213.7Zm18.552-4.865a.879.879,0,0,1,.24-.023h0a.67.67,0,0,1,.555.24,1.024,1.024,0,0,1,.188.649h0a2.032,2.032,0,0,1-.287,1.161,1.631,1.631,0,0,1-.86.611h0a7.592,7.592,0,0,1-2.35.357h0a6.747,6.747,0,0,1-1.988-.287h0q-.7,1.128-1.537,2.327h0a8.123,8.123,0,0,1-1.654,1.871,2.628,2.628,0,0,1-1.579.5h0a1.816,1.816,0,0,1-1.546-.766,4.887,4.887,0,0,1-.71-2.421h0q-.287-3.356-.287-5.875h0v-.837a1.361,1.361,0,0,1,.432-1.1,2.007,2.007,0,0,1,1.222-.31h0a1.326,1.326,0,0,1,.921.273,1.213,1.213,0,0,1,.3.926h0q0,2.754.334,7.168h0q1.443-2.134,2.157-3.408h0a3.58,3.58,0,0,1-.357-1.654h0a3.7,3.7,0,0,1,.357-1.579,3.332,3.332,0,0,1,.987-1.246,2.252,2.252,0,0,1,1.415-.479h0a1.43,1.43,0,0,1,1.123.489,2.105,2.105,0,0,1,.432,1.429h0a6.6,6.6,0,0,1-.573,2.468h0a16.817,16.817,0,0,0,2.421-.362h0ZM46.876,35.7a.554.554,0,0,1,.494.287,1.5,1.5,0,0,1,.179.794h0a2.2,2.2,0,0,1-.456,1.485h0a8.731,8.731,0,0,1-2.505,1.988,6.939,6.939,0,0,1-3.464.912h0A5.334,5.334,0,0,1,37.217,39.8a5.007,5.007,0,0,1-1.391-3.741h0a6.94,6.94,0,0,1,.7-3.079,5.712,5.712,0,0,1,1.932-2.265,4.852,4.852,0,0,1,2.792-.837h0a2.873,2.873,0,0,1,3.069,3.069h0a3.875,3.875,0,0,1-1.189,2.839,8.582,8.582,0,0,1-4.014,1.88h0a2.358,2.358,0,0,0,2.28,1.1h0a5.225,5.225,0,0,0,2.453-.757,8.017,8.017,0,0,0,2.388-1.979h0a.838.838,0,0,1,.644-.334Zm-6.04-3.473a1.764,1.764,0,0,0-1.5,1.029,4.8,4.8,0,0,0-.611,2.491h0v.047a5.447,5.447,0,0,0,2.233-1.006,1.98,1.98,0,0,0,.813-1.556h0a1.056,1.056,0,0,0-.249-.733.892.892,0,0,0-.686-.273Zm6.472,8.94a1.31,1.31,0,0,1-1.283-.959,9.2,9.2,0,0,1-.371-3.069h0a19.506,19.506,0,0,1,.888-5.922h0a1.791,1.791,0,0,1,.705-1.015,2.5,2.5,0,0,1,1.382-.324h0a1.38,1.38,0,0,1,.672.118.5.5,0,0,1,.188.456h0a9.138,9.138,0,0,1-.357,1.725h0q-.24.959-.385,1.678t-.24,1.777h0a13.668,13.668,0,0,1,1.777-3.356,6.932,6.932,0,0,1,1.927-1.847,3.527,3.527,0,0,1,1.739-.55h0a1.375,1.375,0,0,1,1.556,1.556h0a12.234,12.234,0,0,1-.212,1.513h0a8.794,8.794,0,0,0-.193,1.2h0q0,.837.6.837h0a2.875,2.875,0,0,0,1.725-1.053h0a.922.922,0,0,1,.649-.315h0a.565.565,0,0,1,.494.277,1.337,1.337,0,0,1,.179.733h0a1.927,1.927,0,0,1-.479,1.387h0a6.558,6.558,0,0,1-1.57,1.189,3.931,3.931,0,0,1-1.908.489h0a2.646,2.646,0,0,1-1.927-.644A2.35,2.35,0,0,1,52.2,35.29h0a3.754,3.754,0,0,1,.07-.719h0q.047-.479.047-.644h0q0-.385-.263-.385h0q-.357,0-.945.8a11.406,11.406,0,0,0-1.166,2.12,17.585,17.585,0,0,0-.935,2.783h0A3.727,3.727,0,0,1,48.4,40.77a1.381,1.381,0,0,1-1.09.395ZM67.923,35.7a.554.554,0,0,1,.494.287,1.5,1.5,0,0,1,.179.794h0a2.2,2.2,0,0,1-.456,1.485h0a10.15,10.15,0,0,1-2.251,2.082,4.927,4.927,0,0,1-2.806.818h0q-4.888,0-4.888-6.881h0q0-1.053.071-2.134h-.935a1.355,1.355,0,0,1-.973-.263,1.187,1.187,0,0,1-.249-.837h0q0-1.344,1.076-1.344h1.368A23.479,23.479,0,0,1,59.8,24.888a10.963,10.963,0,0,1,2.026-3.478,3.459,3.459,0,0,1,2.552-1.293h0a1.791,1.791,0,0,1,1.584.888,4.016,4.016,0,0,1,.573,2.228h0a8.393,8.393,0,0,1-3.116,6.472H66.1a.755.755,0,0,1,.55.169.865.865,0,0,1,.169.62h0q0,1.654-2.712,1.654H61.188q-.047,1.2-.047,1.871h0a7.475,7.475,0,0,0,.588,3.5,1.994,1.994,0,0,0,1.857,1.006h0a2.867,2.867,0,0,0,1.824-.625,14.432,14.432,0,0,0,1.871-1.871h0a.838.838,0,0,1,.644-.334ZM63.731,22.421q-.362,0-.8.9a13,13,0,0,0-.841,2.491,33.438,33.438,0,0,0-.658,3.535h0a8.168,8.168,0,0,0,2.12-2.74,6.64,6.64,0,0,0,.71-2.768h0q0-1.415-.526-1.415ZM79.956,35.7a.554.554,0,0,1,.494.287,1.5,1.5,0,0,1,.179.794h0a2.2,2.2,0,0,1-.456,1.485h0a12.476,12.476,0,0,1-2.265,2.082,4.482,4.482,0,0,1-2.646.818h0a2.331,2.331,0,0,1-1.847-.71,3,3,0,0,1-.625-2.049h0a14.92,14.92,0,0,1,.338-2.4h0a12.439,12.439,0,0,0,.31-2.082h0q0-.385-.263-.385h0q-.31,0-.888.8a11.842,11.842,0,0,0-1.147,2.12,16.973,16.973,0,0,0-.935,2.783h0a2.17,2.17,0,0,1-2.256,1.918h0A.921.921,0,0,1,67,40.648a5.092,5.092,0,0,1-.23-1.857h0q0-.766.024-1.222h0l.028-1.918a41.641,41.641,0,0,1,.752-7.694,23.132,23.132,0,0,1,2.233-6.726q1.471-2.721,3.535-2.721h0a2.11,2.11,0,0,1,1.786.949,4.1,4.1,0,0,1,.682,2.458h0a10.492,10.492,0,0,1-1.415,5.02,32.6,32.6,0,0,1-4.6,6.077h0q-.07,1.246-.071,2.566h0a13.68,13.68,0,0,1,1.763-3.323A6.806,6.806,0,0,1,73.4,30.425a3.5,3.5,0,0,1,1.734-.55h0a1.377,1.377,0,0,1,1.56,1.556h0a19.282,19.282,0,0,1-.526,3.379h0a16.639,16.639,0,0,0-.456,2.759h0q0,.959.7.959h0a1.868,1.868,0,0,0,1.137-.588,19.409,19.409,0,0,0,1.763-1.908h0a.838.838,0,0,1,.644-.334ZM72.84,20.884q-.432,0-.959,1.236a20.346,20.346,0,0,0-1.02,3.332,43.814,43.814,0,0,0-.8,4.564h0A17.184,17.184,0,0,0,72.515,26.2a8.9,8.9,0,0,0,.968-3.737h0a3.277,3.277,0,0,0-.164-1.175q-.169-.409-.479-.409Zm7.548,20.281a1.31,1.31,0,0,1-1.283-.959,9.2,9.2,0,0,1-.371-3.069h0a19.506,19.506,0,0,1,.888-5.922h0a1.791,1.791,0,0,1,.705-1.015,2.5,2.5,0,0,1,1.382-.324h0a1.38,1.38,0,0,1,.672.118.5.5,0,0,1,.188.456h0a9.139,9.139,0,0,1-.357,1.725h0q-.24.959-.385,1.678t-.24,1.777h0a13.669,13.669,0,0,1,1.777-3.356,6.932,6.932,0,0,1,1.927-1.847,3.527,3.527,0,0,1,1.739-.55h0a1.375,1.375,0,0,1,1.556,1.556h0a12.235,12.235,0,0,1-.212,1.513h0a8.792,8.792,0,0,0-.193,1.2h0q0,.837.6.837h0A2.875,2.875,0,0,0,90.5,33.927h0a.922.922,0,0,1,.649-.315h0a.565.565,0,0,1,.494.277,1.337,1.337,0,0,1,.179.733h0a1.927,1.927,0,0,1-.479,1.387h0a6.558,6.558,0,0,1-1.57,1.189,3.931,3.931,0,0,1-1.908.489h0a2.646,2.646,0,0,1-1.927-.644,2.35,2.35,0,0,1-.658-1.753h0a3.754,3.754,0,0,1,.071-.719h0q.047-.479.047-.644h0q0-.385-.263-.385h0q-.362,0-.945.8a11.406,11.406,0,0,0-1.166,2.12,17.586,17.586,0,0,0-.935,2.783h0a3.727,3.727,0,0,1-.611,1.523,1.381,1.381,0,0,1-1.09.395Zm19.9-5.466a.554.554,0,0,1,.494.287,1.5,1.5,0,0,1,.179.794h0a2.2,2.2,0,0,1-.456,1.485h0a8.818,8.818,0,0,1-2.505,1.988,6.939,6.939,0,0,1-3.464.912h0A5.334,5.334,0,0,1,90.625,39.8a5.007,5.007,0,0,1-1.391-3.741h0a6.94,6.94,0,0,1,.7-3.079,5.711,5.711,0,0,1,1.932-2.265,4.852,4.852,0,0,1,2.792-.837h0a2.873,2.873,0,0,1,3.069,3.069h0a3.875,3.875,0,0,1-1.189,2.839,8.582,8.582,0,0,1-4.014,1.88h0a2.347,2.347,0,0,0,2.275,1.1h0a5.231,5.231,0,0,0,2.458-.757,8.1,8.1,0,0,0,2.388-1.979h0a.838.838,0,0,1,.644-.334Zm-6.04-3.473a1.757,1.757,0,0,0-1.5,1.029,4.8,4.8,0,0,0-.611,2.491h0v.047a5.447,5.447,0,0,0,2.233-1.006,1.98,1.98,0,0,0,.813-1.556h0a1.044,1.044,0,0,0-.254-.733.877.877,0,0,0-.682-.273ZM109.708,35.7a.55.55,0,0,1,.489.287,1.5,1.5,0,0,1,.179.794h0a2.2,2.2,0,0,1-.456,1.485h0a8.73,8.73,0,0,1-2.505,1.988,6.931,6.931,0,0,1-3.459.912h0a5.341,5.341,0,0,1-3.911-1.368,5.007,5.007,0,0,1-1.391-3.741h0a6.94,6.94,0,0,1,.7-3.079,5.712,5.712,0,0,1,1.932-2.265,4.866,4.866,0,0,1,2.792-.837h0a2.873,2.873,0,0,1,3.069,3.069h0a3.875,3.875,0,0,1-1.189,2.839,8.582,8.582,0,0,1-4.014,1.88h0a2.358,2.358,0,0,0,2.28,1.1h0a5.225,5.225,0,0,0,2.453-.757,8.017,8.017,0,0,0,2.388-1.979h0a.842.842,0,0,1,.649-.334Zm-6.044-3.473a1.754,1.754,0,0,0-1.495,1.029,4.8,4.8,0,0,0-.611,2.491h0v.047a5.445,5.445,0,0,0,2.228-1.006,1.98,1.98,0,0,0,.813-1.556h0a1.056,1.056,0,0,0-.249-.733.892.892,0,0,0-.686-.273Z" transform="translate(-1.43 -18.51)" fill="#fff"/>
      </g>
    </g>
  </g>
</svg>
