<svg id="Group_6106" data-name="Group 6106" xmlns="http://www.w3.org/2000/svg" width="49.063" height="45.906" viewBox="0 0 49.063 45.906">
  <path id="Path_11919" data-name="Path 11919" d="M448.778,60.089a18.414,18.414,0,0,0-5.6-3.875l-.536,1.2a17.149,17.149,0,0,1,5.194,3.595Z" transform="translate(-408.206 -53.296)" fill="#ec5958"/>
  <path id="Path_11920" data-name="Path 11920" d="M129.43,57.423l-.536-1.2A18.569,18.569,0,0,0,119,66.937l1.245.437a17.2,17.2,0,0,1,9.184-9.951Z" transform="translate(-116.627 -53.301)" fill="#ec5958"/>
  <path id="Path_11921" data-name="Path 11921" d="M124.246,362.374a17.236,17.236,0,0,1-4.106-6.464l-1.245.437a18.564,18.564,0,0,0,4.419,6.966Z" transform="translate(-116.529 -325.815)" fill="#ec5958"/>
  <path id="Path_11922" data-name="Path 11922" d="M526.75,392.031l1.022.824a18.472,18.472,0,0,0,1.839-2.737l-1.154-.635a16.953,16.953,0,0,1-1.707,2.548Z" transform="translate(-484.151 -356.922)" fill="#ec5958"/>
  <path id="Path_11923" data-name="Path 11923" d="M319.159,54.146l-2.111-1.41a1.323,1.323,0,0,0-1.83.363,1.282,1.282,0,0,0-.223.734v2.811a1.323,1.323,0,0,0,1.319,1.319,1.283,1.283,0,0,0,.734-.223l2.111-1.41a1.315,1.315,0,0,0,.363-1.83,1.348,1.348,0,0,0-.363-.354Zm-2.844,2.5V53.833l2.111,1.41Z" transform="translate(-293 -49.876)" fill="#ec5958"/>
  <path id="Path_11924" data-name="Path 11924" d="M308.053,215.276a5.276,5.276,0,1,0-5.276,5.276A5.281,5.281,0,0,0,308.053,215.276Zm-5.276,3.957a3.957,3.957,0,1,1,3.957-3.957A3.958,3.958,0,0,1,302.776,219.234Z" transform="translate(-276.308 -192.625)" fill="#ec5958"/>
  <path id="Path_11925" data-name="Path 11925" d="M336.8,247.366l-1.789,1.781.94.94,2.168-2.176V245h-1.319Z" transform="translate(-311.343 -224.959)" fill="#ec5958"/>
  <path id="Path_11926" data-name="Path 11926" d="M92.776,226v-.66h3.3V226a1.984,1.984,0,0,0,1.979,1.979h1.319A1.984,1.984,0,0,0,101.35,226v-5.276a1.984,1.984,0,0,0-1.979-1.979H98.053a1.984,1.984,0,0,0-1.979,1.979v.66h-3.3v-.66A1.984,1.984,0,0,0,90.8,218.75H89.479a1.984,1.984,0,0,0-1.979,1.979V226a1.984,1.984,0,0,0,1.979,1.979H90.8A1.984,1.984,0,0,0,92.776,226Zm4.617-5.276a.661.661,0,0,1,.66-.66h1.319a.661.661,0,0,1,.66.66V226a.661.661,0,0,1-.66.66H98.053a.661.661,0,0,1-.66-.66Zm-4.617,1.979h3.3v1.319h-3.3ZM88.819,226v-5.276a.661.661,0,0,1,.66-.66H90.8a.661.661,0,0,1,.66.66V226a.661.661,0,0,1-.66.66H89.479A.661.661,0,0,1,88.819,226Z" transform="translate(-87.5 -200.703)" fill="#ec5958"/>
  <path id="Path_11927" data-name="Path 11927" d="M150.729,472.5a1.979,1.979,0,1,0,0,3.957h5.936a3.284,3.284,0,0,0,2.638,1.319h9.234a3.3,3.3,0,0,0,3.3-3.3V472.5Zm0,2.638a.66.66,0,0,1,0-1.319H156v.66a3.51,3.51,0,0,0,.066.66Zm19.786-.66a1.984,1.984,0,0,1-1.979,1.979H159.3a1.984,1.984,0,0,1-1.979-1.979v-.66h13.191Z" transform="translate(-144.133 -431.87)" fill="#ec5958"/>
  <path id="Path_11928" data-name="Path 11928" d="M341.25,393.75h1.319v1.319H341.25Z" transform="translate(-317.221 -361.041)" fill="#ec5958"/>
  <path id="Path_11929" data-name="Path 11929" d="M245,385h1.319v1.319H245Z" transform="translate(-229.966 -353.052)" fill="#ec5958"/>
  <path id="Path_11930" data-name="Path 11930" d="M253.75,437.5h1.319v1.319H253.75Z" transform="translate(-237.898 -400.988)" fill="#ec5958"/>
  <path id="Path_11931" data-name="Path 11931" d="M280,402.5h1.319v1.319H280Z" transform="translate(-261.696 -369.031)" fill="#ec5958"/>
  <path id="Path_11932" data-name="Path 11932" d="M306.25,428.75h1.319v1.319H306.25Z" transform="translate(-285.492 -392.999)" fill="#ec5958"/>
  <path id="Path_11933" data-name="Path 11933" d="M306.25,376.25h1.319v1.319H306.25Z" transform="translate(-285.492 -345.063)" fill="#ec5958"/>
  <path id="Path_11934" data-name="Path 11934" d="M358.75,437.5h1.319v1.319H358.75Z" transform="translate(-333.086 -400.988)" fill="#ec5958"/>
  <path id="Path_11935" data-name="Path 11935" d="M461.6,190.3a5.393,5.393,0,0,0,3.182-1.55l.5-.5a5.373,5.373,0,0,0,1.591-3.842v-.66h-.66a5.407,5.407,0,0,0-3.842,1.591l-.5.5a5.457,5.457,0,0,0-.932,1.245,5.46,5.46,0,0,0-.932-1.245l-.5-.5a5.407,5.407,0,0,0-3.842-1.591H455v.66a5.407,5.407,0,0,0,1.591,3.842l.5.5a5.393,5.393,0,0,0,3.182,1.55v1.36h-3.957v1.319h.734l.445,3.545a1.977,1.977,0,0,0,1.962,1.731h2.951a1.977,1.977,0,0,0,1.962-1.731l.445-3.545h.734v-1.319H461.6Zm1.2-3.529.5-.5a4.134,4.134,0,0,1,2.193-1.146,4.107,4.107,0,0,1-1.146,2.193l-.5.5a4.134,4.134,0,0,1-2.193,1.146A4.133,4.133,0,0,1,462.8,186.773Zm-4.773,1.047-.5-.5a4.134,4.134,0,0,1-1.146-2.193,4.107,4.107,0,0,1,2.193,1.146l.5.5a4.134,4.134,0,0,1,1.146,2.193A4.134,4.134,0,0,1,458.026,187.82Zm5.458,5.161-.42,3.38a.658.658,0,0,1-.651.577H459.46a.658.658,0,0,1-.651-.577l-.42-3.38Z" transform="translate(-417.809 -168.393)" fill="#ec5958"/>
  <path id="Path_11936" data-name="Path 11936" d="M532.54,96l1.466-3.3,1.205.536-1.466,3.3Z" transform="translate(-489.504 -87.034)" fill="#ec5958"/>
  <path id="Path_11937" data-name="Path 11937" d="M516.98,155.266l.586-1.318,1.205.536-.586,1.318Z" transform="translate(-475.117 -142.065)" fill="#ec5958"/>
  <path id="Path_11938" data-name="Path 11938" d="M253.75,28.712a1.984,1.984,0,0,0,1.979,1.979h10.553a1.984,1.984,0,0,0,1.979-1.979V26.734h-1.319V19.479a1.984,1.984,0,0,0-1.979-1.979h-7.915a1.984,1.984,0,0,0-1.979,1.979v7.255H253.75Zm2.638-9.234a.661.661,0,0,1,.66-.66h7.915a.661.661,0,0,1,.66.66v7.255h-9.234Zm-1.319,8.574h11.872v.66a.661.661,0,0,1-.66.66H255.729a.661.661,0,0,1-.66-.66Z" transform="translate(-236.238 -17.5)" fill="#ec5958"/>
  <path id="Path_11939" data-name="Path 11939" d="M390.89,352.878v-1.162a1.978,1.978,0,0,0-.577-1.4l-1.319-1.319a1.971,1.971,0,0,0-2.795,0l-2.094,2.094a1.971,1.971,0,0,0,0,2.795l1.319,1.319a1.977,1.977,0,0,0,1.4.577h1.162L393.4,361.2a2.058,2.058,0,0,0,2.91-2.91Zm4.477,7.387a.741.741,0,0,1-1.047,0l-5.8-5.8h-1.707a.668.668,0,0,1-.47-.19l-1.319-1.319a.662.662,0,0,1,0-.932l2.094-2.094a.662.662,0,0,1,.932,0l1.319,1.319a.653.653,0,0,1,.19.47v1.707l5.8,5.8a.724.724,0,0,1,.008,1.039Z" transform="translate(-351.721 -317.136)" fill="#ec5958"/>
  <path id="Path_11940" data-name="Path 11940" d="M576.29,96l1.466-3.3,1.205.536-1.466,3.3Z" transform="translate(-529.957 -87.034)" fill="#ec5958"/>
  <path id="Path_11941" data-name="Path 11941" d="M560.73,155.266l.586-1.318,1.205.536-.586,1.318Z" transform="translate(-515.569 -142.065)" fill="#ec5958"/>
</svg>
