<svg xmlns="http://www.w3.org/2000/svg" width="52.42" height="37.715" viewBox="0 0 52.42 37.715">
  <g id="Group_6173" data-name="Group 6173" transform="translate(-283.674 -619.142)">
    <g id="Group_6172" data-name="Group 6172">
      <path id="Path_11892" d="M314.88,109.27a4.709,4.709,0,0,0,8.99,0c1.63,1.46,6.43,1.76,8.21,2.75a4.749,4.749,0,0,1,1.49,1.26,7.768,7.768,0,0,1,.92,1.79H304.26a8.194,8.194,0,0,1,.92-1.79,4.641,4.641,0,0,1,1.49-1.26c1.78-.99,6.58-1.29,8.21-2.75Zm-1.13-8.95a1.4,1.4,0,0,0-.7.18.63.63,0,0,0-.2.23.813.813,0,0,0-.07.37,3.274,3.274,0,0,0,.66,1.61v.01h0l1.39,2.21a11.442,11.442,0,0,0,1.87,2.45,3.819,3.819,0,0,0,2.66,1.07,3.909,3.909,0,0,0,2.82-1.12,12.29,12.29,0,0,0,1.92-2.61l1.56-2.58a2.459,2.459,0,0,0,.33-1.38c-.04-.16-.21-.23-.5-.25h-.19a1.62,1.62,0,0,0-.22.01.487.487,0,0,1-.12-.01,2.067,2.067,0,0,1-.43-.02l.53-2.15c-3.97.63-6.95-2.33-11.15-.59l.3,2.57a1.42,1.42,0,0,1-.46,0Zm12.28-.5a.994.994,0,0,1,.73.76,3.144,3.144,0,0,1-.38,1.9h0c-.01.01-.01.03-.02.04l-1.58,2.61a12.769,12.769,0,0,1-2.06,2.78,4.707,4.707,0,0,1-3.35,1.33,4.516,4.516,0,0,1-3.19-1.28,12.656,12.656,0,0,1-2-2.61l-1.39-2.21a4.132,4.132,0,0,1-.79-2.02,1.592,1.592,0,0,1,.13-.72,1.391,1.391,0,0,1,.82-.72,31.3,31.3,0,0,1-.07-3.75,5.492,5.492,0,0,1,.17-.9,4.465,4.465,0,0,1,2.35-2.55,7.848,7.848,0,0,1,1.96-.88c.13-.04,1.85-4.12,7.4,1.87a4.237,4.237,0,0,1,1.36,2.96l-.09,3.39Zm-26.91,13.96a1.01,1.01,0,0,1-1.84.83,23.617,23.617,0,0,1-2.02-8.05c-.02-.25-.03-.53-.04-.86-.01-.35-.02-.63-.02-.86a1.008,1.008,0,0,1,1.04-.98,1.023,1.023,0,0,1,.98.98c0,.33,0,.59.01.79.01.23.02.49.04.78a22.145,22.145,0,0,0,1.85,7.37Zm4.47-24.36a1.011,1.011,0,0,1-1.43-1.43,26.251,26.251,0,0,1,3.6-2.98,18.6,18.6,0,0,1,3.63-2,1,1,0,1,1,.73,1.87h0a16.3,16.3,0,0,0-3.22,1.78A25.766,25.766,0,0,0,303.59,89.42Zm24.44-4.49a1.012,1.012,0,0,1-.47-1.35,1,1,0,0,1,1.29-.49,23.833,23.833,0,0,1,9.33,7.52,1.008,1.008,0,1,1-1.62,1.2h0a22.323,22.323,0,0,0-3.84-3.99,21.927,21.927,0,0,0-4.69-2.89Zm12.79,21.55a1,1,0,0,1,1.09-.92,1.015,1.015,0,0,1,.92,1.06,23.837,23.837,0,0,1-1.97,7.86,1,1,0,0,1-1.34.49,1.01,1.01,0,0,1-.51-1.31,21.833,21.833,0,0,0,1.21-3.52,20.7,20.7,0,0,0,.6-3.66Z" transform="translate(-8.956 541.682)" fill="#717171" fill-rule="evenodd"/>
      <path id="Path_11895" data-name="Path 11895" d="M334.51,95.03h9.47a1.071,1.071,0,0,1,1.07,1.07v6.69a1.071,1.071,0,0,1-1.07,1.07h-9.47a1.071,1.071,0,0,1-1.07-1.07V96.1A1.078,1.078,0,0,1,334.51,95.03Z" transform="translate(-8.956 541.682)" fill="#ec5958" fill-rule="evenodd"/>
      <path id="Path_11897" data-name="Path 11897" d="M322.07,84.24a.943.943,0,0,1,.5.01V79.77l-4.86,1.31v5.6h0c0,.78-1.03,1.56-2.04,1.73s-1.83-.32-1.83-1.1a2.059,2.059,0,0,1,1.83-1.73,2.118,2.118,0,0,1,1.03.07V79.03h.04l6.84-1.57v7.53a1.1,1.1,0,0,1,.02.18h0a1.71,1.71,0,0,1-1.53,1.44c-.85.15-1.53-.27-1.53-.92a1.74,1.74,0,0,1,1.53-1.45Z" transform="translate(-8.956 541.682)" fill="#ec5958" fill-rule="evenodd"/>
      <path id="Path_11898" data-name="Path 11898" d="M298.44,90.75a5.81,5.81,0,1,1-5.81,5.82,5.808,5.808,0,0,1,5.81-5.82Z" transform="translate(-8.956 541.682)" fill="#ec5958" fill-rule="evenodd"/>
    </g>
    <path id="Path_11899" data-name="Path 11899" d="M297.55,93.89h.71a.243.243,0,0,1,.24.24v2.74H301a.243.243,0,0,1,.24.24v.71a.243.243,0,0,1-.24.24h-3.69V94.14a.221.221,0,0,1,.22-.24c.01-.01.01-.01.02-.01Z" transform="translate(-8.956 541.682)" fill="#fff" fill-rule="evenodd"/>
  </g>
</svg>
