<svg xmlns="http://www.w3.org/2000/svg" xmlns:xlink="http://www.w3.org/1999/xlink" width="58" height="58" viewBox="0 0 58 58">
  <defs>
    <filter id="Ellipse_2248" x="0" y="0" width="58" height="58" filterUnits="userSpaceOnUse">
      <feOffset dy="3" input="SourceAlpha"/>
      <feGaussianBlur stdDeviation="3" result="blur"/>
      <feFlood flood-opacity="0.161"/>
      <feComposite operator="in" in2="blur"/>
      <feComposite in="SourceGraphic"/>
    </filter>
  </defs>
  <g id="Group_6170" data-name="Group 6170" transform="translate(-17 -866)">
    <g transform="matrix(1, 0, 0, 1, 17, 866)" filter="url(#Ellipse_2248)">
      <circle id="Ellipse_2248-2" data-name="Ellipse 2248" cx="20" cy="20" r="20" transform="translate(9 6)" fill="#ec5958"/>
    </g>
    <g id="b34145df10ae99b46c6b18cdee5db5d3" transform="translate(38 884.058)">
      <path id="Path_11880" data-name="Path 11880" d="M20.713,33.223h-2.59V29.567a.685.685,0,1,0-1.371,0v3.655H14.316a2.29,2.29,0,0,1-2.286-2.284V26.9h-.761a1.382,1.382,0,0,1-1.067-.457,1.254,1.254,0,0,1,.076-1.6l5.561-5.635A2.2,2.2,0,0,1,17.21,18.3a2.144,2.144,0,0,1,1.9.685l5.56,5.713a1.076,1.076,0,0,1,.457,1.067,1.232,1.232,0,0,1-1.219,1.067h-.837v4.037A2.373,2.373,0,0,1,20.713,33.223Zm-1.9-.609h1.98a1.69,1.69,0,0,0,1.675-1.675V26.291h1.447a.589.589,0,0,0,.609-.533.693.693,0,0,0-.228-.533l-5.56-5.711a1.8,1.8,0,0,0-1.447-.609,2.026,2.026,0,0,0-1.067.533L10.66,25.15a.648.648,0,0,0,.533,1.065h1.371v4.646a1.69,1.69,0,0,0,1.675,1.675h1.98v-2.97a1.295,1.295,0,0,1,2.59,0Z" transform="translate(-9.951 -18.282)" fill="#fff"/>
    </g>
    <circle id="Ellipse_2292" data-name="Ellipse 2292" cx="1.5" cy="1.5" r="1.5" transform="translate(44 901)" fill="#fff"/>
  </g>
</svg>
