<svg xmlns="http://www.w3.org/2000/svg" width="10.845" height="11.995" viewBox="0 0 10.845 11.995">
  <g id="Group_6120" data-name="Group 6120" transform="translate(-10795.661 -3252.847)">
    <path id="Path_12021" data-name="Path 12021" d="M284.561,449.12h-2.745a.137.137,0,0,0-.136.136v.964a.137.137,0,0,0,.136.136h.322a1.066,1.066,0,0,0,2.1,0h.321a.137.137,0,0,0,.136-.136v-.964a.129.129,0,0,0-.136-.136Z" transform="translate(10517.896 2813.464)" fill="none" stroke="#707070" stroke-width="0.26"/>
    <path id="Path_12022" data-name="Path 12022" d="M334.121,15.6a.359.359,0,0,0,.359-.359v-.878a.359.359,0,0,0-.717,0v.878A.359.359,0,0,0,334.121,15.6Z" transform="translate(10466.964 3238.977)" fill="none" stroke="#707070" stroke-width="0.26"/>
    <path id="Path_12023" data-name="Path 12023" d="M222.6,44.777a.353.353,0,0,0,.309.173.284.284,0,0,0,.173-.049.364.364,0,0,0,.136-.482l-.445-.767a.354.354,0,0,0-.618.346Z" transform="translate(10576.148 3210.153)" fill="none" stroke="#707070" stroke-width="0.26"/>
    <path id="Path_12024" data-name="Path 12024" d="M141.4,126.034l-.767-.445a.354.354,0,1,0-.346.618l.767.445a.309.309,0,0,0,.173.049.353.353,0,0,0,.309-.173.361.361,0,0,0-.136-.495Z" transform="translate(10656.346 3129.898)" fill="none" stroke="#707070" stroke-width="0.26"/>
    <path id="Path_12025" data-name="Path 12025" d="M111.917,237.8a.359.359,0,0,0-.359-.359h-.878a.359.359,0,1,0,0,.717h.878A.359.359,0,0,0,111.917,237.8Z" transform="translate(10685.469 3020.468)" fill="none" stroke="#707070" stroke-width="0.26"/>
    <path id="Path_12026" data-name="Path 12026" d="M141.284,329.41l-.754.445a.364.364,0,0,0-.136.482.353.353,0,0,0,.309.173.284.284,0,0,0,.173-.049l.767-.445a.364.364,0,0,0,.136-.482.371.371,0,0,0-.495-.124Z" transform="translate(10656.103 2930.578)" fill="none" stroke="#707070" stroke-width="0.26"/>
    <path id="Path_12027" data-name="Path 12027" d="M494.2,329.874l-.767-.445a.354.354,0,0,0-.346.618l.767.445a.309.309,0,0,0,.173.049.353.353,0,0,0,.309-.173A.361.361,0,0,0,494.2,329.874Z" transform="translate(10311.336 2930.559)" fill="none" stroke="#707070" stroke-width="0.26"/>
    <path id="Path_12028" data-name="Path 12028" d="M518.676,237.44H517.8a.359.359,0,1,0,0,.717h.878a.359.359,0,1,0,0-.717Z" transform="translate(10287.341 3020.47)" fill="none" stroke="#707070" stroke-width="0.26"/>
    <path id="Path_12029" data-name="Path 12029" d="M493.5,126.948a.284.284,0,0,0,.173-.049l.767-.445a.354.354,0,1,0-.346-.618l-.767.445a.364.364,0,0,0-.136.482A.381.381,0,0,0,493.5,126.948Z" transform="translate(10311.093 3129.652)" fill="none" stroke="#707070" stroke-width="0.26"/>
    <path id="Path_12030" data-name="Path 12030" d="M425.885,45.761a.309.309,0,0,0,.173.049.353.353,0,0,0,.309-.173l.445-.767a.354.354,0,1,0-.618-.346l-.445.767a.341.341,0,0,0,.136.47Z" transform="translate(10377.054 3209.305)" fill="none" stroke="#707070" stroke-width="0.26"/>
    <path id="Path_12031" data-name="Path 12031" d="M216.252,116.871a3.02,3.02,0,0,0-2.547,1.187,2.8,2.8,0,0,0-.594,1.471,3.04,3.04,0,0,0,.631,2.226,4.461,4.461,0,0,1,.767,1.36l.062.185a.212.212,0,0,0,.2.148h2.7a.212.212,0,0,0,.2-.148l.062-.185a4.414,4.414,0,0,1,.73-1.323,3.2,3.2,0,0,0,.594-1.175,3.029,3.029,0,0,0-2.795-3.747Zm-.074,5.391a.42.42,0,1,1,.42-.42A.433.433,0,0,1,216.177,122.262Zm1.014-2.189a1.783,1.783,0,0,1-.457.433.377.377,0,0,0-.21.371.2.2,0,0,1-.2.173h-.3a.206.206,0,0,1-.2-.21,1.034,1.034,0,0,1,.507-.9,1.008,1.008,0,0,0,.3-.272.431.431,0,0,0,.025-.47.539.539,0,0,0-.532-.284.558.558,0,0,0-.618.495.186.186,0,0,1-.185.161h-.309a.2.2,0,0,1-.2-.223,1.325,1.325,0,0,1,2.461-.458,1.115,1.115,0,0,1-.087,1.187Z" transform="translate(10584.968 3138.381)" fill="none" stroke="#707070" stroke-width="0.26"/>
  </g>
</svg>
