<svg xmlns="http://www.w3.org/2000/svg" width="4.408" height="9.588" viewBox="0 0 4.408 9.588">
  <g id="_0828bcbc274195098295249d4a05cd1d" data-name="0828bcbc274195098295249d4a05cd1d" transform="translate(-274.7 -10)">
    <path id="Path_11917" data-name="Path 11917" d="M278.07,10a.9.9,0,0,1,.963.938,1.26,1.26,0,0,1-1.284,1.2.86.86,0,0,1-.946-.954A1.233,1.233,0,0,1,278.07,10Zm-1.976,9.588c-.507,0-.879-.313-.523-1.689l.582-2.441c.1-.391.118-.547,0-.547a3.836,3.836,0,0,0-1.2.536l-.253-.423a6.7,6.7,0,0,1,3.26-1.662c.507,0,.591.61.338,1.549l-.666,2.565c-.118.453-.068.61.05.61a2.623,2.623,0,0,0,1.141-.579l.287.391a5.272,5.272,0,0,1-3.014,1.69Z" fill="#acacac"/>
  </g>
</svg>
