<svg id="Iconly_Bulk_Lock" data-name="Iconly/Bulk/Lock" xmlns="http://www.w3.org/2000/svg" width="17" height="20" viewBox="0 0 17 20">
  <g id="Lock" transform="translate(0 0)">
    <path id="Fill_1" data-name="Fill 1" d="M12.731,13.286H4.269A4.227,4.227,0,0,1,0,9.112V4.175A4.227,4.227,0,0,1,4.269,0h8.463A4.227,4.227,0,0,1,17,4.175V9.112A4.227,4.227,0,0,1,12.731,13.286ZM8.5,4.67a.875.875,0,0,0-.884.865V7.741a.889.889,0,0,0,1.778,0V5.535A.881.881,0,0,0,8.5,4.67Z" transform="translate(0 6.714)" fill="#233245"/>
    <path id="Fill_4" data-name="Fill 4" d="M11.045,5.4V6.867a4.153,4.153,0,0,0-1.118-.149h-.66V5.4A3.7,3.7,0,0,0,5.528,1.739a3.707,3.707,0,0,0-3.75,3.637V6.718h-.65A3.817,3.817,0,0,0,0,6.877V5.4A5.467,5.467,0,0,1,5.507,0a5.461,5.461,0,0,1,5.538,5.4" transform="translate(2.977 0)" fill="#a5aab1"/>
  </g>
</svg>
