<svg xmlns="http://www.w3.org/2000/svg" width="242" height="164.041" viewBox="0 0 242 164.041">
  <g id="Group_6172" data-name="Group 6172" transform="translate(-246 -702)">
    <g id="Group_6171" data-name="Group 6171">
      <path id="Path_11265" data-name="Path 11265" d="M6546.359,2937.263s56.721,7.84,69.676,51.256,3.151-157.908,3.151-157.908h-3.151s-4.552,37.464-69.676,41.315S6546.359,2937.263,6546.359,2937.263Z" transform="translate(-6174.508 -2128.611)" fill="#1e202d"/>
      <rect id="Rectangle_3707" data-name="Rectangle 3707" width="242" height="69" rx="34" transform="translate(246 744.389)" fill="#1e202d"/>
      <text id="Let_s_Do_This" data-name="Let&apos;s Do This" transform="translate(289 782.389)" fill="#646771" font-size="11" font-family="SegoeUI, Segoe UI"><tspan x="0" y="0">Let&apos;s Do This</tspan></text>
      <g id="_95bab1f0cc573a146587d7043dc2dd87" data-name="95bab1f0cc573a146587d7043dc2dd87" transform="translate(381 770.389)">
        <path id="Path_11266" data-name="Path 11266" d="M231.608,17.594l-7.29-7.29a1.124,1.124,0,1,0-1.589,1.589l6.5,6.5-6.5,6.5a1.124,1.124,0,1,0,1.589,1.589l7.29-7.289a1.136,1.136,0,0,0,0-1.6Z" transform="translate(-222.4 -9.975)" fill="#aeafb4"/>
      </g>
      <g id="_95bab1f0cc573a146587d7043dc2dd87-2" data-name="95bab1f0cc573a146587d7043dc2dd87" transform="translate(369 770.389)" opacity="0.9">
        <path id="Path_11266-2" data-name="Path 11266" d="M231.608,17.594l-7.29-7.29a1.124,1.124,0,1,0-1.589,1.589l6.5,6.5-6.5,6.5a1.124,1.124,0,1,0,1.589,1.589l7.29-7.289a1.136,1.136,0,0,0,0-1.6Z" transform="translate(-222.4 -9.975)" fill="#6c6f79"/>
      </g>
      <g id="_95bab1f0cc573a146587d7043dc2dd87-3" data-name="95bab1f0cc573a146587d7043dc2dd87" transform="translate(357 770.389)" opacity="0.5">
        <path id="Path_11266-3" data-name="Path 11266" d="M231.608,17.594l-7.29-7.29a1.124,1.124,0,1,0-1.589,1.589l6.5,6.5-6.5,6.5a1.124,1.124,0,1,0,1.589,1.589l7.29-7.289a1.136,1.136,0,0,0,0-1.6Z" transform="translate(-222.4 -9.975)" fill="#6c6f79"/>
      </g>
    </g>
  </g>
</svg>
