<svg id="notification-svgrepo-com" xmlns="http://www.w3.org/2000/svg" width="12.445" height="14.068" viewBox="0 0 12.445 14.068">
  <g id="Group_1637" data-name="Group 1637" transform="translate(0 0)">
    <g id="Group_1636" data-name="Group 1636">
      <path id="Path_3352" data-name="Path 3352" d="M41.056,10.344,40.431,5.59A4.708,4.708,0,0,0,36.88,1.631V1.122a1.122,1.122,0,1,0-2.245,0v.509A4.708,4.708,0,0,0,31.084,5.59l-.626,4.754a1.124,1.124,0,0,0-.923,1.1v.9a.224.224,0,0,0,.224.224h8.166a2.78,2.78,0,0,1-2.168,1.048,2.745,2.745,0,0,1-1.661-.553.224.224,0,0,0-.27.359,3.191,3.191,0,0,0,1.931.643,3.23,3.23,0,0,0,2.719-1.5h3.279a.224.224,0,0,0,.224-.224v-.9A1.124,1.124,0,0,0,41.056,10.344Zm.474,1.778H29.984v-.673a.674.674,0,0,1,.673-.673h7.506a.224.224,0,1,0,0-.449h-7.25l.616-4.677A4.26,4.26,0,0,1,34.9,2.031a.224.224,0,0,0,.18-.22V1.122a.673.673,0,0,1,1.347,0v.689a.224.224,0,0,0,.18.22,4.26,4.26,0,0,1,3.375,3.618l.615,4.677h-1.54a.224.224,0,1,0,0,.449h1.795a.674.674,0,0,1,.674.673v.673Z" transform="translate(-29.535)"/>
    </g>
  </g>
  <g id="Group_1639" data-name="Group 1639" transform="translate(5.998 0.898)">
    <g id="Group_1638" data-name="Group 1638">
      <path id="Path_3353" data-name="Path 3353" d="M248.052,32.681a.224.224,0,0,0-.224.224v.6a.224.224,0,1,0,.449,0v-.6A.224.224,0,0,0,248.052,32.681Z" transform="translate(-247.828 -32.681)"/>
    </g>
  </g>
</svg>
