<svg xmlns="http://www.w3.org/2000/svg" width="9.603" height="10.743" viewBox="0 0 9.603 10.743">
  <path id="Path_12032" data-name="Path 12032" d="M157.891,37.309,156.6,35.457V31.7a3.164,3.164,0,0,0-2.428-2.964,1.1,1.1,0,0,0-2.081,0A3.164,3.164,0,0,0,149.66,31.7v3.752l-1.294,1.852a.222.222,0,0,0-.013.239.264.264,0,0,0,.227.12h2.988a1.651,1.651,0,0,0,3.1,0h3a.264.264,0,0,0,.227-.12.221.221,0,0,0,0-.239Zm-5.5-8.15a.237.237,0,0,0,.2-.227.541.541,0,0,1,1.067,0,.247.247,0,0,0,.2.227,2.692,2.692,0,0,1,2.2,2.545v3.585h-5.87V31.7a2.692,2.692,0,0,1,2.2-2.545Zm.734,9.118a1.052,1.052,0,0,1-.987-.6h1.975A1.052,1.052,0,0,1,153.129,38.277ZM149.073,37.2l1-1.434h6.11l1,1.434Zm1.654-5.5a2.215,2.215,0,0,1,1.774-2.079.251.251,0,0,1,.32.167.222.222,0,0,1-.187.287,1.742,1.742,0,0,0-1.374,1.625.268.268,0,0,1-.534,0Z" transform="translate(-148.324 -28)" fill="#717171"/>
</svg>
