<svg xmlns="http://www.w3.org/2000/svg" width="10.086" height="13.927" viewBox="0 0 10.086 13.927">
  <g id="noun-privacy-5391738" transform="translate(-166.247 -26.25)">
    <path id="Path_12011" data-name="Path 12011" d="M166.25,412.451a.24.24,0,0,0,.24.24h2.881a.24.24,0,1,0,0-.48H166.73v-.72a.24.24,0,0,0-.48,0Z" transform="translate(-0.002 -374.435)" fill="#717171"/>
    <path id="Path_12012" data-name="Path 12012" d="M166.73,376.49a.24.24,0,1,1-.24-.24.24.24,0,0,1,.24.24" transform="translate(-0.002 -340.396)" fill="#717171"/>
    <path id="Path_12013" data-name="Path 12013" d="M168.239,26.32l-1.921,1.921a.24.24,0,0,0-.07.17v6.723a.24.24,0,0,0,.48,0V28.651h1.681a.24.24,0,0,0,.24-.24V26.73h5.283v6.483a.24.24,0,1,0,.48,0V26.49a.24.24,0,0,0-.24-.24h-5.763A.24.24,0,0,0,168.239,26.32Zm-1.172,1.851,1.1-1.1v1.1Z" fill="#717171"/>
    <path id="Path_12014" data-name="Path 12014" d="M219.252,99.887h-.264a.24.24,0,0,0,0,.48h4.8a.24.24,0,0,0,0-.48h-.264a2.157,2.157,0,0,0-1.327-1.761,1.2,1.2,0,1,0-1.619,0,2.158,2.158,0,0,0-1.327,1.761Zm1.417-2.641a.721.721,0,1,1,.211.509.72.72,0,0,1-.211-.509Zm.72,1.2a1.684,1.684,0,0,1,1.664,1.441h-3.328a1.683,1.683,0,0,1,1.664-1.441Z" transform="translate(-51.059 -67.874)" fill="#717171"/>
    <path id="Path_12015" data-name="Path 12015" d="M240.572,271.49a.24.24,0,0,0-.24-.24H236.49a.24.24,0,1,0,0,.48h3.842a.24.24,0,0,0,.24-.24Z" transform="translate(-68.081 -238.277)" fill="#717171"/>
    <path id="Path_12016" data-name="Path 12016" d="M311.876,307.5a3.123,3.123,0,0,0-.639-.639.241.241,0,0,0-.259-.018l-.305.167a2.714,2.714,0,0,0-.555-.23l-.1-.334h0a.24.24,0,0,0-.2-.17,3.115,3.115,0,0,0-.905,0,.24.24,0,0,0-.2.17l-.1.334h0a2.714,2.714,0,0,0-.555.23l-.305-.167a.24.24,0,0,0-.259.018,3.133,3.133,0,0,0-.639.639.24.24,0,0,0-.018.259l.167.305a2.69,2.69,0,0,0-.23.555l-.334.1a.24.24,0,0,0-.171.2,3.127,3.127,0,0,0,0,.9.241.241,0,0,0,.171.2l.334.1a2.689,2.689,0,0,0,.23.555l-.167.305a.24.24,0,0,0,.018.259,3.135,3.135,0,0,0,.639.639.241.241,0,0,0,.259.018l.305-.167a2.715,2.715,0,0,0,.555.23l.1.334h0a.24.24,0,0,0,.2.17,3.141,3.141,0,0,0,.905,0,.24.24,0,0,0,.2-.17l.1-.334h0a2.717,2.717,0,0,0,.555-.23l.305.167a.241.241,0,0,0,.259-.018,3.121,3.121,0,0,0,.639-.639.241.241,0,0,0,.018-.259l-.167-.305a2.636,2.636,0,0,0,.23-.555l.334-.1a.241.241,0,0,0,.171-.2,3.115,3.115,0,0,0,0-.905.241.241,0,0,0-.171-.2l-.334-.1a2.636,2.636,0,0,0-.23-.555l.167-.305A.241.241,0,0,0,311.876,307.5Zm.128,1.633a2.55,2.55,0,0,1,0,.462l-.312.091a.241.241,0,0,0-.167.176,2.21,2.21,0,0,1-.277.671.24.24,0,0,0-.007.242l.156.286a2.608,2.608,0,0,1-.326.327l-.286-.157a.238.238,0,0,0-.242.007,2.21,2.21,0,0,1-.67.278.241.241,0,0,0-.176.166l-.091.312a2.554,2.554,0,0,1-.463,0l-.091-.312a.241.241,0,0,0-.176-.166,2.209,2.209,0,0,1-.67-.278.24.24,0,0,0-.242-.007l-.286.157a2.627,2.627,0,0,1-.327-.327l.156-.286a.24.24,0,0,0-.007-.242,2.205,2.205,0,0,1-.277-.671.241.241,0,0,0-.167-.176l-.313-.091a2.665,2.665,0,0,1,0-.462l.313-.091a.241.241,0,0,0,.167-.176,2.206,2.206,0,0,1,.277-.671.24.24,0,0,0,.007-.242l-.156-.286a2.627,2.627,0,0,1,.327-.327l.286.157a.241.241,0,0,0,.242-.007,2.209,2.209,0,0,1,.67-.278.241.241,0,0,0,.176-.166l.091-.312a2.554,2.554,0,0,1,.463,0l.091.312a.241.241,0,0,0,.176.166,2.21,2.21,0,0,1,.67.278.239.239,0,0,0,.242.007l.286-.157a2.61,2.61,0,0,1,.326.327l-.156.286a.24.24,0,0,0,.007.242,2.209,2.209,0,0,1,.277.671.241.241,0,0,0,.167.176Z" transform="translate(-136.161 -272.307)" fill="#717171"/>
    <path id="Path_12017" data-name="Path 12017" d="M377.451,376.25a1.2,1.2,0,1,0,.849.352A1.2,1.2,0,0,0,377.451,376.25Zm0,1.921a.721.721,0,1,1,.509-.211.721.721,0,0,1-.509.211Z" transform="translate(-204.24 -340.396)" fill="#717171"/>
  </g>
</svg>
