<svg xmlns="http://www.w3.org/2000/svg" width="16.092" height="17.107" viewBox="0 0 16.092 17.107">
  <g id="Group_6170" data-name="Group 6170" transform="translate(-106.418 -883.437)">
    <ellipse id="Ellipse_2245" data-name="Ellipse 2245" cx="6" cy="6.5" rx="6" ry="6.5" transform="translate(108.378 886)" fill="#ec5958" opacity="0.1"/>
    <path id="young-icon" d="M3.257,3.023C5.481.268,8.046-1.221,9.97,1.224c2.32.122,3.249,3.807,1.4,5.359a.26.26,0,0,1-.011.092,1,1,0,0,1,.214-.042.7.7,0,0,1,.379.071.543.543,0,0,1,.264.32.982.982,0,0,1-.013.557L12.2,7.6l-.278.8a.605.605,0,0,1-.184.3.536.536,0,0,1-.392.095l-.081-.008a2.43,2.43,0,0,1-1.048,1.883c.461,1.55,1.636,1.791,2.783,2.027,1.57.321,3.1.43,3.1,3.452v.722a.221.221,0,0,1-.221.221H.221A.221.221,0,0,1,0,16.868v-.653c0-3.157,1.627-3.185,3.28-3.423,1.2-.17,2.414-.342,2.864-1.886l-.021-.017L5.9,10.7h0A2.558,2.558,0,0,1,4.76,8.8H4.7a.678.678,0,0,1-.337-.089.92.92,0,0,1-.372-.449,2.053,2.053,0,0,1-.149-.678h0V7.24a2.187,2.187,0,0,1,.018-.291.174.174,0,0,1,.015-.054c.12-.335.3-.444.545-.437l-.16-.106c-.086-1.083.167-2.961-1.007-3.316Zm1.838,9.8a5.4,5.4,0,0,0,3,.795,5.206,5.206,0,0,0,3.039-1.045,2.707,2.707,0,0,1-1.264-1.531,2.366,2.366,0,0,1-.753.449,2.38,2.38,0,0,1-1.73.139,2.477,2.477,0,0,1-.772-.3c-.039-.024-.078-.05-.117-.077a2.511,2.511,0,0,1-1.4,1.575Zm6.482-.047-.024.024A5.614,5.614,0,0,1,8.1,14.053,5.807,5.807,0,0,1,4.574,13a10.072,10.072,0,0,1-1.234.234c-1.461.206-2.9.206-2.9,2.981v.431H15.65v-.5c0-2.663-1.351-2.737-2.741-3.021a8.628,8.628,0,0,1-1.332-.348ZM9.8,10.449l.026-.025.081-.075a2.028,2.028,0,0,0,.9-1.877.223.223,0,0,1,.038-.139.22.22,0,0,1,.3-.063.565.565,0,0,0,.118.061.306.306,0,0,0,.095.021.438.438,0,0,0,.1,0,.474.474,0,0,0,.042-.1l.278-.795a.544.544,0,0,0,.018-.3.1.1,0,0,0-.051-.065.255.255,0,0,0-.139-.019.8.8,0,0,0-.392.163.216.216,0,0,1-.173.045.22.22,0,0,1-.181-.255,4.291,4.291,0,0,0-.139-2.542,2.167,2.167,0,0,0-.974-.974,3.694,3.694,0,0,1-2.087.817,3.24,3.24,0,0,0-1.67.586,1.613,1.613,0,0,0-.637.795,2,2,0,0,0-.028,1.084.22.22,0,0,1-.288.269L5,7.049c-.06-.022-.118-.045-.168-.061-.262-.092-.447-.139-.518.029,0,.054-.01.139-.011.218v.309h0a1.6,1.6,0,0,0,.115.525.5.5,0,0,0,.182.242.278.278,0,0,0,.125.032.64.64,0,0,0,.181-.031A.209.209,0,0,1,4.974,8.3a.22.22,0,0,1,.225.214,2.2,2.2,0,0,0,1,1.841h0l.212.209a2.938,2.938,0,0,0,1.09.643,2.6,2.6,0,0,0,.861.028,2.718,2.718,0,0,0,.566-.139,2.829,2.829,0,0,0,.746-.532L9.8,10.45Z" transform="translate(106.418 883.449)" fill="#acacac" fill-rule="evenodd"/>
  </g>
</svg>
