<svg xmlns="http://www.w3.org/2000/svg" width="15.842" height="15.869" viewBox="0 0 15.842 15.869">
  <g id="Group_6172" data-name="Group 6172" transform="translate(-174.463 -885.131)">
    <path id="Path_11915" data-name="Path 11915" d="M642.434,132.159l-.4.4-.319-.319-.322-.319-.15.153-.15.153.319.316.319.319-.405.4-.408.408,1.859,1.859,1.856,1.855.963-.966.966-.963-1.849-1.849c-1.017-1.017-1.855-1.849-1.865-1.849S642.654,131.939,642.434,132.159Zm1.961,1.769,1.53,1.53-.647.644-.644.647-1.537-1.537-1.54-1.54.637-.638c.351-.351.644-.638.654-.638S643.553,133.086,644.395,133.928Z" transform="translate(-456.258 763.613)" fill="#acacac"/>
    <ellipse id="Ellipse_2247" data-name="Ellipse 2247" cx="7" cy="6.5" rx="7" ry="6.5" transform="translate(175.266 886)" fill="#ec5958" opacity="0.1"/>
    <path id="Path_11913" data-name="Path 11913" d="M15.656-501.85A6.032,6.032,0,0,0,10.22-497.5a5.265,5.265,0,0,0-.22,1.671,8.156,8.156,0,0,0,.038.909,6,6,0,0,0,3.274,4.53,6.1,6.1,0,0,0,4.655.328,6.022,6.022,0,0,0,3.94-4.214,5.619,5.619,0,0,0,.178-1.282,6.049,6.049,0,0,0-4.441-6.089A6.04,6.04,0,0,0,15.656-501.85Zm1.5.539a5.63,5.63,0,0,1,4.489,5.088,5.662,5.662,0,0,1-4.473,5.946,5.61,5.61,0,0,1-4.227-.826,5.622,5.622,0,0,1-2.42-5.859A5.213,5.213,0,0,1,11-498.3a5.613,5.613,0,0,1,3.925-3.013A6.387,6.387,0,0,1,17.154-501.311Z" transform="translate(164.463 1386.993)" fill="#acacac"/>
  </g>
</svg>
