<svg xmlns="http://www.w3.org/2000/svg" width="15.596" height="12.663" viewBox="0 0 15.596 12.663">
  <g id="Group_6304" data-name="Group 6304" transform="translate(-12.203 -344.816)">
    <path id="Stroke_1" data-name="Stroke 1" d="M10.784,9.5A1.284,1.284,0,1,1,9.5,10.784,1.284,1.284,0,0,1,10.784,9.5Z" transform="translate(8.581 338.716)" fill="none" stroke="#060000" stroke-linecap="round" stroke-linejoin="round" stroke-width="0.5" fill-rule="evenodd"/>
    <g id="Group_6303" data-name="Group 6303">
      <path id="Stroke_3" data-name="Stroke 3" d="M12.059,4.939h0a1.265,1.265,0,0,0-1.735-.468A.792.792,0,0,1,9.135,3.78,1.275,1.275,0,0,0,7.864,2.5h0A1.275,1.275,0,0,0,6.594,3.78a.792.792,0,0,1-1.188.691,1.266,1.266,0,0,0-1.736.468,1.285,1.285,0,0,0,.465,1.748.8.8,0,0,1,0,1.382A1.285,1.285,0,0,0,3.67,9.817a1.266,1.266,0,0,0,1.735.469h0a.792.792,0,0,1,1.188.691h0a1.275,1.275,0,0,0,1.271,1.28h0a1.275,1.275,0,0,0,1.27-1.28h0a.792.792,0,0,1,1.188-.691,1.266,1.266,0,0,0,1.735-.469,1.285,1.285,0,0,0-.465-1.748h0a.8.8,0,0,1,0-1.382A1.284,1.284,0,0,0,12.059,4.939Z" transform="translate(11.5 342.566)" fill="none" stroke="#060000" stroke-linecap="round" stroke-linejoin="round" stroke-width="0.5" fill-rule="evenodd"/>
      <path id="Ellipse_2276" data-name="Ellipse 2276" d="M7.816.957C8.888.958,9.908.944,10.837.92S12.6.861,13.3.818,14.572.723,14.962.666s.6-.12.6-.187S15.334.35,14.935.293,13.962.184,13.254.141s-1.549-.078-2.482-.1S8.817,0,7.745,0,5.654.015,4.729.039,2.972.1,2.275.142,1.016.237.63.294s-.6.12-.593.186S.263.608.658.665s.965.109,1.668.152,1.54.078,2.468.1S6.744.957,7.816.957Z" transform="translate(12.203 356.521)" fill="#ec5958" opacity="0.23"/>
      <circle id="Ellipse_2278" data-name="Ellipse 2278" cx="4.5" cy="4.5" r="4.5" transform="translate(13 345)" fill="#ec5958" opacity="0.07"/>
    </g>
  </g>
</svg>
