<svg xmlns="http://www.w3.org/2000/svg" xmlns:xlink="http://www.w3.org/1999/xlink" width="389" height="389" viewBox="0 0 389 389">
  <defs>
    <linearGradient id="linear-gradient" x1="0.523" y1="0.294" x2="0.5" y2="1" gradientUnits="objectBoundingBox">
      <stop offset="0" stop-color="#f07a7b" stop-opacity="0"/>
      <stop offset="0.498" stop-color="#f07a7b" stop-opacity="0.78"/>
      <stop offset="1" stop-color="#f07a7b"/>
    </linearGradient>
    <filter id="Path_889" x="141.82" y="89.429" width="106.725" height="176.677" filterUnits="userSpaceOnUse">
      <feOffset dy="3" input="SourceAlpha"/>
      <feGaussianBlur stdDeviation="3" result="blur"/>
      <feFlood flood-opacity="0.161"/>
      <feComposite operator="in" in2="blur"/>
      <feComposite in="SourceGraphic"/>
    </filter>
  </defs>
  <g id="Group_6178" data-name="Group 6178" transform="translate(-20 -11)">
    <circle id="Ellipse_2225" data-name="Ellipse 2225" cx="194.5" cy="194.5" r="194.5" transform="translate(20 11)" fill="url(#linear-gradient)"/>
    <g id="Group_6169" data-name="Group 6169" transform="translate(0 -14)">
      <rect id="Rectangle_1844" data-name="Rectangle 1844" width="343.921" height="0.161" transform="translate(40.419 314.456)" fill="#e6e6e6"/>
      <rect id="Rectangle_1845" data-name="Rectangle 1845" width="22.781" height="0.161" transform="translate(103.495 324.226)" fill="#e6e6e6"/>
      <rect id="Rectangle_1846" data-name="Rectangle 1846" width="13.2" height="0.161" transform="translate(83.086 324.226)" fill="#e6e6e6"/>
      <rect id="Rectangle_1847" data-name="Rectangle 1847" width="13.2" height="0.161" transform="translate(172.045 326.602)" fill="#e6e6e6"/>
      <rect id="Rectangle_1848" data-name="Rectangle 1848" width="29.708" height="0.161" transform="translate(224.362 330.206)" fill="#e6e6e6"/>
      <rect id="Rectangle_1849" data-name="Rectangle 1849" width="4.354" height="0.161" transform="translate(213.886 330.206)" fill="#e6e6e6"/>
      <rect id="Rectangle_1850" data-name="Rectangle 1850" width="64.437" height="0.161" transform="translate(287.815 326.602)" fill="#e6e6e6"/>
      <path id="Path_814" data-name="Path 814" d="M174.953,237.6H42.138a3.816,3.816,0,0,1-3.928-3.687V58.637a3.816,3.816,0,0,1,3.928-3.687H174.96a3.816,3.816,0,0,1,3.928,3.687v175.28A3.827,3.827,0,0,1,174.953,237.6ZM42.138,55.111a3.651,3.651,0,0,0-3.756,3.526v175.28a3.651,3.651,0,0,0,3.756,3.526H174.96a3.651,3.651,0,0,0,3.756-3.526V58.637a3.651,3.651,0,0,0-3.756-3.526Z" transform="translate(28.492 48.05)" fill="#e6e6e6"/>
      <path id="Path_815" data-name="Path 815" d="M391.25,237.6H258.428a3.816,3.816,0,0,1-3.928-3.687V58.637a3.816,3.816,0,0,1,3.928-3.687H391.25a3.816,3.816,0,0,1,3.928,3.687v175.28A3.816,3.816,0,0,1,391.25,237.6ZM258.428,55.111a3.651,3.651,0,0,0-3.756,3.526v175.28a3.651,3.651,0,0,0,3.756,3.526H391.25a3.651,3.651,0,0,0,3.756-3.526V58.637a3.651,3.651,0,0,0-3.756-3.526Z" transform="translate(-39.025 48.05)" fill="#e6e6e6"/>
      <rect id="Rectangle_1851" data-name="Rectangle 1851" width="15.126" height="56.33" transform="translate(209.223 259.294)" fill="#d44746"/>
      <path id="Path_816" data-name="Path 816" d="M261.853,380h2.875V372.33H258.84Z" transform="translate(-40.379 -64.377)" fill="#d44746"/>
      <rect id="Rectangle_1852" data-name="Rectangle 1852" width="15.126" height="56.33" transform="translate(142.942 259.294)" fill="#d44746"/>
      <rect id="Rectangle_1853" data-name="Rectangle 1853" width="68.784" height="51.622" transform="translate(155.564 259.294)" fill="#ec5958"/>
      <path id="Path_817" data-name="Path 817" d="M234.7,300.772V314.43H170.9V300.772h63.8m.268-.252H170.64v14.155h64.327V300.52Z" transform="translate(-12.847 -38.94)" fill="#e0e0e0"/>
      <path id="Path_818" data-name="Path 818" d="M170.275,380H167.4V372.33h5.881Z" transform="translate(-11.836 -64.377)" fill="#bf4443"/>
      <path id="Path_819" data-name="Path 819" d="M215.19,310.7a1.523,1.523,0,1,0,1.52-1.427A1.476,1.476,0,0,0,215.19,310.7Z" transform="translate(-26.754 -42.039)" fill="#e6e6e6"/>
      <path id="Path_820" data-name="Path 820" d="M234.7,326.235v13.658H170.9V326.235h63.8m.268-.245H170.64v14.155h64.327V325.99Z" transform="translate(-12.847 -47.962)" fill="#e0e0e0"/>
      <path id="Path_821" data-name="Path 821" d="M215.19,336.167a1.523,1.523,0,1,0,1.52-1.427A1.476,1.476,0,0,0,215.19,336.167Z" transform="translate(-26.754 -51.062)" fill="#e6e6e6"/>
      <path id="Path_822" data-name="Path 822" d="M234.7,351.7V365.36H170.9V351.7h63.8m.268-.252H170.64v14.155h64.327V351.45Z" transform="translate(-12.847 -56.981)" fill="#e0e0e0"/>
      <path id="Path_823" data-name="Path 823" d="M215.19,361.637a1.523,1.523,0,1,0,1.52-1.427A1.476,1.476,0,0,0,215.19,361.637Z" transform="translate(-26.754 -60.084)" fill="#e6e6e6"/>
      <rect id="Rectangle_1854" data-name="Rectangle 1854" width="15.126" height="89.051" transform="translate(133.705 226.58)" fill="#e0e0e0"/>
      <path id="Path_824" data-name="Path 824" d="M152.063,380h2.875V372.33H149.05Z" transform="translate(-6.108 -64.377)" fill="#fafafa"/>
      <path id="Path_952" data-name="Path 952" d="M0,0H15.126V89.051H0Z" transform="translate(77.178 226.58)" fill="#bf4443" opacity="0.7"/>
      <rect id="Rectangle_1856" data-name="Rectangle 1856" width="59.037" height="84.343" transform="translate(89.793 226.58)" fill="#d44746"/>
      <path id="Path_825" data-name="Path 825" d="M129.284,249.851v19.1H75.336v-19.1h53.947m.316-.291H75.02v19.683H129.6V249.56Z" transform="translate(17.001 -20.888)" fill="#e0e0e0"/>
      <path id="Path_826" data-name="Path 826" d="M142.107,283.017v50.654h-25.7V283.017h25.7m.316-.3H116.1v51.241h26.324V282.72Z" transform="translate(4.178 -32.634)" fill="#e0e0e0"/>
      <path id="Path_827" data-name="Path 827" d="M101.034,283.017v50.654h-25.7V283.017h25.7m.31-.3H75.02v51.241h26.324V282.72Z" transform="translate(17.001 -32.634)" fill="#e0e0e0"/>
      <path id="Path_828" data-name="Path 828" d="M74.655,380H71.78V372.33h5.888Z" transform="translate(18.013 -64.377)" fill="#ec5958"/>
      <path id="Path_829" data-name="Path 829" d="M112.48,264.017A1.523,1.523,0,1,0,114,262.59,1.476,1.476,0,0,0,112.48,264.017Z" transform="translate(5.308 -25.503)" fill="#e6e6e6"/>
      <path id="Path_830" data-name="Path 830" d="M120.4,319.747a1.523,1.523,0,1,0,1.52-1.427A1.476,1.476,0,0,0,120.4,319.747Z" transform="translate(2.835 -45.245)" fill="#e6e6e6"/>
      <path id="Path_831" data-name="Path 831" d="M104.57,319.747a1.523,1.523,0,1,0,1.52-1.427A1.476,1.476,0,0,0,104.57,319.747Z" transform="translate(7.777 -45.245)" fill="#e6e6e6"/>
      <path id="Path_832" data-name="Path 832" d="M98.929,207.87H92.553a59.569,59.569,0,0,1,1.107,8.8c0,3.261-4.856,16.034,2.084,16.034s2.084-12.773,2.084-16.034A58.933,58.933,0,0,1,98.929,207.87Z" transform="translate(11.698 -6.12)" fill="#a23837"/>
      <path id="Path_833" data-name="Path 833" d="M66.8,228.15v3.894a8.128,8.128,0,0,0,8.35,7.84H79.3a8.128,8.128,0,0,0,8.35-7.84V228.15Z" transform="translate(19.567 -13.304)" fill="#bf4443"/>
      <path id="Path_834" data-name="Path 834" d="M195.67,284.26c0,4.514,5.386,8.208,11.968,8.208h5.943c6.583,0,11.968-3.694,11.968-8.208Z" transform="translate(-20.661 -33.18)" fill="#e0e0e0"/>
      <path id="Path_835" data-name="Path 835" d="M405.687,230.52a60.26,60.26,0,0,0-13.138,14.937,37.024,37.024,0,0,0-5.668,16.267c.021-7.426.041-15.4.069-22.931.915-1.937,3.006-6.406,4.505-9.932,5.007-11.772,6.872-14.665,11.37-24.823,6-13.542,12.154-29.615,10.393-28.33-3.591,2.615-17.347,26.8-18.833,30.267a91.776,91.776,0,0,0-7.422,28.963c.028-7.071.055-13.568.083-18.579.089-16.344.385-21.62.53-23.248.557-.827,1.211-1.789,1.6-2.312,3.233-4.385,4.478-8.124,7.525-14.665,4.313-9.273,8.034-25.734,6.947-24.9-4.526,3.455-8.089,10.888-12.78,20.361s-3.35,14.917-4.278,23c-.193,1.589-.344,7.575-.454,15.879-1.217-8.847-3.494-14.672-7.656-19.967-5.118-6.516-10.07-10.913-13.7-13.212s6.273,13.7,11.012,20.69c4.217,6.219,8.1,11.708,10.3,17.113-.117,11.249-.172,25.495-.172,38.759a74.2,74.2,0,0,0-5.228-17.565c-2.848-6.044-7.222-15.318-10.7-18.469-.839-.756,3.646,17.281,6.521,22.079s4.987,9.318,6.8,12.037c.42.633,1.823,3.08,2.621,4.488.007,16.189.1,30.474.248,35.336h.743c-.048-1.253-.062-9.493-.041-20.393,1.8-5.915,5.895-12.67,9.286-18.83C399.84,245.805,409.291,227.756,405.687,230.52Z" transform="translate(-73.203 13.954)" fill="#d44746"/>
      <path id="Path_836" data-name="Path 836" d="M401.917,373.328H380.36l-1.63-19.838h24.817Z" transform="translate(-77.805 -57.704)" fill="#d44746"/>
      <path id="Path_837" data-name="Path 837" d="M404.057,353.4H376.035l-.8-6.7h29.632Z" transform="translate(-76.712 -55.298)" fill="#d44746"/>
      <rect id="Rectangle_1857" data-name="Rectangle 1857" width="38.554" height="39.747" transform="translate(87.337 116.271)" fill="#a23837"/>
      <rect id="Rectangle_1858" data-name="Rectangle 1858" width="39.826" height="39.747" transform="translate(90.24 116.271)" fill="#1e202d"/>
      <rect id="Rectangle_1859" data-name="Rectangle 1859" width="33.483" height="33.154" transform="translate(126.732 119.403) rotate(90)" fill="#bf4443"/>
      <rect id="Rectangle_1860" data-name="Rectangle 1860" width="17.248" height="17.079" transform="translate(118.691 127.513) rotate(90)" fill="#ec5958"/>
      <rect id="Rectangle_1861" data-name="Rectangle 1861" width="35.816" height="36.925" transform="translate(286.653 120.901)" fill="#a23837"/>
      <rect id="Rectangle_1862" data-name="Rectangle 1862" width="36.992" height="36.925" transform="translate(289.356 120.901)" fill="#1e202d"/>
      <rect id="Rectangle_1863" data-name="Rectangle 1863" width="31.106" height="30.795" transform="translate(323.252 123.815) rotate(90)" fill="#bf4443"/>
      <ellipse id="Ellipse_1" data-name="Ellipse 1" cx="9.609" cy="9.021" rx="9.609" ry="9.021" transform="translate(298.243 130.342)" fill="#ec5958"/>
      <rect id="Rectangle_1864" data-name="Rectangle 1864" width="28.6" height="29.486" transform="translate(137.343 139.97)" fill="#a23837"/>
      <rect id="Rectangle_1865" data-name="Rectangle 1865" width="29.543" height="29.486" transform="translate(139.496 139.97)" fill="#1e202d"/>
      <rect id="Rectangle_1866" data-name="Rectangle 1866" width="24.836" height="24.59" transform="translate(166.566 142.293) rotate(90)" fill="#bf4443"/>
      <path id="Path_838" data-name="Path 838" d="M162.467,125.3l-6.727,10.939h13.454Z" transform="translate(-8.196 23.129)" fill="#ec5958"/>
      <path id="Path_12112" data-name="Path 12112" d="M133.366,0c73.656,0,133.366,3.273,133.366,7.31s-59.71,7.31-133.366,7.31S0,11.347,0,7.31,59.71,0,133.366,0Z" transform="translate(79.014 328.998)" fill="#ec5958"/>
      <path id="Path_839" data-name="Path 839" d="M333.393,162.006l-6.823-2.6s-9,15.414-11.583,16.2c-3.508,1.059-10.765,4-15.077,4.553a6.986,6.986,0,0,0-1.451,3.384c5.785,1.808,18.5-.594,21.22-2.493C325.875,176.723,333.393,162.006,333.393,162.006Z" transform="translate(-52.745 11.046)" fill="#e58a7b"/>
      <path id="Path_840" data-name="Path 840" d="M345.642,156.057c1.273,4.417-5.62,13.29-5.62,13.29l-9.052-4.766s1.685-3.649,3.756-7.362C338.055,151.214,344.19,151.014,345.642,156.057Z" transform="translate(-62.896 13.501)" fill="#407bff"/>
      <path id="Path_841" data-name="Path 841" d="M345.642,156.057c1.273,4.417-5.62,13.29-5.62,13.29l-9.052-4.766s1.685-3.649,3.756-7.362C338.055,151.214,344.19,151.014,345.642,156.057Z" transform="translate(-62.896 13.501)" fill="#1e202d"/>
      <path id="Path_842" data-name="Path 842" d="M336.21,169.556l3.556,1.873.619-10.248C338.322,162.672,336.863,167.166,336.21,169.556Z" transform="translate(-64.531 10.419)" opacity="0.2"/>
      <path id="Path_843" data-name="Path 843" d="M341.748,152.034s-7.03,14.685-2.93,42.026h27.7c.44-3.991-1.018-23.467,4.258-42.272a74.058,74.058,0,0,0-9.2-1.1,108.459,108.459,0,0,0-11.776,0A56.928,56.928,0,0,0,341.748,152.034Z" transform="translate(-64.944 14.192)" fill="#407bff"/>
      <path id="Path_844" data-name="Path 844" d="M341.748,152.034s-7.03,14.685-2.93,42.026h27.7c.44-3.991-1.018-23.467,4.258-42.272a74.058,74.058,0,0,0-9.2-1.1,108.459,108.459,0,0,0-11.776,0A56.928,56.928,0,0,0,341.748,152.034Z" transform="translate(-64.944 14.192)" fill="#ec5958"/>
      <path id="Path_845" data-name="Path 845" d="M334.32,416.453c-.041.691,10.462,1.253,23.455,1.253s23.572-.562,23.614-1.253-10.455-1.253-23.455-1.253S334.368,415.762,334.32,416.453Z" transform="translate(-63.941 -79.563)" fill="#263238"/>
      <path id="Path_1204" data-name="Path 1204" d="M0,0,5.241.108l.241,11.129L.241,11.129Z" transform="translate(284.586 321.249) rotate(-21.07)" fill="#e58a7b"/>
      <path id="Path_846" data-name="Path 846" d="M389.838,403.276h-5.179l-1.9-11.256h5.179Z" transform="translate(-79.063 -71.352)" fill="#e58a7b"/>
      <path id="Path_847" data-name="Path 847" d="M381.262,408.58h5.819a.41.41,0,0,1,.42.329l.75,4.32a.786.786,0,0,1-.812.865c-2.029-.032-3.006-.142-5.565-.142-1.575,0-4.829.155-7,.155-2.125,0-2.332-2.015-1.431-2.2,4.045-.82,5.613-1.95,6.961-3.029A1.38,1.38,0,0,1,381.262,408.58Z" transform="translate(-75.996 -77.218)" fill="#263238"/>
      <path id="Path_848" data-name="Path 848" d="M354.97,405.115l5.516-1.5a.433.433,0,0,1,.509.2l2.043,3.875a.733.733,0,0,1-.516,1.027c-1.995.51-3.343.833-5.847,1.518-1.727.471-3.487,1.24-5.193,1.75a26.314,26.314,0,0,1-5.4.368c-2.125,0-2.6-2.105-1.692-2.2,2.3-.245,2.614-.129,3.886-.73a17.982,17.982,0,0,0,5.558-3.6A2.676,2.676,0,0,1,354.97,405.115Z" transform="translate(-66.948 -75.451)" fill="#263238"/>
      <path id="Path_849" data-name="Path 849" d="M298.181,190.234l-5.7-2.254-2.346,5.928a24.873,24.873,0,0,0,7.043,0Z" transform="translate(-50.15 0.926)" fill="#e58a7b"/>
      <path id="Path_850" data-name="Path 850" d="M287.321,187.76l-.151,3.939,2.043,2.131,2.346-5.928Z" transform="translate(-49.223 1.004)" fill="#e58a7b"/>
      <path id="Path_1205" data-name="Path 1205" d="M0,0,5.241.109l.125,5.737L.125,5.737Z" transform="translate(284.604 321.24) rotate(-21.107)" fill="#cf6f64"/>
      <path id="Path_851" data-name="Path 851" d="M387.939,392.02H382.76l.984,5.805h5.179Z" transform="translate(-79.063 -71.352)" fill="#cf6f64"/>
      <path id="Path_852" data-name="Path 852" d="M338.12,195.866c.1,1.169.22,2.364.365,3.59l20.594-6.277A14.783,14.783,0,0,0,367,187.788c.076-1.724.186-3.539.337-5.431.069-.923.158-1.866.248-2.822.1-.994.213-2.008.337-3.035Z" transform="translate(-65.127 4.993)" opacity="0.2"/>
      <path id="Path_853" data-name="Path 853" d="M347.582,170.516l-.7-.077c.406-3.222,2.971-5.767,5.675-5.709l-.021.665C350.2,165.33,347.946,167.622,347.582,170.516Z" transform="translate(-67.862 9.163)" fill="#fff"/>
      <path id="Path_854" data-name="Path 854" d="M353.177,179.746h-.117l.021-.665c2.366.084,4.588-2.234,4.952-5.121l.7.077C358.336,177.215,355.853,179.746,353.177,179.746Z" transform="translate(-69.791 5.893)" fill="#fff"/>
      <path id="Path_855" data-name="Path 855" d="M366.335,131.5c-.963,3.558-2.112,10.074.392,12.45,0,0-1.747,3.61-8.791,3.61-6.431,0-2.985-3.61-2.985-3.61,4.285-.949,4.361-3.888,3.8-6.651Z" transform="translate(-70.094 20.933)" fill="#e58a7b"/>
      <path id="Path_856" data-name="Path 856" d="M365.382,135.16l-4.492,3.429a10.135,10.135,0,0,1,.241,1.963c1.314,1.227,3.948-1.879,4.216-3.468A4.911,4.911,0,0,0,365.382,135.16Z" transform="translate(-72.235 19.637)" fill="#cf6f64"/>
      <path id="Path_857" data-name="Path 857" d="M349.519,129.644a4.543,4.543,0,0,0,2.916,2.028c1.651.342,2.483-1.078,2.029-2.518-.413-1.292-1.761-3.029-3.425-2.732A2.128,2.128,0,0,0,349.519,129.644Z" transform="translate(-68.588 22.744)" fill="#cf6f64"/>
      <path id="Path_858" data-name="Path 858" d="M352.576,113.693c-2.573,1.1-3.48,10.7-.248,12.121S357.446,111.595,352.576,113.693Z" transform="translate(-68.916 27.31)" fill="#263238"/>
      <path id="Path_859" data-name="Path 859" d="M366.274,119.329c-.619,4.817-.715,7.652-3.46,10.119-4.127,3.72-10.325,1.511-11.246-3.293-.832-4.327.316-11.475,5.455-13.393C362.085,110.876,366.887,114.512,366.274,119.329Z" transform="translate(-69.249 27.75)" fill="#e58a7b"/>
      <path id="Path_860" data-name="Path 860" d="M356.043,110.539c3.8-.917,6.6-1.537,5.606,1.447-1.334,3.971-2.93,7.82-.784,8,1.3.11,7.085-2.2,6.349-4.52-.64-2.028,2.05-2.577,2.545-3.61,1.782-3.726-3.315-3.242-2.407-5.5.88-2.2-4.106-5.9-6.872-4.088-4.478,2.932-12.161,2.893-8.123-1.918,2.9-3.442-2.27-2.738-2.27-2.738s3.123,1.737-2.132,4.423C342.389,104.9,347.486,112.6,356.043,110.539Z" transform="translate(-67.471 32.957)" fill="#263238"/>
      <path id="Path_861" data-name="Path 861" d="M373.626,129.644a5.34,5.34,0,0,1-3.171,2.028c-1.692.342-2.346-1.078-1.713-2.518.571-1.292,2.139-3.029,3.762-2.732A1.948,1.948,0,0,1,373.626,129.644Z" transform="translate(-74.612 22.744)" fill="#e58a7b"/>
      <path id="Path_862" data-name="Path 862" d="M337.121,217.94s-4.65,39.069-5.014,53.9c-.378,15.421,15.758,63.537,15.758,63.537l8.261-3.255s-9.616-43.957-8.282-59.107c1.458-16.512,7.484-55.071,7.484-55.071H337.121Z" transform="translate(-63.249 -9.687)" fill="#1e202d"/>
      <path id="Path_863" data-name="Path 863" d="M355.336,233.692c-3.7,7.22-1.211,21.491.8,29.957.763-5.973,1.671-12.457,2.531-18.456C358.583,235.971,357.819,228.849,355.336,233.692Z" transform="translate(-69.908 -14.713)" fill="#060000" opacity="0.2"/>
      <path id="Path_864" data-name="Path 864" d="M361.932,390.83c.041-.013.977,2.473.977,2.473l-9.52,3.752-1.5-2.622Z" transform="translate(-69.426 -70.931)" fill="#407bff"/>
      <path id="Path_865" data-name="Path 865" d="M353.69,217.94s3.556,37.157,5.915,51.073c2.579,15.247,12.725,66.023,12.725,66.023h9.485s-5.682-49.543-6.755-64.641c-1.162-16.383-3.487-52.455-3.487-52.455H353.69Z" transform="translate(-69.988 -9.687)" fill="#31323b"/>
      <path id="Path_866" data-name="Path 866" d="M389.854,395.478c.041,0,.316,2.486.316,2.486H379.743L379,395.11Z" transform="translate(-77.889 -72.447)" fill="#407bff"/>
      <path id="Path_867" data-name="Path 867" d="M385.233,332.66a.088.088,0,0,1-.089-.071c-.055-.452-5.179-45.184-6.142-58.739-1.046-14.717-3.15-47.341-3.171-47.67a.093.093,0,0,1,.083-.09h.007a.088.088,0,0,1,.089.077c.021.329,2.125,32.953,3.171,47.67.963,13.555,6.087,58.287,6.142,58.732a.082.082,0,0,1-.076.09Z" transform="translate(-76.899 -12.574)" opacity="0.2"/>
      <path id="Path_868" data-name="Path 868" d="M361.172,124.9c-.028.394-.268.71-.537.71s-.475-.316-.447-.71.268-.71.537-.71S361.2,124.513,361.172,124.9Z" transform="translate(-72.016 23.523)" fill="#263238"/>
      <path id="Path_869" data-name="Path 869" d="M354.313,124.9c-.028.394-.268.71-.537.71s-.475-.316-.447-.71.268-.71.537-.71S354.34,124.513,354.313,124.9Z" transform="translate(-69.875 23.523)" fill="#263238"/>
      <path id="Path_870" data-name="Path 870" d="M355.918,125.6a15.018,15.018,0,0,1-2.208,3.352,2.486,2.486,0,0,0,1.974.349Z" transform="translate(-69.994 23.023)" fill="#df5753"/>
      <path id="Path_871" data-name="Path 871" d="M357.047,133.058a.114.114,0,0,1-.117-.116.131.131,0,0,1,.131-.116,3.586,3.586,0,0,0,2.772-1.214.129.129,0,0,1,.172-.032.109.109,0,0,1,.027.161A3.824,3.824,0,0,1,357.047,133.058Z" transform="translate(-70.999 20.913)" fill="#263238"/>
      <path id="Path_872" data-name="Path 872" d="M361.793,123.021a.247.247,0,0,1-.213-.019,2.067,2.067,0,0,0-1.754-.174.245.245,0,0,1-.323-.11.24.24,0,0,1,.138-.31,2.54,2.54,0,0,1,2.215.194.217.217,0,0,1,.062.316A.212.212,0,0,1,361.793,123.021Z" transform="translate(-71.797 24.213)" fill="#263238"/>
      <path id="Path_873" data-name="Path 873" d="M352.034,120.8a.2.2,0,0,1-.1-.052.217.217,0,0,1,0-.323,2.673,2.673,0,0,1,2.119-.8.219.219,0,0,1,.193.265.263.263,0,0,1-.289.194h0a2.113,2.113,0,0,0-1.671.652A.269.269,0,0,1,352.034,120.8Z" transform="translate(-69.418 25.144)" fill="#263238"/>
      <path id="Path_874" data-name="Path 874" d="M375.086,161.339l-7.154-1.789s-7.016,16.215-9.492,17.274a149.751,149.751,0,0,0-15.538,8.828,6.348,6.348,0,0,0,.413,3.526c6.17-1.053,18.042-5.34,20.518-7.517C369.473,176.7,375.086,161.339,375.086,161.339Z" transform="translate(-66.594 10.997)" fill="#e58a7b"/>
      <path id="Path_875" data-name="Path 875" d="M381.923,409.228a1.62,1.62,0,0,1-.984-.245.625.625,0,0,1-.213-.607.388.388,0,0,1,.227-.323c.585-.278,2.2.685,2.38.8a.1.1,0,0,1,.048.116.122.122,0,0,1-.1.09A7.318,7.318,0,0,1,381.923,409.228Zm-.708-1.007a.383.383,0,0,0-.158.026.145.145,0,0,0-.083.136.443.443,0,0,0,.138.42,2.606,2.606,0,0,0,1.83.09A4.736,4.736,0,0,0,381.214,408.22Z" transform="translate(-78.425 -77.014)" fill="#263238"/>
      <path id="Path_876" data-name="Path 876" d="M383.767,408.423a.137.137,0,0,1-.055-.013c-.516-.271-1.486-1.337-1.348-1.879a.424.424,0,0,1,.413-.3.677.677,0,0,1,.516.149c.571.458.612,1.866.612,1.924a.109.109,0,0,1-.062.1A.166.166,0,0,1,383.767,408.423Zm-.922-1.97a.159.159,0,0,0-.055.007c-.158.019-.179.09-.186.116-.083.323.523,1.124,1.032,1.5a2.531,2.531,0,0,0-.516-1.524A.4.4,0,0,0,382.845,406.454Z" transform="translate(-78.935 -76.384)" fill="#263238"/>
      <path id="Path_877" data-name="Path 877" d="M355.176,408.082a2.1,2.1,0,0,1-1.3-.006.59.59,0,0,1-.337-.491.385.385,0,0,1,.138-.342c.557-.465,2.8.032,3.054.09a.114.114,0,0,1,.014.22A10.5,10.5,0,0,1,355.176,408.082Zm-1.121-.768a.564.564,0,0,0-.22.09.147.147,0,0,0-.055.136.4.4,0,0,0,.22.329,3.6,3.6,0,0,0,2.3-.387A7.14,7.14,0,0,0,354.055,407.313Z" transform="translate(-69.94 -76.675)" fill="#263238"/>
      <path id="Path_878" data-name="Path 878" d="M357.193,406.809a.062.062,0,0,1-.048,0c-.667-.116-2.091-.859-2.1-1.414,0-.129.062-.31.385-.413a.931.931,0,0,1,.708.039c.75.349,1.135,1.589,1.156,1.64a.107.107,0,0,1-.027.11A.186.186,0,0,1,357.193,406.809Zm-1.63-1.634-.069.019c-.213.071-.213.155-.213.181.007.336,1,.949,1.692,1.156a2.5,2.5,0,0,0-.963-1.3A.672.672,0,0,0,355.563,405.175Z" transform="translate(-70.409 -75.925)" fill="#263238"/>
      <path id="Path_879" data-name="Path 879" d="M340.146,199.37l-7.174,3.1-.832,1.9,2.648,1.673s4.946-.5,6.356-3.487Z" transform="translate(-63.261 -3.109)" fill="#e58a7b"/>
      <path id="Path_880" data-name="Path 880" d="M343.614,203.159a8.985,8.985,0,0,0-1.334-3.655l1.128-.794a9.868,9.868,0,0,1,1.6,4.23Z" transform="translate(-66.426 -2.875)" fill="#263238"/>
      <path id="Path_881" data-name="Path 881" d="M344.829,200.454a1.163,1.163,0,0,1-.832,1.453,1.293,1.293,0,0,1-1.678-.5,1.163,1.163,0,0,1,.832-1.453A1.3,1.3,0,0,1,344.829,200.454Z" transform="translate(-66.417 -3.276)" fill="#263238"/>
      <path id="Path_882" data-name="Path 882" d="M326.3,206.676l.956.9L333.694,205l-2.545-.827Z" transform="translate(-61.438 -4.809)" fill="#e58a7b"/>
      <path id="Path_883" data-name="Path 883" d="M361.932,390.83c.041-.013.977,2.473.977,2.473l-9.52,3.752-1.5-2.622Z" transform="translate(-69.426 -70.931)" fill="#263238"/>
      <path id="Path_884" data-name="Path 884" d="M389.854,395.478c.041,0,.316,2.486.316,2.486H379.743L379,395.11Z" transform="translate(-77.889 -72.447)" fill="#263238"/>
      <path id="Path_885" data-name="Path 885" d="M385.32,156.919c1.892,5.728-5.475,13.548-5.475,13.548l-10.214-3.913a94.788,94.788,0,0,1,4.175-9.732C376.921,150.487,383.407,151.139,385.32,156.919Z" transform="translate(-74.963 13.557)" fill="#407bff"/>
      <path id="Path_886" data-name="Path 886" d="M385.32,156.919c1.892,5.728-5.475,13.548-5.475,13.548l-10.214-3.913a94.788,94.788,0,0,1,4.175-9.732C376.921,150.487,383.407,151.139,385.32,156.919Z" transform="translate(-74.963 13.557)" fill="#1e202d"/>
      <path id="Path_1206" data-name="Path 1206" d="M0,0,11.1.032l0,.708L0,.708Z" transform="translate(265.225 150.488) rotate(-87.421)" fill="#506547"/>
      <path id="Path_887" data-name="Path 887" d="M285.348,75.19H204.182L196.63,233.867H277.8Z" transform="translate(-20.96 40.88)" fill="#a23837"/>
      <path id="Path_888" data-name="Path 888" d="M281.828,78.57H200.662L193.11,237.241h81.165Z" transform="translate(-19.861 39.683)" fill="#1e202d" opacity="0.56"/>
      <g transform="matrix(1, 0, 0, 1, 20, 25)" filter="url(#Path_889)">
        <path id="Path_889-2" data-name="Path 889" d="M278.3,81.94H197.139L189.58,240.617h81.165Z" transform="translate(-38.76 13.49)" fill="#ec5958"/>
      </g>
      <path id="Path_890" data-name="Path 890" d="M273.437,189.11H204.158l-.578,12.14h69.279Z" transform="translate(-23.13 0.526)" fill="#1e202d"/>
      <path id="Path_891" data-name="Path 891" d="M242.594,175.39h-37.68l-.255,5.431h37.68Z" transform="translate(-23.467 5.386)" fill="#bf4443"/>
      <path id="Path_892" data-name="Path 892" d="M271.167,239.85H201.888L201.31,252h69.279Z" transform="translate(-22.421 -17.448)" fill="#1e202d"/>
      <path id="Path_893" data-name="Path 893" d="M262.942,284.04H216.355l-.695,14.549h46.588Z" transform="translate(-26.9 -33.102)" fill="#d44746"/>
      <path id="Path_894" data-name="Path 894" d="M258.69,302H212.1a.079.079,0,0,1-.083-.084l.695-14.556a.081.081,0,0,1,.083-.071h46.587a.079.079,0,0,1,.083.084l-.695,14.555A.086.086,0,0,1,258.69,302Zm-46.5-.155h46.422l.688-14.4H212.873Z" transform="translate(-25.764 -34.253)" fill="#fff"/>
      <path id="Path_895" data-name="Path 895" d="M233.749,226.13h-31.1l-.254,5.437h31.1Z" transform="translate(-22.758 -12.588)" fill="#bf4443"/>
      <path id="Path_896" data-name="Path 896" d="M267.113,119.3a16.467,16.467,0,0,1-3.824,9.719,18.935,18.935,0,0,1-14.582,6.819,17.03,17.03,0,0,1-13.922-6.819,15.149,15.149,0,0,1-2.9-9.719c.433-9.138,8.674-16.544,18.4-16.544S267.547,110.167,267.113,119.3Z" transform="translate(-31.959 31.114)" fill="#fff"/>
      <path id="Path_897" data-name="Path 897" d="M281.269,105.708a4.382,4.382,0,0,1-1.018,2.583,5.032,5.032,0,0,1-3.873,1.815,4.536,4.536,0,0,1-3.7-1.815,4,4,0,0,1-.77-2.583,4.818,4.818,0,0,1,4.891-4.4A4.3,4.3,0,0,1,281.269,105.708Z" transform="translate(-44.457 31.628)" fill="#45ab1f"/>
      <path id="Path_898" data-name="Path 898" d="M213.387,197.444a2.129,2.129,0,0,1-2.167,1.944,1.905,1.905,0,0,1-1.981-1.944,2.129,2.129,0,0,1,2.167-1.944A1.9,1.9,0,0,1,213.387,197.444Z" transform="translate(-24.896 -1.738)" fill="#e2e2e2"/>
      <path id="Path_899" data-name="Path 899" d="M226.867,197.444a2.129,2.129,0,0,1-2.167,1.944,1.905,1.905,0,0,1-1.981-1.944,2.129,2.129,0,0,1,2.167-1.944A1.894,1.894,0,0,1,226.867,197.444Z" transform="translate(-29.104 -1.738)" fill="#e2e2e2"/>
      <path id="Path_900" data-name="Path 900" d="M240.357,197.444a2.129,2.129,0,0,1-2.167,1.944,1.905,1.905,0,0,1-1.981-1.944,2.129,2.129,0,0,1,2.167-1.944A1.9,1.9,0,0,1,240.357,197.444Z" transform="translate(-33.314 -1.738)" fill="#e2e2e2"/>
      <path id="Path_901" data-name="Path 901" d="M211.117,248.184a2.129,2.129,0,0,1-2.167,1.944,1.905,1.905,0,0,1-1.981-1.944,2.129,2.129,0,0,1,2.167-1.944A1.905,1.905,0,0,1,211.117,248.184Z" transform="translate(-24.187 -19.712)" fill="#e2e2e2"/>
      <path id="Path_902" data-name="Path 902" d="M224.6,248.184a2.129,2.129,0,0,1-2.167,1.944,1.905,1.905,0,0,1-1.981-1.944,2.129,2.129,0,0,1,2.167-1.944A1.9,1.9,0,0,1,224.6,248.184Z" transform="translate(-28.395 -19.712)" fill="#e2e2e2"/>
      <path id="Path_903" data-name="Path 903" d="M238.087,248.184a2.129,2.129,0,0,1-2.167,1.944,1.905,1.905,0,0,1-1.981-1.944,2.129,2.129,0,0,1,2.167-1.944A1.9,1.9,0,0,1,238.087,248.184Z" transform="translate(-32.606 -19.712)" fill="#e2e2e2"/>
      <path id="Path_904" data-name="Path 904" d="M251.577,248.184a2.129,2.129,0,0,1-2.167,1.944,1.905,1.905,0,0,1-1.981-1.944,2.129,2.129,0,0,1,2.167-1.944A1.905,1.905,0,0,1,251.577,248.184Z" transform="translate(-36.817 -19.712)" fill="#e2e2e2"/>
      <path id="Path_905" data-name="Path 905" d="M265.067,248.184a2.129,2.129,0,0,1-2.167,1.944,1.905,1.905,0,0,1-1.981-1.944,2.129,2.129,0,0,1,2.167-1.944A1.905,1.905,0,0,1,265.067,248.184Z" transform="translate(-41.028 -19.712)" fill="#e2e2e2"/>
      <path id="Path_1207" data-name="Path 1207" d="M6.863,0A7.468,7.468,0,0,1,14.15,6.977,6.413,6.413,0,0,1,7.289,13.5,7.468,7.468,0,0,1,0,6.531,6.413,6.413,0,0,1,6.863,0Z" transform="translate(208.011 145.01) rotate(-44.356)" fill="#407bff"/>
      <path id="Path_906" data-name="Path 906" d="M264.6,140.6a18.935,18.935,0,0,1-14.582,6.819A17.03,17.03,0,0,1,236.1,140.6c3.343-3.126,8.632-5.153,14.493-5.153S261.557,137.478,264.6,140.6Z" transform="translate(-33.281 19.534)" fill="#407bff"/>
      <path id="Path_1208" data-name="Path 1208" d="M6.863,0A7.468,7.468,0,0,1,14.15,6.977,6.413,6.413,0,0,1,7.289,13.5,7.468,7.468,0,0,1,0,6.531,6.413,6.413,0,0,1,6.863,0Z" transform="translate(208.011 145.01) rotate(-44.356)" fill="#bf4443"/>
      <path id="Path_907" data-name="Path 907" d="M264.6,140.6a18.935,18.935,0,0,1-14.582,6.819A17.03,17.03,0,0,1,236.1,140.6c3.343-3.126,8.632-5.153,14.493-5.153S261.557,137.478,264.6,140.6Z" transform="translate(-33.281 19.534)" fill="#bf4443"/>
      <path id="Path_908" data-name="Path 908" d="M125.306,211.186c-.653,1.343-1.334,2.816-1.94,4.256s-1.211,2.906-1.74,4.385a52.289,52.289,0,0,0-2.456,8.912l-.158.949a1.477,1.477,0,0,0,.048.484,4.764,4.764,0,0,0,.757,1.5,19.141,19.141,0,0,0,3.054,3.216,47.245,47.245,0,0,0,3.8,2.983c1.321.956,2.71,1.886,4.072,2.757l-1.279,2.267a49.66,49.66,0,0,1-9.272-4.966,21.777,21.777,0,0,1-4.155-3.668,9.069,9.069,0,0,1-1.644-2.757,5.905,5.905,0,0,1-.33-1.9c.007-.161.014-.381.028-.491l.034-.323.069-.639a47.321,47.321,0,0,1,2.249-9.906c.537-1.6,1.107-3.171,1.761-4.721s1.328-3.054,2.16-4.624Z" transform="translate(4.814 -6.485)" fill="#e58a7b"/>
      <path id="Path_909" data-name="Path 909" d="M136.326,256.162l4.863-2.312-1.259,5.018s-3.336.878-4.891-.646Z" transform="translate(-1.734 -22.407)" fill="#e58a7b"/>
      <path id="Path_910" data-name="Path 910" d="M147.859,254.67l-1.293,4.146-4.416.045,1.259-5.011Z" transform="translate(-3.954 -22.407)" fill="#e58a7b"/>
      <path id="Path_911" data-name="Path 911" d="M160.43,175a12.355,12.355,0,0,0,1.087,2.551,1.164,1.164,0,0,1-1.087.329Z" transform="translate(-9.66 5.524)" fill="#df5753"/>
      <ellipse id="Ellipse_5" data-name="Ellipse 5" cx="0.516" cy="0.743" rx="0.516" ry="0.743" transform="translate(150.109 179.078)" fill="#263238"/>
      <path id="Path_912" data-name="Path 912" d="M160.04,172.644l1.046-.284C161.085,172.366,160.549,173.128,160.04,172.644Z" transform="translate(-9.539 6.459)" fill="#263238"/>
      <path id="Path_913" data-name="Path 913" d="M140.454,182.34c.626,3.009,1.252,8.518-.984,10.52,0,0,.874,3.048,6.823,3.048,6.541,0,3.13-3.048,3.13-3.048-3.57-.8-3.48-3.287-2.855-5.625Z" transform="translate(-3.117 2.924)" fill="#e58a7b"/>
      <path id="Path_914" data-name="Path 914" d="M138.364,167.7c.33,5.018.351,7.149,3.054,9.725,4.058,3.875,10.558,2.4,11.831-2.609,1.149-4.507.42-11.96-4.815-13.955C143.282,158.889,138.04,162.68,138.364,167.7Z" transform="translate(-2.768 10.721)" fill="#e58a7b"/>
      <path id="Path_915" data-name="Path 915" d="M136.574,162.821c-2.683.917-6.259.232-4.856,8,1.486,8.227-.8,10.933-.8,10.933a58.108,58.108,0,0,0,20.56-.123s-3.171-5.2-2.284-9c1.135-4.843.234-6.638.234-6.638S140.343,161.53,136.574,162.821Z" transform="translate(-0.448 9.921)" fill="#263238"/>
      <path id="Path_916" data-name="Path 916" d="M155.64,175.02a4.824,4.824,0,0,0,.839,2.693c.722,1.046,1.582.62,1.8-.465.193-.975.048-2.7-.88-3.371C156.493,173.218,155.654,173.883,155.64,175.02Z" transform="translate(-8.165 6.014)" fill="#e58a7b"/>
      <path id="Path_917" data-name="Path 917" d="M135.7,162.027c-.77-2.028,2.9-5.153,10.675-3.855s8.11,7.368,8.11,7.368l-1.575-1.75.069,1.847L145,167.077Z" transform="translate(-1.911 11.594)" fill="#263238"/>
      <path id="Path_918" data-name="Path 918" d="M136.7,197.967h0a1.141,1.141,0,0,1,1-1.3c2.421-.375,7.917-1.137,10.689-.775,2.057.265,2.6,1.395,2.689,2.318a1.171,1.171,0,0,1-1.266,1.227l-11.962-.51A1.2,1.2,0,0,1,136.7,197.967Z" transform="translate(-2.248 -1.842)" fill="#407bff"/>
      <path id="Path_919" data-name="Path 919" d="M136.7,197.967h0a1.141,1.141,0,0,1,1-1.3c2.421-.375,7.917-1.137,10.689-.775,2.057.265,2.6,1.395,2.689,2.318a1.171,1.171,0,0,1-1.266,1.227l-11.962-.51A1.2,1.2,0,0,1,136.7,197.967Z" transform="translate(-2.248 -1.842)" fill="#bf4443"/>
      <path id="Path_920" data-name="Path 920" d="M146.76,368.681l4.437,2.893,7.422-9.448-4.437-2.887Z" transform="translate(-5.393 -59.74)" fill="#e58a7b"/>
      <path id="Path_921" data-name="Path 921" d="M131.72,368.09,136.4,370.6l6.569-9.99-4.684-2.506Z" transform="translate(-0.698 -59.336)" fill="#e58a7b"/>
      <path id="Path_922" data-name="Path 922" d="M160.241,362.127,156.417,367l-4.437-2.887,3.831-4.869Z" transform="translate(-7.022 -59.74)" fill="#cf6f64"/>
      <path id="Path_923" data-name="Path 923" d="M139.724,358.1l4.691,2.512-3.384,5.147-4.691-2.512Z" transform="translate(-2.14 -59.336)" fill="#cf6f64"/>
      <path id="Path_924" data-name="Path 924" d="M144.339,247.99s17.32,20.5,14.073,40.089c-2.628,15.828-17.822,37.261-17.822,37.261l-7.147-3.332a212.017,212.017,0,0,0,12.863-29.344,20.578,20.578,0,0,0-2.772-18.792C134.757,261.842,120.7,269,130.162,247.99Z" transform="translate(0.771 -20.332)" fill="#407bff"/>
      <path id="Path_925" data-name="Path 925" d="M144.339,247.99s17.32,20.5,14.073,40.089c-2.628,15.828-17.822,37.261-17.822,37.261l-7.147-3.332a212.017,212.017,0,0,0,12.863-29.344,20.578,20.578,0,0,0-2.772-18.792C134.757,261.842,120.7,269,130.162,247.99Z" transform="translate(0.771 -20.332)" fill="#1e202d"/>
      <path id="Path_926" data-name="Path 926" d="M163.407,267.091l-2.518-2.351c0,.187,4.877,28.446,6.246,36.389a45.655,45.655,0,0,0,1.843-7.123C170.575,284.416,167.232,274.6,163.407,267.091Z" transform="translate(-9.804 -26.265)" fill="#060000"/>
      <path id="Path_927" data-name="Path 927" d="M154.231,247.99s20.855,25.753,21.44,41.193c.488,12.941-22.719,37.939-22.719,37.939l-6.741-4.094s13.571-17.771,16.99-32.295c-1.3-14.381-29.261-42.743-29.261-42.743Z" transform="translate(-1.391 -20.332)" fill="#407bff"/>
      <path id="Path_928" data-name="Path 928" d="M154.231,247.99s20.855,25.753,21.44,41.193c.488,12.941-22.719,37.939-22.719,37.939l-6.741-4.094s13.571-17.771,16.99-32.295c-1.3-14.381-29.261-42.743-29.261-42.743Z" transform="translate(-1.391 -20.332)" fill="#1e202d"/>
      <path id="Path_929" data-name="Path 929" d="M123.948,200.361c-2.235.5-4.368,8.1-4.368,8.1l8.708,5.457s2.9-6.019,1.892-8.653C129.127,202.531,126.768,199.735,123.948,200.361Z" transform="translate(3.092 -3.428)" fill="#1e202d"/>
      <path id="Path_930" data-name="Path 930" d="M128.135,207.99l-.605,6.632,3.24,2.041a26.1,26.1,0,0,0,1.974-5.9Z" transform="translate(0.61 -6.162)" opacity="0.2"/>
      <path id="Path_931" data-name="Path 931" d="M154.31,199.835s2.573.852-2.579,30.577H129.816c.365-8.376.378-13.535-3.886-30.725a68.834,68.834,0,0,1,9.307-1.149,74.112,74.112,0,0,1,9.953,0C149.468,198.905,154.31,199.835,154.31,199.835Z" transform="translate(1.109 -2.754)" fill="#d44746"/>
      <path id="Path_932" data-name="Path 932" d="M168.048,206.8c.5,1.292,1.025,2.68,1.568,4.023.523,1.356,1.073,2.712,1.63,4.062l1.685,4.055.426,1.014.213.5.11.252c.021.045.014.039.007.039a1.385,1.385,0,0,0-.482-.4,1.975,1.975,0,0,0-.9-.245,1.832,1.832,0,0,0-.764.129c-.31.142-.316.2-.31.187a.631.631,0,0,0,.151-.149,9.152,9.152,0,0,0,.984-1.5c.323-.594.633-1.227.942-1.866.605-1.285,1.162-2.628,1.726-3.978s1.08-2.719,1.6-4.094l1.568-4.12,2.648.626c-.523,2.951-1.2,5.838-2.008,8.731-.392,1.453-.853,2.893-1.376,4.346-.261.73-.55,1.453-.887,2.2a13.677,13.677,0,0,1-1.307,2.338,5.39,5.39,0,0,1-.6.7,3.907,3.907,0,0,1-1.252.833,3.279,3.279,0,0,1-1.334.233,3.174,3.174,0,0,1-1.451-.413,3.521,3.521,0,0,1-1.252-1.22c-.1-.161-.193-.336-.254-.452l-.131-.252-.261-.5-.523-1c-.681-1.343-1.348-2.693-1.974-4.062s-1.231-2.744-1.823-4.133c-.564-1.408-1.121-2.77-1.623-4.269Z" transform="translate(-10.4 -5)" fill="#e58a7b"/>
      <path id="Path_933" data-name="Path 933" d="M164.277,200.534c2.634.588,5.592,7.9,5.592,7.9l-7.828,6.264s-5.076-7.969-4.045-10.6C159.063,201.354,160.838,199.765,164.277,200.534Z" transform="translate(-8.857 -3.453)" fill="#1e202d"/>
      <path id="Path_934" data-name="Path 934" d="M186.4,200.007l2.744-2.157,1.912,2.8-1.41,2.338s-2.242,1.924-4.23.949h0A3.226,3.226,0,0,1,186.4,200.007Z" transform="translate(-17.366 -2.57)" fill="#e58a7b"/>
      <path id="Path_935" data-name="Path 935" d="M195.957,197.856l-.206.7-4.354.685-.426-1.395Z" transform="translate(-19.193 -2.57)" fill="#e58a7b"/>
      <path id="Path_936" data-name="Path 936" d="M158.835,367.175l-7.855-4.766,1.41-2.3,8.825,5.1Z" transform="translate(-6.71 -60.049)" fill="#263238"/>
      <path id="Path_937" data-name="Path 937" d="M142.068,376.276a4.97,4.97,0,0,1-1.947-.633.111.111,0,0,1-.062-.116.129.129,0,0,1,.089-.1c.213-.065,2.077-.6,2.6-.181a.385.385,0,0,1,.144.387.7.7,0,0,1-.385.562A1.042,1.042,0,0,1,142.068,376.276Zm-1.548-.71a2.713,2.713,0,0,0,1.871.407.449.449,0,0,0,.248-.375c.014-.1-.021-.149-.062-.174C142.309,375.2,141.277,375.372,140.52,375.566Z" transform="translate(-3.301 -65.353)" fill="#263238"/>
      <path id="Path_938" data-name="Path 938" d="M140.193,374.87a.114.114,0,0,1-.089-.039.126.126,0,0,1-.034-.116c.021-.058.447-1.459,1.156-1.782a.714.714,0,0,1,.564-.019.423.423,0,0,1,.316.433c-.048.581-1.307,1.382-1.885,1.518A.044.044,0,0,1,140.193,374.87Zm1.334-1.763a.441.441,0,0,0-.193.045c-.42.187-.777.949-.942,1.408.605-.239,1.431-.872,1.458-1.227.007-.058-.007-.129-.158-.194A.537.537,0,0,0,141.527,373.107Z" transform="translate(-3.304 -64.567)" fill="#263238"/>
      <path id="Path_939" data-name="Path 939" d="M156.142,380.311c-.777,0-1.857-.936-2.449-1.511a.1.1,0,0,1-.021-.136.145.145,0,0,1,.131-.065c.275.032,2.662.336,3.006.969a.379.379,0,0,1-.014.381.7.7,0,0,1-.543.355C156.211,380.3,156.176,380.311,156.142,380.311Zm-1.995-1.421c.867.794,1.63,1.233,2.064,1.175a.455.455,0,0,0,.351-.239.131.131,0,0,0,.007-.149C156.389,379.329,155.117,379.032,154.147,378.89Z" transform="translate(-7.545 -66.598)" fill="#263238"/>
      <path id="Path_940" data-name="Path 940" d="M154.224,378.243a3.051,3.051,0,0,1-.461-.032.128.128,0,0,1-.1-.077.119.119,0,0,1,.021-.116,3.605,3.605,0,0,1,1.85-1.169,1,1,0,0,1,.708.207c.268.22.254.413.186.536C156.219,378.024,155.029,378.243,154.224,378.243Zm-.179-.239c.77.039,1.995-.2,2.16-.517.014-.026.055-.1-.124-.252a.739.739,0,0,0-.516-.155A3.081,3.081,0,0,0,154.045,378Z" transform="translate(-7.547 -65.977)" fill="#263238"/>
      <path id="Path_941" data-name="Path 941" d="M136.715,374.061l-5.833-1.55a.436.436,0,0,0-.516.226L128.4,376.9a.8.8,0,0,0,.571,1.085c2.043.51,3.061.652,5.627,1.337,1.575.42,3.838,1.182,6.019,1.763,2.132.568,2.9-1.414,2.05-1.84-3.824-1.9-4.127-3.2-5.173-4.65A1.419,1.419,0,0,0,136.715,374.061Z" transform="translate(0.359 -64.436)" fill="#263238"/>
      <path id="Path_942" data-name="Path 942" d="M149.829,375.917l-4.98-3.248a.452.452,0,0,0-.564.052l-3.3,3.332a.778.778,0,0,0,.165,1.2c1.754,1.1,2.662,1.556,4.856,2.983,1.348.878,4.038,2.828,5.895,4.036,1.823,1.188,3.24-.452,2.579-1.111-2.958-2.964-3.6-4.824-4.093-6.509A1.352,1.352,0,0,0,149.829,375.917Z" transform="translate(-3.523 -64.471)" fill="#263238"/>
      <path id="Path_943" data-name="Path 943" d="M144,364.887,135.02,360.7l.929-2.286,9.589,4.417Z" transform="translate(-1.728 -59.446)" fill="#263238"/>
      <path id="Path_944" data-name="Path 944" d="M130.749,246.038l-.757,1.84c-.076.142.1.291.358.291H153.1c.2,0,.365-.09.371-.207l.2-1.84c.014-.129-.158-.232-.371-.232h-22.2A.407.407,0,0,0,130.749,246.038Z" transform="translate(-0.153 -19.587)" fill="#407bff"/>
      <path id="Path_945" data-name="Path 945" d="M130.749,246.038l-.757,1.84c-.076.142.1.291.358.291H153.1c.2,0,.365-.09.371-.207l.2-1.84c.014-.129-.158-.232-.371-.232h-22.2A.407.407,0,0,0,130.749,246.038Z" transform="translate(-0.153 -19.587)" fill="#bf4443"/>
      <path id="Path_946" data-name="Path 946" d="M135.951,248.274h-.592c-.117,0-.206-.058-.2-.129l.282-2.4c.007-.071.11-.129.227-.129h.592c.117,0,.206.058.2.129l-.282,2.4C136.171,248.216,136.068,248.274,135.951,248.274Z" transform="translate(-1.771 -19.492)" fill="#ec5958"/>
      <path id="Path_947" data-name="Path 947" d="M156.351,248.274h-.592c-.117,0-.206-.058-.2-.129l.282-2.4c.007-.071.11-.129.227-.129h.592c.117,0,.206.058.2.129l-.282,2.4C156.578,248.216,156.475,248.274,156.351,248.274Z" transform="translate(-8.14 -19.492)" fill="#ec5958"/>
      <path id="Path_12113" data-name="Path 12113" d="M18.427,0C28.6,0,36.855.561,36.855,1.253S28.6,2.506,18.427,2.506,0,1.945,0,1.253,8.25,0,18.427,0Z" transform="translate(115.229 335.636)" fill="#1e202d"/>
      <path id="Path_948" data-name="Path 948" d="M141.368,368.307c-1.571-.43-3.22-.918-5.049-1.546a27.286,27.286,0,0,1-4.016-1.7c-.062-.032-.124-.058-.193-.09V351.129h6.555a1.844,1.844,0,1,0,0-3.681H132.11V284.28h-3.928v63.169h-6.555a1.844,1.844,0,1,0,0,3.681h6.555v13.839c-.062.032-.131.058-.193.09a46.305,46.305,0,0,1-9.066,3.248.9.9,0,0,0,.268,1.769h21.9A.9.9,0,0,0,141.368,368.307Z" transform="translate(3.514 -33.187)" fill="#bf4443"/>
      <path id="Path_949" data-name="Path 949" d="M140.623,287.836h-24.46a3.469,3.469,0,0,1-3.563-3.345v-6.826a3.469,3.469,0,0,1,3.563-3.345h24.46a3.469,3.469,0,0,1,3.563,3.345v6.826A3.469,3.469,0,0,1,140.623,287.836Z" transform="translate(5.271 -29.659)" fill="#ec5958"/>
      <g id="Group_417" data-name="Group 417" transform="translate(121.207 258.177)">
        <path id="Path_950" data-name="Path 950" d="M117.45,295.25v1.175c0,.969,1.121,1.763,2.5,1.763h19.92c1.376,0,2.5-.794,2.5-1.763V295.25Z" transform="translate(-117.45 -295.25)" fill="#bf4443"/>
        <path id="Path_951" data-name="Path 951" d="M117.45,295.25v1.175c0,.969,1.121,1.763,2.5,1.763h19.92c1.376,0,2.5-.794,2.5-1.763V295.25Z" transform="translate(-117.45 -295.25)" fill="#bf4443" opacity="0.3"/>
      </g>
    </g>
  </g>
</svg>
