<svg xmlns="http://www.w3.org/2000/svg" width="52.582" height="52.193" viewBox="0 0 52.582 52.193">
  <g id="Group_6110" data-name="Group 6110" transform="translate(-9939.684 -3363.716)">
    <path id="Path_11977" data-name="Path 11977" d="M214.526,424.337a.867.867,0,0,1-.18-.019,1.3,1.3,0,0,1-.466-.22c-.379-.264-.729-.552-1.068-.831l-.186-.158c-.047-.039-.095-.082-.144-.125s-.078-.069-.115-.1h0l-.02-.017-.338.107c-.233.077-.474.157-.729.223-.034.008-.079.022-.132.039-.491.148-1.406.427-1.786-.227h0a.838.838,0,0,1-.079-.576,8.117,8.117,0,0,1,.433-1.445l.064-.174c.068-.189.131-.357.187-.5a5.859,5.859,0,0,1-1.271-2.01.885.885,0,0,1,.182-.8.91.91,0,0,1,.676-.287,12.78,12.78,0,0,1,2.25.184h0a12.442,12.442,0,0,1,1.166-1.633,1.045,1.045,0,0,1,.52-.339.983.983,0,0,1,.707.093.9.9,0,0,1,.19.141,1.1,1.1,0,0,1,.273.466,12.547,12.547,0,0,1,.4,1.966,13.049,13.049,0,0,1,2.13.748.911.911,0,0,1,.5.534.888.888,0,0,1-.161.806,5.8,5.8,0,0,1-1.956,1.307,9.067,9.067,0,0,1-.243,2.157.831.831,0,0,1-.8.693Zm-2.064-2.591h0a.571.571,0,0,1,.122.014.881.881,0,0,1,.438.278l.031.03c.04.032.089.076.138.119s.078.069.115.1l.19.157c.291.239.566.468.854.679h0a8.017,8.017,0,0,0,.142-1.945.534.534,0,0,1,.33-.519,7.6,7.6,0,0,0,1.7-.953,18.446,18.446,0,0,0-2.1-.676.535.535,0,0,1-.4-.476,11.3,11.3,0,0,0-.351-1.969,11.307,11.307,0,0,0-1.124,1.655.534.534,0,0,1-.553.275,18.512,18.512,0,0,0-2.185-.238h-.008a7.647,7.647,0,0,0,1.164,1.564h0a.535.535,0,0,1,.107.573c-.051.122-.144.355-.3.774l-.065.177h0a9.686,9.686,0,0,0-.32.972c.167-.034.357-.092.442-.117s.131-.04.176-.051c.22-.056.434-.127.66-.2s.427-.14.648-.2h0a.579.579,0,0,1,.14-.019Z" transform="translate(9743.581 2987.708)" fill="#ec5958"/>
    <path id="Path_11979" data-name="Path 11979" d="M128.534,166.906c-2.772,0-5.635-2.449-5.894-2.675l-10.968-8.437-.017-.014a9.4,9.4,0,0,0-5.294-2,9.945,9.945,0,0,0-5.437,2.029l-.008.008L89.972,164.23c-.268.234-3.34,2.856-6.2,2.665a3.836,3.836,0,0,1-2.733-1.381c-1.277-1.482-1.362-3.374-.241-5.478a11.291,11.291,0,0,1,1.987-2.628l12.923-12.523c.334-.373,4.786-5.2,10.585-5.2,5.767,0,10.359,4.918,10.689,5.281l12.852,12.451a11.249,11.249,0,0,1,1.981,2.623c1.119,2.1,1.036,4-.241,5.478h0a3.84,3.84,0,0,1-2.734,1.381c-.1.006-.2.011-.306.011Zm-22.24-26.157c-5.417,0-9.758,4.806-9.8,4.86a.329.329,0,0,1-.028.029L83.522,158.181a10.34,10.34,0,0,0-1.793,2.379c-.9,1.693-.854,3.126.119,4.258a2.766,2.766,0,0,0,1.995,1.011c2.494.169,5.407-2.385,5.436-2.407l.029-.024,10.954-8.43a10.915,10.915,0,0,1,6.1-2.26,10.33,10.33,0,0,1,5.97,2.243l10.974,8.444a.28.28,0,0,1,.028.024c.03.026,2.95,2.578,5.437,2.411h0a2.767,2.767,0,0,0,1.994-1.011c2.381-2.765-1.626-6.593-1.667-6.631l-12.869-12.47-.026-.024c-.044-.051-4.524-4.944-9.909-4.944Z" transform="translate(9859.67 3236.502)" fill="#ec5958"/>
    <path id="Path_11980" data-name="Path 11980" d="M168.942,276.724a.534.534,0,0,1-.4-.186l-6.128-7.113h0a.534.534,0,0,1,.81-.7l6.128,7.114a.534.534,0,0,1-.4.882Z" transform="translate(9785.438 3120.223)" fill="#ec5958"/>
    <path id="Path_11981" data-name="Path 11981" d="M141.071,301.882a.535.535,0,0,1-.4-.185l-5.868-6.8a.534.534,0,0,1,.808-.7l5.865,6.807a.534.534,0,0,1-.4.882Z" transform="translate(9810.345 3097.231)" fill="#ec5958"/>
    <path id="Path_11982" data-name="Path 11982" d="M463.445,276.638a.534.534,0,0,1-.4-.882l6.128-7.114h0a.534.534,0,1,1,.808.7l-6.129,7.113a.533.533,0,0,1-.4.186Z" transform="translate(9514.161 3120.309)" fill="#ec5958"/>
    <path id="Path_11983" data-name="Path 11983" d="M433.309,248.906a.534.534,0,0,1-.4-.883l6.459-7.5a.534.534,0,0,1,.81.7l-6.46,7.5A.535.535,0,0,1,433.309,248.906Z" transform="translate(9541.354 3145.665)" fill="#ec5958"/>
    <path id="Path_11984" data-name="Path 11984" d="M196.715,248.906a.534.534,0,0,1-.4-.186l-6.46-7.5a.534.534,0,0,1,.809-.7l6.459,7.5h0a.534.534,0,0,1-.4.883Z" transform="translate(9760.67 3145.665)" fill="#ec5958"/>
    <path id="Path_11985" data-name="Path 11985" d="M493.84,301.794a.529.529,0,0,1-.348-.129.534.534,0,0,1-.056-.748l5.865-6.807a.534.534,0,0,1,.809.7l-5.863,6.8a.535.535,0,0,1-.406.185Z" transform="translate(9486.732 3097.32)" fill="#ec5958"/>
    <path id="Path_11986" data-name="Path 11986" d="M325.088,188.156a.534.534,0,0,1-.378-.911l3.762-3.762a.534.534,0,1,1,.755.755L325.465,188h0a.536.536,0,0,1-.377.156Z" transform="translate(9639.008 3197.123)" fill="#ec5958"/>
    <path id="Path_11987" data-name="Path 11987" d="M328.9,188.277a.535.535,0,0,1-.377-.156l-3.762-3.762a.534.534,0,0,1,.755-.755l3.762,3.762h0a.534.534,0,0,1-.378.911Z" transform="translate(9638.955 3197.002)" fill="#ec5958"/>
    <path id="Path_11988" data-name="Path 11988" d="M361.925,422.371a.534.534,0,1,1-.032-1.068L362,421.3h0a.535.535,0,1,1,.068,1.068l-.107.006Zm2.229-.235a.535.535,0,1,1-.079-1.068l.107-.015a.534.534,0,1,1,.164,1.055l-.107.016a.526.526,0,0,1-.084.011Zm2.2-.427h0a.534.534,0,0,1-.126-1.053l.107-.024h0a.534.534,0,0,1,.254,1.037l-.107.026a.561.561,0,0,1-.131.013Zm2.152-.621h0a.534.534,0,0,1-.171-1.041l.1-.034h0a.534.534,0,1,1,.345,1.011l-.107.034a.537.537,0,0,1-.167.027Zm2.09-.809h0a.534.534,0,0,1-.214-1.023l.1-.043a.534.534,0,0,1,.433.977l-.1.044h0a.538.538,0,0,1-.216.043Zm2.011-.989h0a.534.534,0,0,1-.256-1l.088-.048a.534.534,0,0,1,.518.935l-.1.053a.538.538,0,0,1-.252.061Zm1.916-1.157a.534.534,0,0,1-.3-.978l.088-.059a.534.534,0,1,1,.595.886l-.09.06A.534.534,0,0,1,374.525,418.133Zm1.808-1.324a.534.534,0,0,1-.334-.952l.082-.065h0a.534.534,0,1,1,.671.831l-.085.068a.535.535,0,0,1-.333.112Zm1.686-1.477a.534.534,0,0,1-.368-.921l.075-.072a.534.534,0,0,1,.741.769l-.079.075a.534.534,0,0,1-.368.143Zm1.552-1.618h0a.534.534,0,0,1-.4-.886l.069-.079h0a.534.534,0,0,1,.805.7l-.072.082a.529.529,0,0,1-.4.176Zm1.4-1.747h0a.534.534,0,0,1-.427-.854l.061-.083h0a.534.534,0,1,1,.863.629l-.065.089a.534.534,0,0,1-.431.215Zm1.248-1.863h0a.534.534,0,0,1-.456-.812l.055-.088h0a.534.534,0,1,1,.915.55l-.058.094h0a.534.534,0,0,1-.456.251Z" transform="translate(9605.783 2993.538)" fill="#ec5958"/>
    <path id="Path_11989" data-name="Path 11989" d="M84.191,44.964a.535.535,0,0,1-.518-.4l-.027-.107a.534.534,0,1,1,1.037-.258l.024.107a.534.534,0,0,1-.386.649.56.56,0,0,1-.131.012Zm-.456-2.195a.534.534,0,0,1-.526-.45l-.017-.107a.534.534,0,0,1,1.055-.168l.017.107h0a.534.534,0,0,1-.442.612.506.506,0,0,1-.087.005Zm-.261-2.227a.534.534,0,0,1-.534-.5l-.008-.107h0A.535.535,0,1,1,84,39.868l.008.107h0a.534.534,0,0,1-.494.562ZM83.408,38.3H83.4a.534.534,0,0,1-.528-.54v-.107a.534.534,0,0,1,.534-.524h.01a.534.534,0,0,1,.524.543v.107a.534.534,0,0,1-.534.523Zm.132-2.236h-.053a.535.535,0,0,1-.481-.587l.012-.107a.534.534,0,1,1,1.062.107l-.011.107a.534.534,0,0,1-.529.48Zm.32-2.217a.534.534,0,0,1-.526-.634l.02-.107h0a.534.534,0,1,1,1.049.2l-.02.107a.534.534,0,0,1-.523.431Zm.514-2.182h0a.507.507,0,0,1-.145-.02.534.534,0,0,1-.368-.659l.03-.107a.534.534,0,1,1,1.028.294l-.029.1h0a.533.533,0,0,1-.518.391Zm.7-2.129a.548.548,0,0,1-.19-.035.535.535,0,0,1-.309-.69l.04-.1a.534.534,0,1,1,1,.384l-.037.1h0a.534.534,0,0,1-.5.344Zm.89-2.059a.523.523,0,0,1-.233-.055.534.534,0,0,1-.248-.714l.048-.1h0a.535.535,0,1,1,.961.471l-.046.094a.534.534,0,0,1-.483.3ZM87.032,25.5a.528.528,0,0,1-.275-.077.534.534,0,0,1-.183-.732l.056-.094a.534.534,0,0,1,.913.555l-.055.09a.534.534,0,0,1-.458.259Zm1.236-1.872a.534.534,0,0,1-.427-.847L87.9,22.7a.534.534,0,1,1,.863.63l-.062.084a.534.534,0,0,1-.439.222Zm1.394-1.756h0a.534.534,0,0,1-.405-.884l.072-.081a.534.534,0,1,1,.8.7l-.068.079a.534.534,0,0,1-.4.186Zm1.54-1.632a.534.534,0,0,1-.372-.917l.079-.076a.537.537,0,1,1,.739.78l-.076.072a.535.535,0,0,1-.371.142Zm1.677-1.488a.534.534,0,0,1-.338-.949l.084-.068h0a.534.534,0,0,1,.671.831l-.081.066a.535.535,0,0,1-.336.124Zm1.8-1.332a.534.534,0,0,1-.3-.976l.09-.061h0a.534.534,0,0,1,.6.886l-.088.059a.532.532,0,0,1-.3.092Zm1.91-1.175h0a.534.534,0,0,1-.26-1l.094-.052h0a.534.534,0,1,1,.515.936l-.091.051a.531.531,0,0,1-.258.066Zm2-1h0a.534.534,0,0,1-.214-1.021l.1-.045a.534.534,0,1,1,.427.977l-.095.042a.528.528,0,0,1-.219.047Zm2.084-.822h0a.534.534,0,0,1-.174-1.038l.107-.035a.534.534,0,1,1,.343,1.01l-.1.034a.515.515,0,0,1-.176.029Zm2.149-.641a.534.534,0,0,1-.128-1.053l.107-.026a.534.534,0,1,1,.253,1.038l-.107.024h0a.558.558,0,0,1-.125.021Zm2.2-.444a.534.534,0,0,1-.082-1.062l.107-.017a.534.534,0,1,1,.162,1.056l-.107.016a.563.563,0,0,1-.08.012Zm2.232-.244a.534.534,0,1,1-.036-1.068l.107-.008a.535.535,0,0,1,.068,1.068l-.107.006Z" transform="translate(9857.089 3351.697)" fill="#ec5958"/>
    <path id="Path_11990" data-name="Path 11990" d="M134.235,84.349a.534.534,0,0,1-.534-.534v-.107a.534.534,0,1,1,1.068,0v.107a.534.534,0,0,1-.534.534Zm.13-2.243H134.3a.535.535,0,0,1-.47-.592l.014-.107h0a.534.534,0,1,1,1.059.13l-.012.107h0a.535.535,0,0,1-.53.466Zm.378-2.2a.522.522,0,0,1-.122-.014.534.534,0,0,1-.4-.641l.024-.107h0a.534.534,0,1,1,1.039.248l-.024.1h0a.534.534,0,0,1-.52.413Zm.628-2.152a.533.533,0,0,1-.5-.711l.036-.107a.538.538,0,1,1,1.013.364l-.034.1a.533.533,0,0,1-.508.357Zm.867-2.069a.536.536,0,0,1-.483-.765l.048-.1a.535.535,0,1,1,.961.469l-.045.094h0A.534.534,0,0,1,136.239,75.681Zm1.079-1.964a.534.534,0,0,1-.453-.817l.058-.092a.534.534,0,0,1,.9.568l-.056.088h0a.535.535,0,0,1-.454.252ZM138.6,71.88a.534.534,0,0,1-.421-.863l.067-.087a.534.534,0,0,1,.838.662l-.064.081a.535.535,0,0,1-.418.206Zm1.473-1.69a.534.534,0,0,1-.383-.906l.077-.079h0a.534.534,0,1,1,.762.748l-.072.075h0a.532.532,0,0,1-.38.162Zm1.645-1.524a.534.534,0,0,1-.342-.944l.084-.069a.534.534,0,1,1,.678.825l-.08.066h0a.525.525,0,0,1-.337.123Zm1.8-1.333a.534.534,0,0,1-.295-.98l.091-.06h0a.534.534,0,1,1,.586.892l-.088.059h0a.536.536,0,0,1-.295.089Zm1.933-1.137a.534.534,0,0,1-.246-1.008l.1-.049a.534.534,0,0,1,.487.951l-.094.048h0a.542.542,0,0,1-.245.053Zm2.043-.921a.534.534,0,0,1-.194-1.039l.107-.04a.535.535,0,0,1,.378,1l-.1.036a.521.521,0,0,1-.195.036Zm2.128-.7h0a.534.534,0,0,1-.14-1.054l.107-.029h0a.534.534,0,1,1,.279,1.031l-.107.028h0a.535.535,0,0,1-.139.019Zm11.225-.444a.489.489,0,0,1-.088-.008l-.1-.016a.534.534,0,1,1,.169-1.055l.107.018a.534.534,0,0,1-.085,1.06Zm-9.035-.048a.534.534,0,0,1-.089-1.06l.107-.018a.534.534,0,1,1,.176,1.053l-.107.018h0a.489.489,0,0,1-.088.011Zm6.811-.236a.354.354,0,0,1-.049,0l-.107-.008a.536.536,0,0,1,.091-1.068l.107.01a.535.535,0,0,1-.048,1.068Zm-4.587-.036a.534.534,0,1,1-.041-1.068l.107-.008a.535.535,0,0,1,.078,1.068l-.1.008Zm2.35-.076h-.107a.534.534,0,1,1,.01-1.068h.107a.534.534,0,0,1-.006,1.068Z" transform="translate(9811.225 3305.997)" fill="#ec5958"/>
    <path id="Path_11991" data-name="Path 11991" d="M303.449,399.337h-.024l-.107-.005h0a.535.535,0,1,1,.053-1.068h.107a.534.534,0,1,1-.024,1.068Zm2.136,0a.534.534,0,0,1-.027-1.068h.107a.535.535,0,0,1,.056,1.068l-.107.005Zm-4.367-.214a.662.662,0,0,1-.078,0l-.107-.016a.534.534,0,1,1,.16-1.056l.107.015a.534.534,0,0,1-.076,1.063Zm6.6-.008a.534.534,0,0,1-.076-1.063l.107-.015h0a.534.534,0,0,1,.159,1.057l-.107.016a.676.676,0,0,1-.083.007Zm2.2-.427h0a.534.534,0,0,1-.126-1.053l.1-.024h0a.534.534,0,1,1,.257,1.036l-.107.027a.5.5,0,0,1-.126.017Zm2.151-.632a.534.534,0,0,1-.176-1.039l.1-.034h0a.534.534,0,1,1,.357,1.007l-.107.036h0A.538.538,0,0,1,312.167,398.055Zm2.078-.841h0a.534.534,0,0,1-.224-1.019l.094-.044h0a.534.534,0,1,1,.454.967l-.1.047h0a.538.538,0,0,1-.224.049Zm1.984-1.042h0a.534.534,0,0,1-.275-.992l.092-.055h0a.534.534,0,1,1,.548.916l-.092.055h0a.54.54,0,0,1-.273.076Zm1.867-1.241h0a.534.534,0,0,1-.32-.961l.083-.063h0a.534.534,0,1,1,.641.854l-.088.065a.535.535,0,0,1-.316.1Zm1.726-1.433a.534.534,0,0,1-.364-.925l.077-.072a.534.534,0,0,1,.732.779l-.08.074a.532.532,0,0,1-.364.144Zm1.552-1.619h0a.534.534,0,0,1-.406-.88l.067-.08h0a.534.534,0,0,1,.816.69l-.072.083h0a.534.534,0,0,1-.41.187Zm1.352-1.787a.539.539,0,0,1-.3-.09.534.534,0,0,1-.148-.741l.056-.087h0a.534.534,0,1,1,.893.587l-.061.092h0a.533.533,0,0,1-.45.238Z" transform="translate(9660.643 3011.587)" fill="#ec5958"/>
    <path id="Path_11992" data-name="Path 11992" d="M547.972,170.861a.532.532,0,0,1-.375-.91l1.017-1.028a.534.534,0,0,1,.759.748l-1.017,1.028h0A.535.535,0,0,1,547.972,170.861Z" transform="translate(9437.886 3210.236)" fill="#ec5958"/>
    <path id="Path_11993" data-name="Path 11993" d="M549.482,244.327a.534.534,0,0,1-.375-.154l-.988-.974a.534.534,0,1,1,.748-.761l.988.974a.534.534,0,0,1-.375.914Z" transform="translate(9437.438 3143.935)" fill="#ec5958"/>
    <path id="Path_11994" data-name="Path 11994" d="M561.59,223.675a.543.543,0,0,1-.136-.018l-1.381-.361a.534.534,0,0,1,.27-1.033l1.381.362h0a.534.534,0,0,1-.135,1.051Z" transform="translate(9426.833 3161.995)" fill="#ec5958"/>
    <path id="Path_11995" data-name="Path 11995" d="M559.844,196.76a.534.534,0,0,1-.141-1.049l1.388-.38a.534.534,0,1,1,.282,1.031l-1.388.379A.475.475,0,0,1,559.844,196.76Z" transform="translate(9427.175 3186.302)" fill="#ec5958"/>
    <path id="Path_11996" data-name="Path 11996" d="M549.036,170.38a.534.534,0,0,1-.38-.909l.915-.929a.534.534,0,1,1,.761.748l-.915.929A.533.533,0,0,1,549.036,170.38Z" transform="translate(9436.929 3210.622)" fill="#ec5958"/>
    <path id="Path_11997" data-name="Path 11997" d="M528.38,155.336a.555.555,0,0,1-.137-.017.534.534,0,0,1-.38-.652l.338-1.287h0a.534.534,0,0,1,1.033.27l-.338,1.288a.534.534,0,0,1-.516.4Z" transform="translate(9455.567 3224.486)" fill="#ec5958"/>
    <path id="Path_11998" data-name="Path 11998" d="M501.641,155.4a.535.535,0,0,1-.515-.393l-.362-1.333a.534.534,0,1,1,1.031-.282l.358,1.333a.534.534,0,0,1-.515.675Z" transform="translate(9480.021 3224.486)" fill="#ec5958"/>
    <path id="Path_11999" data-name="Path 11999" d="M476.249,170.7a.534.534,0,0,1-.375-.154l-.988-.975h0a.534.534,0,0,1,.748-.76l.988.975a.534.534,0,0,1-.375.914Z" transform="translate(9503.481 3210.336)" fill="#ec5958"/>
  </g>
</svg>
