<svg xmlns="http://www.w3.org/2000/svg" width="15.596" height="12.091" viewBox="0 0 15.596 12.091">
  <g id="Group_6301" data-name="Group 6301" transform="translate(-10.203 -164.486)">
    <path id="user-comment-icon" d="M2.525,8.647l1.5-1.441a.339.339,0,0,1,.236-.1H5.751a1.37,1.37,0,0,0-.662.683H4.4L2.437,9.676a.342.342,0,0,1-.6-.229V7.793H.829A.833.833,0,0,1,0,6.964V.829A.836.836,0,0,1,.829,0H8.6a.833.833,0,0,1,.829.829V2.938a1.652,1.652,0,0,0-.684-.287V.829A.149.149,0,0,0,8.6.684H.829A.152.152,0,0,0,.684.829V6.964a.146.146,0,0,0,.044.1.145.145,0,0,0,.1.043H2.183a.342.342,0,0,1,.342.342v1.2Zm3.191.4a.086.086,0,0,1-.086-.086.3.3,0,0,1,.009-.073C5.778,7.8,6.261,7.779,6.868,7.62A1.891,1.891,0,0,0,7.574,7.3a.362.362,0,0,0,.145-.344.794.794,0,0,1-.285-.564H7.416a.238.238,0,0,1-.117-.03.336.336,0,0,1-.147-.235c-.026-.12-.056-.464.108-.533h0c-.02-.379.044-.98-.346-1.1.769-.951,1.656-1.468,2.322-.622.742.039,1.073,1.132.612,1.721H9.83c.164.069.133.413.108.533a.337.337,0,0,1-.147.235.238.238,0,0,1-.117.03H9.657a.794.794,0,0,1-.285.564.362.362,0,0,0,.145.344,1.889,1.889,0,0,0,.706.317c.608.159,1.091.178,1.229,1.271a.3.3,0,0,1,.009.073.086.086,0,0,1-.086.086H5.716ZM2.346,3.074a.342.342,0,1,1,0-.684H7a.342.342,0,1,1,0,.684H2.346Zm0,2.023a.342.342,0,1,1,0-.683H5.52a.342.342,0,1,1,0,.683H2.346Z" transform="translate(13 164.486)"/>
    <path id="Ellipse_2275" data-name="Ellipse 2275" d="M7.816.957C8.888.958,9.908.944,10.837.92S12.6.861,13.3.818,14.572.723,14.962.666s.6-.12.6-.187S15.334.35,14.935.293,13.962.184,13.254.141s-1.549-.078-2.482-.1S8.817,0,7.745,0,5.654.015,4.729.039,2.972.1,2.275.142,1.016.237.63.294s-.6.12-.593.186S.263.608.658.665s.965.109,1.668.152,1.54.078,2.468.1S6.744.957,7.816.957Z" transform="translate(10.203 175.618)" fill="#ec5958" opacity="0.23"/>
  </g>
</svg>
