<svg xmlns="http://www.w3.org/2000/svg" width="10.863" height="12.036" viewBox="0 0 10.863 12.036">
  <g id="Group_6122" data-name="Group 6122" transform="translate(-14.281 -660.964)">
    <path id="Path_12034" data-name="Path 12034" d="M158.1,253.749a.6.6,0,1,0,.427.177.6.6,0,0,0-.427-.177Zm0,.8a.2.2,0,1,1,.142-.059A.2.2,0,0,1,158.1,254.554Z" transform="translate(-142.214 412.629)" fill="#717171"/>
    <path id="Path_12035" data-name="Path 12035" d="M158.1,350a.6.6,0,1,0,.427.177A.6.6,0,0,0,158.1,350Zm0,.8a.2.2,0,1,1,.142-.059A.2.2,0,0,1,158.1,350.8Z" transform="translate(-142.214 318.433)" fill="#717171"/>
    <path id="Path_12036" data-name="Path 12036" d="M158.1,446.249a.6.6,0,1,0,.427.177.6.6,0,0,0-.427-.177Zm0,.8a.2.2,0,1,1,.142-.059A.2.2,0,0,1,158.1,447.054Z" transform="translate(-142.214 224.135)" fill="#717171"/>
    <path id="Path_12037" data-name="Path 12037" d="M157.5,158.1a.6.6,0,1,0,.177-.427.6.6,0,0,0-.177.427Zm.8,0a.2.2,0,1,1-.059-.142A.2.2,0,0,1,158.3,158.1Z" transform="translate(-142.212 506.824)" fill="#717171"/>
    <path id="Path_12038" data-name="Path 12038" d="M219.154,2.012h3.219a.4.4,0,0,0,.4-.4V.4a.4.4,0,0,0-.4-.4h-.752a.2.2,0,0,0-.125.044,1.169,1.169,0,0,1-.733.258,1.169,1.169,0,0,1-.733-.258A.2.2,0,0,0,219.905,0h-.752a.4.4,0,0,0-.4.4V1.61a.4.4,0,0,0,.4.4Zm0-1.609h.684a1.563,1.563,0,0,0,.925.3,1.563,1.563,0,0,0,.925-.3h.684V1.61h-3.219Z" transform="translate(-202.056 660.963)" fill="#717171"/>
    <path id="Path_12039" data-name="Path 12039" d="M241.158,153.508l.057-.328a.2.2,0,0,0-.139-.056h-4.627a.2.2,0,0,0,0,.4h4.627a.2.2,0,0,0,.082-.018Z" transform="translate(-219.149 511.123)" fill="#717171"/>
    <path id="Path_12040" data-name="Path 12040" d="M241.051,196.88h-4.6a.2.2,0,1,0,0,.4h4.53Z" transform="translate(-219.152 468.305)" fill="#717171"/>
    <path id="Path_12041" data-name="Path 12041" d="M240.841,249.38h-4.39a.2.2,0,0,0,0,.4h4.319Z" transform="translate(-219.152 416.931)" fill="#717171"/>
    <path id="Path_12042" data-name="Path 12042" d="M240.665,293.12h-4.214a.2.2,0,1,0,0,.4h4.144Z" transform="translate(-219.152 374.129)" fill="#717171"/>
    <path id="Path_12043" data-name="Path 12043" d="M236.446,389.782H240.2l.07-.4h-3.828a.2.2,0,1,0,0,.4Z" transform="translate(-219.147 279.934)" fill="#717171"/>
    <path id="Path_12044" data-name="Path 12044" d="M236.451,345.62a.2.2,0,0,0,0,.4h3.933l.07-.4Z" transform="translate(-219.152 322.755)" fill="#717171"/>
    <path id="Path_12045" data-name="Path 12045" d="M236.446,486.022h4a.574.574,0,0,1-.043-.108l-.083-.294h-3.872a.2.2,0,0,0,0,.4Z" transform="translate(-219.147 185.67)" fill="#717171"/>
    <path id="Path_12046" data-name="Path 12046" d="M236.45,442.282h3.7l-.059-.212a.605.605,0,0,1-.021-.19h-3.622a.2.2,0,0,0,0,.4Z" transform="translate(-219.15 228.56)" fill="#717171"/>
    <path id="Path_12047" data-name="Path 12047" d="M122.2,54.033a.362.362,0,0,1-.118.264.419.419,0,0,1-.284.11h-7.242a.419.419,0,0,1-.284-.11.362.362,0,0,1-.118-.264V44.5a.361.361,0,0,1,.118-.264.418.418,0,0,1,.284-.11h1.207V43.75h-1.207a.838.838,0,0,0-.569.219.723.723,0,0,0-.236.529v9.535a.723.723,0,0,0,.236.529.838.838,0,0,0,.569.219H121.8a.838.838,0,0,0,.569-.219.723.723,0,0,0,.236-.529v-.869l-.4.523Z" transform="translate(-99.469 618.219)" fill="#717171"/>
    <path id="Path_12048" data-name="Path 12048" d="M412.677,44.22a.562.562,0,0,1,.21-.13l.039-.184a.8.8,0,0,0-.472-.155h-1.207v.4h1.207A.4.4,0,0,1,412.677,44.22Z" transform="translate(-390.126 618.219)" fill="#717171"/>
    <path id="Path_12049" data-name="Path 12049" d="M423.767,41.445l-.6-.616h0l.05-.267a.188.188,0,0,0-.163-.215L423,40.337l.1-.455a.35.35,0,0,0-.063-.29.408.408,0,0,0-.272-.156l-.446-.06a.427.427,0,0,0-.288.063.372.372,0,0,0-.164.228l-.107.467-.087-.014a.214.214,0,0,0-.151.031.185.185,0,0,0-.083.12L420,47.924a.173.173,0,0,0,0,.082l.311,1.027a.194.194,0,0,0,.149.13l-.06.317h0a.188.188,0,0,0,.163.215.2.2,0,0,0,.233-.151l.06-.315h.006a.209.209,0,0,0,.035,0,.207.207,0,0,0,.164-.078l.668-.865a.177.177,0,0,0,.034-.076l1.307-6.922.33.336-.264,1.529a.188.188,0,0,0,.167.213.2.2,0,0,0,.23-.154l.279-1.617a.177.177,0,0,0-.05-.154Zm-1.5-1.7.446.06-.108.467-.443-.073Zm-.887,8.364-.568.735-.142-.023-.265-.873.011-.059.97.159h.005Zm.081-.427h0l-.971-.159.1-.544.971.159h0Zm.172-.91h0l-.972-.159.964-5.105.972.18Zm1.029-5.452-.972-.18.1-.534.975.16Z" transform="translate(-398.675 622.496)" fill="#717171"/>
  </g>
</svg>
